%TF.GenerationSoftware,KiCad,Pcbnew,(5.1.12)-1*%
%TF.CreationDate,2022-06-03T18:51:51+02:00*%
%TF.ProjectId,pypilot-dome,70797069-6c6f-4742-9d64-6f6d652e6b69,rev?*%
%TF.SameCoordinates,Original*%
%TF.FileFunction,Copper,L2,Bot*%
%TF.FilePolarity,Positive*%
%FSLAX46Y46*%
G04 Gerber Fmt 4.6, Leading zero omitted, Abs format (unit mm)*
G04 Created by KiCad (PCBNEW (5.1.12)-1) date 2022-06-03 18:51:51*
%MOMM*%
%LPD*%
G01*
G04 APERTURE LIST*
%TA.AperFunction,ComponentPad*%
%ADD10O,1.600000X1.600000*%
%TD*%
%TA.AperFunction,ComponentPad*%
%ADD11C,1.600000*%
%TD*%
%TA.AperFunction,ComponentPad*%
%ADD12O,1.700000X1.700000*%
%TD*%
%TA.AperFunction,ComponentPad*%
%ADD13R,1.700000X1.700000*%
%TD*%
%TA.AperFunction,ComponentPad*%
%ADD14C,2.000000*%
%TD*%
%TA.AperFunction,ComponentPad*%
%ADD15R,2.000000X2.000000*%
%TD*%
%TA.AperFunction,ViaPad*%
%ADD16C,0.800000*%
%TD*%
%TA.AperFunction,Conductor*%
%ADD17C,2.000000*%
%TD*%
%TA.AperFunction,Conductor*%
%ADD18C,0.250000*%
%TD*%
G04 APERTURE END LIST*
D10*
%TO.P,R8,2*%
%TO.N,GND*%
X104140000Y-29210000D03*
D11*
%TO.P,R8,1*%
%TO.N,Net-(J10-Pad10)*%
X104140000Y-41910000D03*
%TD*%
D10*
%TO.P,R7,2*%
%TO.N,Net-(J10-Pad10)*%
X109855000Y-41910000D03*
D11*
%TO.P,R7,1*%
%TO.N,Net-(A3-Pad1)*%
X109855000Y-54610000D03*
%TD*%
D12*
%TO.P,J10,40*%
%TO.N,StandBy*%
X88265000Y-73025000D03*
%TO.P,J10,39*%
%TO.N,GND*%
X90805000Y-73025000D03*
%TO.P,J10,38*%
%TO.N,Buzzer*%
X88265000Y-70485000D03*
%TO.P,J10,37*%
%TO.N,AUTO*%
X90805000Y-70485000D03*
%TO.P,J10,36*%
%TO.N,Net-(J10-Pad36)*%
X88265000Y-67945000D03*
%TO.P,J10,35*%
%TO.N,LED*%
X90805000Y-67945000D03*
%TO.P,J10,34*%
%TO.N,Net-(J10-Pad34)*%
X88265000Y-65405000D03*
%TO.P,J10,33*%
%TO.N,+1*%
X90805000Y-65405000D03*
%TO.P,J10,32*%
%TO.N,+10*%
X88265000Y-62865000D03*
%TO.P,J10,31*%
%TO.N,-10*%
X90805000Y-62865000D03*
%TO.P,J10,30*%
%TO.N,Net-(J10-Pad30)*%
X88265000Y-60325000D03*
%TO.P,J10,29*%
%TO.N,-1*%
X90805000Y-60325000D03*
%TO.P,J10,28*%
%TO.N,Net-(J10-Pad28)*%
X88265000Y-57785000D03*
%TO.P,J10,27*%
%TO.N,Net-(J10-Pad27)*%
X90805000Y-57785000D03*
%TO.P,J10,26*%
%TO.N,Net-(J10-Pad26)*%
X88265000Y-55245000D03*
%TO.P,J10,25*%
%TO.N,Net-(J10-Pad25)*%
X90805000Y-55245000D03*
%TO.P,J10,24*%
%TO.N,Net-(J10-Pad24)*%
X88265000Y-52705000D03*
%TO.P,J10,23*%
%TO.N,Net-(J10-Pad23)*%
X90805000Y-52705000D03*
%TO.P,J10,22*%
%TO.N,Net-(J10-Pad22)*%
X88265000Y-50165000D03*
%TO.P,J10,21*%
%TO.N,Net-(J10-Pad21)*%
X90805000Y-50165000D03*
%TO.P,J10,20*%
%TO.N,Net-(J10-Pad20)*%
X88265000Y-47625000D03*
%TO.P,J10,19*%
%TO.N,Net-(J10-Pad19)*%
X90805000Y-47625000D03*
%TO.P,J10,18*%
%TO.N,Net-(J10-Pad18)*%
X88265000Y-45085000D03*
%TO.P,J10,17*%
%TO.N,Net-(J10-Pad17)*%
X90805000Y-45085000D03*
%TO.P,J10,16*%
%TO.N,Net-(J10-Pad16)*%
X88265000Y-42545000D03*
%TO.P,J10,15*%
%TO.N,Net-(J10-Pad15)*%
X90805000Y-42545000D03*
%TO.P,J10,14*%
%TO.N,Net-(J10-Pad14)*%
X88265000Y-40005000D03*
%TO.P,J10,13*%
%TO.N,Net-(J10-Pad13)*%
X90805000Y-40005000D03*
%TO.P,J10,12*%
%TO.N,Net-(J10-Pad12)*%
X88265000Y-37465000D03*
%TO.P,J10,11*%
%TO.N,Net-(J10-Pad11)*%
X90805000Y-37465000D03*
%TO.P,J10,10*%
%TO.N,Net-(J10-Pad10)*%
X88265000Y-34925000D03*
%TO.P,J10,9*%
%TO.N,Net-(J10-Pad9)*%
X90805000Y-34925000D03*
%TO.P,J10,8*%
%TO.N,Net-(A3-Pad2)*%
X88265000Y-32385000D03*
%TO.P,J10,7*%
%TO.N,Net-(J10-Pad7)*%
X90805000Y-32385000D03*
%TO.P,J10,6*%
%TO.N,GND*%
X88265000Y-29845000D03*
%TO.P,J10,5*%
%TO.N,Net-(A2-Pad3)*%
X90805000Y-29845000D03*
%TO.P,J10,4*%
%TO.N,+5V*%
X88265000Y-27305000D03*
%TO.P,J10,3*%
%TO.N,Net-(A2-Pad4)*%
X90805000Y-27305000D03*
%TO.P,J10,2*%
%TO.N,+5V*%
X88265000Y-24765000D03*
D13*
%TO.P,J10,1*%
%TO.N,Net-(A2-Pad1)*%
X90805000Y-24765000D03*
%TD*%
D12*
%TO.P,J6,4*%
%TO.N,GND*%
X120015000Y-63500000D03*
%TO.P,J6,3*%
%TO.N,Net-(J6-Pad3)*%
X120015000Y-60960000D03*
%TO.P,J6,2*%
%TO.N,Net-(A3-Pad2)*%
X120015000Y-58420000D03*
D13*
%TO.P,J6,1*%
%TO.N,Net-(A3-Pad1)*%
X120015000Y-55880000D03*
%TD*%
D12*
%TO.P,J3,12*%
%TO.N,GND*%
X122555000Y-52070000D03*
%TO.P,J3,11*%
%TO.N,+5V*%
X120015000Y-52070000D03*
%TO.P,J3,10*%
%TO.N,GND*%
X122555000Y-49530000D03*
%TO.P,J3,9*%
%TO.N,+5V*%
X120015000Y-49530000D03*
%TO.P,J3,8*%
%TO.N,Buzzer*%
X122555000Y-46990000D03*
%TO.P,J3,7*%
%TO.N,-1*%
X120015000Y-46990000D03*
%TO.P,J3,6*%
%TO.N,AUTO*%
X122555000Y-44450000D03*
%TO.P,J3,5*%
%TO.N,+1*%
X120015000Y-44450000D03*
%TO.P,J3,4*%
%TO.N,StandBy*%
X122555000Y-41910000D03*
%TO.P,J3,3*%
%TO.N,+10*%
X120015000Y-41910000D03*
%TO.P,J3,2*%
%TO.N,-10*%
X122555000Y-39370000D03*
D13*
%TO.P,J3,1*%
%TO.N,LED*%
X120015000Y-39370000D03*
%TD*%
D14*
%TO.P,C6,2*%
%TO.N,GND*%
X118030000Y-27305000D03*
D15*
%TO.P,C6,1*%
%TO.N,+5V*%
X113030000Y-27305000D03*
%TD*%
D11*
%TO.P,C5,2*%
%TO.N,GND*%
X84455000Y-32305000D03*
%TO.P,C5,1*%
%TO.N,+5V*%
X84455000Y-27305000D03*
%TD*%
D12*
%TO.P,A2,4*%
%TO.N,Net-(A2-Pad4)*%
X96520000Y-37465000D03*
%TO.P,A2,3*%
%TO.N,Net-(A2-Pad3)*%
X96520000Y-34925000D03*
%TO.P,A2,2*%
%TO.N,GND*%
X96520000Y-32385000D03*
D13*
%TO.P,A2,1*%
%TO.N,Net-(A2-Pad1)*%
X96520000Y-29845000D03*
%TD*%
D11*
%TO.P,R10,1*%
%TO.N,Net-(D2-Pad1)*%
X95250000Y-16510000D03*
D10*
%TO.P,R10,2*%
%TO.N,/MOTORB*%
X107950000Y-16510000D03*
%TD*%
D16*
%TO.N,Net-(A3-Pad2)*%
X93345000Y-33655000D03*
X93345000Y-40879998D03*
X111760000Y-59294998D03*
%TO.N,Buzzer*%
X107315000Y-62230000D03*
%TO.N,-1*%
X105410000Y-60325000D03*
%TO.N,AUTO*%
X114935000Y-57785000D03*
%TO.N,+1*%
X97155000Y-63500000D03*
%TO.N,+10*%
X115570000Y-38465003D03*
%TD*%
D17*
%TO.N,GND*%
X100965000Y-32385000D02*
X104140000Y-29210000D01*
X96520000Y-32385000D02*
X100965000Y-32385000D01*
D18*
%TO.N,Net-(A3-Pad2)*%
X93345000Y-33655000D02*
X93345000Y-40879998D01*
X111760000Y-59294998D02*
X111760000Y-59294998D01*
X93345000Y-40879998D02*
X93345000Y-40879998D01*
X119140002Y-59294998D02*
X120015000Y-58420000D01*
X111760000Y-59294998D02*
X119140002Y-59294998D01*
%TO.N,Buzzer*%
X120389003Y-50894999D02*
X118650001Y-50894999D01*
X121190001Y-50094001D02*
X120389003Y-50894999D01*
X121190001Y-48354999D02*
X121190001Y-50094001D01*
X122555000Y-46990000D02*
X121190001Y-48354999D01*
X118650001Y-50894999D02*
X107315000Y-62230000D01*
%TO.N,-1*%
X106680000Y-60325000D02*
X105410000Y-60325000D01*
X120015000Y-46990000D02*
X106680000Y-60325000D01*
%TO.N,AUTO*%
X123730001Y-45625001D02*
X123730001Y-53434999D01*
X122555000Y-44450000D02*
X123730001Y-45625001D01*
X123730001Y-53434999D02*
X119285001Y-53434999D01*
X119285001Y-53434999D02*
X114935000Y-57785000D01*
%TO.N,+1*%
X120015000Y-44450000D02*
X116205000Y-44450000D01*
X116205000Y-44450000D02*
X97155000Y-63500000D01*
%TO.N,StandBy*%
X116110001Y-45814999D02*
X93980000Y-67945000D01*
X121190001Y-45014001D02*
X120389003Y-45814999D01*
X120389003Y-45814999D02*
X116110001Y-45814999D01*
X121190001Y-43274999D02*
X121190001Y-45014001D01*
X122555000Y-41910000D02*
X121190001Y-43274999D01*
X93980000Y-67945000D02*
X93980000Y-75565000D01*
X93980000Y-75565000D02*
X92710000Y-76835000D01*
X92710000Y-76835000D02*
X89535000Y-76835000D01*
X88265000Y-75565000D02*
X88265000Y-73025000D01*
X89535000Y-76835000D02*
X88265000Y-75565000D01*
%TO.N,+10*%
X87089999Y-61689999D02*
X88265000Y-62865000D01*
X87089999Y-57220999D02*
X87089999Y-61689999D01*
X87700999Y-56609999D02*
X87089999Y-57220999D01*
X93645003Y-56609999D02*
X87700999Y-56609999D01*
X97790000Y-52465002D02*
X93645003Y-56609999D01*
X97790000Y-43180000D02*
X97790000Y-52465002D01*
X102504997Y-38465003D02*
X97790000Y-43180000D01*
X115570000Y-38465003D02*
X102504997Y-38465003D01*
%TO.N,-10*%
X121379999Y-38194999D02*
X118015001Y-38194999D01*
X122555000Y-39370000D02*
X121379999Y-38194999D01*
X93345000Y-62865000D02*
X90805000Y-62865000D01*
X118015001Y-38194999D02*
X93345000Y-62865000D01*
%TO.N,LED*%
X119380000Y-39370000D02*
X90805000Y-67945000D01*
X120015000Y-39370000D02*
X119380000Y-39370000D01*
%TD*%
M02*
