M48
; DRILL file {KiCad (5.1.12)-1} date 06/03/22 18:51:53
; FORMAT={-:-/ absolute / inch / decimal}
; #@! TF.CreationDate,2022-06-03T18:51:53+02:00
; #@! TF.GenerationSoftware,Kicad,Pcbnew,(5.1.12)-1
; #@! TF.FileFunction,Plated,1,2,PTH
FMAT,2
INCH
T1C0.0157
T2C0.0315
T3C0.0394
%
G90
G05
T1
X3.675Y-1.325
X3.675Y-1.6094
X3.825Y-2.5
X4.15Y-2.375
X4.225Y-2.45
X4.4Y-2.3344
X4.525Y-2.275
X4.55Y-1.5144
T2
X3.325Y-1.075
X3.325Y-1.2719
X3.75Y-0.65
X4.1Y-1.15
X4.1Y-1.65
X4.25Y-0.65
X4.325Y-1.65
X4.325Y-2.15
T3
X3.475Y-0.975
X3.475Y-1.075
X3.475Y-1.175
X3.475Y-1.275
X3.475Y-1.375
X3.475Y-1.475
X3.475Y-1.575
X3.475Y-1.675
X3.475Y-1.775
X3.475Y-1.875
X3.475Y-1.975
X3.475Y-2.075
X3.475Y-2.175
X3.475Y-2.275
X3.475Y-2.375
X3.475Y-2.475
X3.475Y-2.575
X3.475Y-2.675
X3.475Y-2.775
X3.475Y-2.875
X3.575Y-0.975
X3.575Y-1.075
X3.575Y-1.175
X3.575Y-1.275
X3.575Y-1.375
X3.575Y-1.475
X3.575Y-1.575
X3.575Y-1.675
X3.575Y-1.775
X3.575Y-1.875
X3.575Y-1.975
X3.575Y-2.075
X3.575Y-2.175
X3.575Y-2.275
X3.575Y-2.375
X3.575Y-2.475
X3.575Y-2.575
X3.575Y-2.675
X3.575Y-2.775
X3.575Y-2.875
X3.8Y-1.175
X3.8Y-1.275
X3.8Y-1.375
X3.8Y-1.475
X4.45Y-1.075
X4.6469Y-1.075
X4.725Y-1.55
X4.725Y-1.65
X4.725Y-1.75
X4.725Y-1.85
X4.725Y-1.95
X4.725Y-2.05
X4.725Y-2.2
X4.725Y-2.3
X4.725Y-2.4
X4.725Y-2.5
X4.825Y-1.55
X4.825Y-1.65
X4.825Y-1.75
X4.825Y-1.85
X4.825Y-1.95
X4.825Y-2.05
T0
M30
