%TF.GenerationSoftware,KiCad,Pcbnew,(5.1.12)-1*%
%TF.CreationDate,2022-06-03T18:51:51+02:00*%
%TF.ProjectId,pypilot-dome,70797069-6c6f-4742-9d64-6f6d652e6b69,rev?*%
%TF.SameCoordinates,Original*%
%TF.FileFunction,Legend,Top*%
%TF.FilePolarity,Positive*%
%FSLAX46Y46*%
G04 Gerber Fmt 4.6, Leading zero omitted, Abs format (unit mm)*
G04 Created by KiCad (PCBNEW (5.1.12)-1) date 2022-06-03 18:51:51*
%MOMM*%
%LPD*%
G01*
G04 APERTURE LIST*
%ADD10C,0.120000*%
%ADD11C,0.150000*%
G04 APERTURE END LIST*
D10*
%TO.C,R8*%
X102420000Y-40180000D02*
X105860000Y-40180000D01*
X105860000Y-40180000D02*
X105860000Y-30940000D01*
X105860000Y-30940000D02*
X102420000Y-30940000D01*
X102420000Y-30940000D02*
X102420000Y-40180000D01*
X104140000Y-40870000D02*
X104140000Y-40180000D01*
X104140000Y-30250000D02*
X104140000Y-30940000D01*
%TO.C,R7*%
X108135000Y-52880000D02*
X111575000Y-52880000D01*
X111575000Y-52880000D02*
X111575000Y-43640000D01*
X111575000Y-43640000D02*
X108135000Y-43640000D01*
X108135000Y-43640000D02*
X108135000Y-52880000D01*
X109855000Y-53570000D02*
X109855000Y-52880000D01*
X109855000Y-42950000D02*
X109855000Y-43640000D01*
%TO.C,J10*%
X86935000Y-23435000D02*
X89535000Y-23435000D01*
X86935000Y-23435000D02*
X86935000Y-74355000D01*
X86935000Y-74355000D02*
X92135000Y-74355000D01*
X92135000Y-26035000D02*
X92135000Y-74355000D01*
X89535000Y-26035000D02*
X92135000Y-26035000D01*
X89535000Y-23435000D02*
X89535000Y-26035000D01*
X92135000Y-23435000D02*
X92135000Y-24765000D01*
X90805000Y-23435000D02*
X92135000Y-23435000D01*
%TO.C,J6*%
X118685000Y-64830000D02*
X121345000Y-64830000D01*
X118685000Y-57150000D02*
X118685000Y-64830000D01*
X121345000Y-57150000D02*
X121345000Y-64830000D01*
X118685000Y-57150000D02*
X121345000Y-57150000D01*
X118685000Y-55880000D02*
X118685000Y-54550000D01*
X118685000Y-54550000D02*
X120015000Y-54550000D01*
%TO.C,J3*%
X118685000Y-53400000D02*
X123885000Y-53400000D01*
X118685000Y-40640000D02*
X118685000Y-53400000D01*
X123885000Y-38040000D02*
X123885000Y-53400000D01*
X118685000Y-40640000D02*
X121285000Y-40640000D01*
X121285000Y-40640000D02*
X121285000Y-38040000D01*
X121285000Y-38040000D02*
X123885000Y-38040000D01*
X118685000Y-39370000D02*
X118685000Y-38040000D01*
X118685000Y-38040000D02*
X120015000Y-38040000D01*
%TO.C,C6*%
X120650000Y-27305000D02*
G75*
G03*
X120650000Y-27305000I-5120000J0D01*
G01*
X115530000Y-22225000D02*
X115530000Y-32385000D01*
X115570000Y-22225000D02*
X115570000Y-32385000D01*
X115610000Y-22225000D02*
X115610000Y-32385000D01*
X115650000Y-22226000D02*
X115650000Y-32384000D01*
X115690000Y-22227000D02*
X115690000Y-32383000D01*
X115730000Y-22228000D02*
X115730000Y-32382000D01*
X115770000Y-22230000D02*
X115770000Y-32380000D01*
X115810000Y-22232000D02*
X115810000Y-32378000D01*
X115850000Y-22235000D02*
X115850000Y-32375000D01*
X115890000Y-22237000D02*
X115890000Y-32373000D01*
X115930000Y-22240000D02*
X115930000Y-32370000D01*
X115970000Y-22243000D02*
X115970000Y-32367000D01*
X116010000Y-22247000D02*
X116010000Y-32363000D01*
X116050000Y-22251000D02*
X116050000Y-32359000D01*
X116090000Y-22255000D02*
X116090000Y-32355000D01*
X116130000Y-22260000D02*
X116130000Y-32350000D01*
X116170000Y-22265000D02*
X116170000Y-32345000D01*
X116210000Y-22270000D02*
X116210000Y-32340000D01*
X116251000Y-22275000D02*
X116251000Y-32335000D01*
X116291000Y-22281000D02*
X116291000Y-32329000D01*
X116331000Y-22287000D02*
X116331000Y-32323000D01*
X116371000Y-22294000D02*
X116371000Y-32316000D01*
X116411000Y-22301000D02*
X116411000Y-32309000D01*
X116451000Y-22308000D02*
X116451000Y-32302000D01*
X116491000Y-22315000D02*
X116491000Y-32295000D01*
X116531000Y-22323000D02*
X116531000Y-32287000D01*
X116571000Y-22331000D02*
X116571000Y-32279000D01*
X116611000Y-22340000D02*
X116611000Y-32270000D01*
X116651000Y-22349000D02*
X116651000Y-32261000D01*
X116691000Y-22358000D02*
X116691000Y-32252000D01*
X116731000Y-22367000D02*
X116731000Y-32243000D01*
X116771000Y-22377000D02*
X116771000Y-32233000D01*
X116811000Y-22387000D02*
X116811000Y-26064000D01*
X116811000Y-28546000D02*
X116811000Y-32223000D01*
X116851000Y-22398000D02*
X116851000Y-26064000D01*
X116851000Y-28546000D02*
X116851000Y-32212000D01*
X116891000Y-22408000D02*
X116891000Y-26064000D01*
X116891000Y-28546000D02*
X116891000Y-32202000D01*
X116931000Y-22420000D02*
X116931000Y-26064000D01*
X116931000Y-28546000D02*
X116931000Y-32190000D01*
X116971000Y-22431000D02*
X116971000Y-26064000D01*
X116971000Y-28546000D02*
X116971000Y-32179000D01*
X117011000Y-22443000D02*
X117011000Y-26064000D01*
X117011000Y-28546000D02*
X117011000Y-32167000D01*
X117051000Y-22455000D02*
X117051000Y-26064000D01*
X117051000Y-28546000D02*
X117051000Y-32155000D01*
X117091000Y-22468000D02*
X117091000Y-26064000D01*
X117091000Y-28546000D02*
X117091000Y-32142000D01*
X117131000Y-22481000D02*
X117131000Y-26064000D01*
X117131000Y-28546000D02*
X117131000Y-32129000D01*
X117171000Y-22494000D02*
X117171000Y-26064000D01*
X117171000Y-28546000D02*
X117171000Y-32116000D01*
X117211000Y-22508000D02*
X117211000Y-26064000D01*
X117211000Y-28546000D02*
X117211000Y-32102000D01*
X117251000Y-22522000D02*
X117251000Y-26064000D01*
X117251000Y-28546000D02*
X117251000Y-32088000D01*
X117291000Y-22537000D02*
X117291000Y-26064000D01*
X117291000Y-28546000D02*
X117291000Y-32073000D01*
X117331000Y-22551000D02*
X117331000Y-26064000D01*
X117331000Y-28546000D02*
X117331000Y-32059000D01*
X117371000Y-22567000D02*
X117371000Y-26064000D01*
X117371000Y-28546000D02*
X117371000Y-32043000D01*
X117411000Y-22582000D02*
X117411000Y-26064000D01*
X117411000Y-28546000D02*
X117411000Y-32028000D01*
X117451000Y-22598000D02*
X117451000Y-26064000D01*
X117451000Y-28546000D02*
X117451000Y-32012000D01*
X117491000Y-22615000D02*
X117491000Y-26064000D01*
X117491000Y-28546000D02*
X117491000Y-31995000D01*
X117531000Y-22631000D02*
X117531000Y-26064000D01*
X117531000Y-28546000D02*
X117531000Y-31979000D01*
X117571000Y-22648000D02*
X117571000Y-26064000D01*
X117571000Y-28546000D02*
X117571000Y-31962000D01*
X117611000Y-22666000D02*
X117611000Y-26064000D01*
X117611000Y-28546000D02*
X117611000Y-31944000D01*
X117651000Y-22684000D02*
X117651000Y-26064000D01*
X117651000Y-28546000D02*
X117651000Y-31926000D01*
X117691000Y-22702000D02*
X117691000Y-26064000D01*
X117691000Y-28546000D02*
X117691000Y-31908000D01*
X117731000Y-22721000D02*
X117731000Y-26064000D01*
X117731000Y-28546000D02*
X117731000Y-31889000D01*
X117771000Y-22741000D02*
X117771000Y-26064000D01*
X117771000Y-28546000D02*
X117771000Y-31869000D01*
X117811000Y-22760000D02*
X117811000Y-26064000D01*
X117811000Y-28546000D02*
X117811000Y-31850000D01*
X117851000Y-22780000D02*
X117851000Y-26064000D01*
X117851000Y-28546000D02*
X117851000Y-31830000D01*
X117891000Y-22801000D02*
X117891000Y-26064000D01*
X117891000Y-28546000D02*
X117891000Y-31809000D01*
X117931000Y-22822000D02*
X117931000Y-26064000D01*
X117931000Y-28546000D02*
X117931000Y-31788000D01*
X117971000Y-22843000D02*
X117971000Y-26064000D01*
X117971000Y-28546000D02*
X117971000Y-31767000D01*
X118011000Y-22865000D02*
X118011000Y-26064000D01*
X118011000Y-28546000D02*
X118011000Y-31745000D01*
X118051000Y-22888000D02*
X118051000Y-26064000D01*
X118051000Y-28546000D02*
X118051000Y-31722000D01*
X118091000Y-22910000D02*
X118091000Y-26064000D01*
X118091000Y-28546000D02*
X118091000Y-31700000D01*
X118131000Y-22934000D02*
X118131000Y-26064000D01*
X118131000Y-28546000D02*
X118131000Y-31676000D01*
X118171000Y-22958000D02*
X118171000Y-26064000D01*
X118171000Y-28546000D02*
X118171000Y-31652000D01*
X118211000Y-22982000D02*
X118211000Y-26064000D01*
X118211000Y-28546000D02*
X118211000Y-31628000D01*
X118251000Y-23007000D02*
X118251000Y-26064000D01*
X118251000Y-28546000D02*
X118251000Y-31603000D01*
X118291000Y-23032000D02*
X118291000Y-26064000D01*
X118291000Y-28546000D02*
X118291000Y-31578000D01*
X118331000Y-23058000D02*
X118331000Y-26064000D01*
X118331000Y-28546000D02*
X118331000Y-31552000D01*
X118371000Y-23084000D02*
X118371000Y-26064000D01*
X118371000Y-28546000D02*
X118371000Y-31526000D01*
X118411000Y-23111000D02*
X118411000Y-26064000D01*
X118411000Y-28546000D02*
X118411000Y-31499000D01*
X118451000Y-23139000D02*
X118451000Y-26064000D01*
X118451000Y-28546000D02*
X118451000Y-31471000D01*
X118491000Y-23167000D02*
X118491000Y-26064000D01*
X118491000Y-28546000D02*
X118491000Y-31443000D01*
X118531000Y-23195000D02*
X118531000Y-26064000D01*
X118531000Y-28546000D02*
X118531000Y-31415000D01*
X118571000Y-23225000D02*
X118571000Y-26064000D01*
X118571000Y-28546000D02*
X118571000Y-31385000D01*
X118611000Y-23255000D02*
X118611000Y-26064000D01*
X118611000Y-28546000D02*
X118611000Y-31355000D01*
X118651000Y-23285000D02*
X118651000Y-26064000D01*
X118651000Y-28546000D02*
X118651000Y-31325000D01*
X118691000Y-23316000D02*
X118691000Y-26064000D01*
X118691000Y-28546000D02*
X118691000Y-31294000D01*
X118731000Y-23348000D02*
X118731000Y-26064000D01*
X118731000Y-28546000D02*
X118731000Y-31262000D01*
X118771000Y-23380000D02*
X118771000Y-26064000D01*
X118771000Y-28546000D02*
X118771000Y-31230000D01*
X118811000Y-23413000D02*
X118811000Y-26064000D01*
X118811000Y-28546000D02*
X118811000Y-31197000D01*
X118851000Y-23447000D02*
X118851000Y-26064000D01*
X118851000Y-28546000D02*
X118851000Y-31163000D01*
X118891000Y-23481000D02*
X118891000Y-26064000D01*
X118891000Y-28546000D02*
X118891000Y-31129000D01*
X118931000Y-23516000D02*
X118931000Y-26064000D01*
X118931000Y-28546000D02*
X118931000Y-31094000D01*
X118971000Y-23552000D02*
X118971000Y-26064000D01*
X118971000Y-28546000D02*
X118971000Y-31058000D01*
X119011000Y-23589000D02*
X119011000Y-26064000D01*
X119011000Y-28546000D02*
X119011000Y-31021000D01*
X119051000Y-23626000D02*
X119051000Y-26064000D01*
X119051000Y-28546000D02*
X119051000Y-30984000D01*
X119091000Y-23665000D02*
X119091000Y-26064000D01*
X119091000Y-28546000D02*
X119091000Y-30945000D01*
X119131000Y-23704000D02*
X119131000Y-26064000D01*
X119131000Y-28546000D02*
X119131000Y-30906000D01*
X119171000Y-23744000D02*
X119171000Y-26064000D01*
X119171000Y-28546000D02*
X119171000Y-30866000D01*
X119211000Y-23785000D02*
X119211000Y-26064000D01*
X119211000Y-28546000D02*
X119211000Y-30825000D01*
X119251000Y-23827000D02*
X119251000Y-26064000D01*
X119251000Y-28546000D02*
X119251000Y-30783000D01*
X119291000Y-23869000D02*
X119291000Y-30741000D01*
X119331000Y-23913000D02*
X119331000Y-30697000D01*
X119371000Y-23958000D02*
X119371000Y-30652000D01*
X119411000Y-24004000D02*
X119411000Y-30606000D01*
X119451000Y-24051000D02*
X119451000Y-30559000D01*
X119491000Y-24099000D02*
X119491000Y-30511000D01*
X119531000Y-24149000D02*
X119531000Y-30461000D01*
X119571000Y-24199000D02*
X119571000Y-30411000D01*
X119611000Y-24251000D02*
X119611000Y-30359000D01*
X119651000Y-24305000D02*
X119651000Y-30305000D01*
X119691000Y-24360000D02*
X119691000Y-30250000D01*
X119731000Y-24416000D02*
X119731000Y-30194000D01*
X119771000Y-24475000D02*
X119771000Y-30135000D01*
X119811000Y-24535000D02*
X119811000Y-30075000D01*
X119851000Y-24596000D02*
X119851000Y-30014000D01*
X119891000Y-24660000D02*
X119891000Y-29950000D01*
X119931000Y-24726000D02*
X119931000Y-29884000D01*
X119971000Y-24795000D02*
X119971000Y-29815000D01*
X120011000Y-24866000D02*
X120011000Y-29744000D01*
X120051000Y-24940000D02*
X120051000Y-29670000D01*
X120091000Y-25016000D02*
X120091000Y-29594000D01*
X120131000Y-25096000D02*
X120131000Y-29514000D01*
X120171000Y-25180000D02*
X120171000Y-29430000D01*
X120211000Y-25268000D02*
X120211000Y-29342000D01*
X120251000Y-25361000D02*
X120251000Y-29249000D01*
X120291000Y-25459000D02*
X120291000Y-29151000D01*
X120331000Y-25563000D02*
X120331000Y-29047000D01*
X120371000Y-25675000D02*
X120371000Y-28935000D01*
X120411000Y-25795000D02*
X120411000Y-28815000D01*
X120451000Y-25927000D02*
X120451000Y-28683000D01*
X120491000Y-26075000D02*
X120491000Y-28535000D01*
X120531000Y-26243000D02*
X120531000Y-28367000D01*
X120571000Y-26443000D02*
X120571000Y-28167000D01*
X120611000Y-26706000D02*
X120611000Y-27904000D01*
X110050354Y-24430000D02*
X111050354Y-24430000D01*
X110550354Y-23930000D02*
X110550354Y-24930000D01*
%TO.C,C5*%
X85825000Y-26685000D02*
X85825000Y-32925000D01*
X83085000Y-26685000D02*
X83085000Y-32925000D01*
X85825000Y-26685000D02*
X85380000Y-26685000D01*
X83530000Y-26685000D02*
X83085000Y-26685000D01*
X85825000Y-32925000D02*
X85380000Y-32925000D01*
X83530000Y-32925000D02*
X83085000Y-32925000D01*
%TO.C,R8*%
D11*
X101872380Y-35726666D02*
X101396190Y-36060000D01*
X101872380Y-36298095D02*
X100872380Y-36298095D01*
X100872380Y-35917142D01*
X100920000Y-35821904D01*
X100967619Y-35774285D01*
X101062857Y-35726666D01*
X101205714Y-35726666D01*
X101300952Y-35774285D01*
X101348571Y-35821904D01*
X101396190Y-35917142D01*
X101396190Y-36298095D01*
X101300952Y-35155238D02*
X101253333Y-35250476D01*
X101205714Y-35298095D01*
X101110476Y-35345714D01*
X101062857Y-35345714D01*
X100967619Y-35298095D01*
X100920000Y-35250476D01*
X100872380Y-35155238D01*
X100872380Y-34964761D01*
X100920000Y-34869523D01*
X100967619Y-34821904D01*
X101062857Y-34774285D01*
X101110476Y-34774285D01*
X101205714Y-34821904D01*
X101253333Y-34869523D01*
X101300952Y-34964761D01*
X101300952Y-35155238D01*
X101348571Y-35250476D01*
X101396190Y-35298095D01*
X101491428Y-35345714D01*
X101681904Y-35345714D01*
X101777142Y-35298095D01*
X101824761Y-35250476D01*
X101872380Y-35155238D01*
X101872380Y-34964761D01*
X101824761Y-34869523D01*
X101777142Y-34821904D01*
X101681904Y-34774285D01*
X101491428Y-34774285D01*
X101396190Y-34821904D01*
X101348571Y-34869523D01*
X101300952Y-34964761D01*
%TO.C,R7*%
X107587380Y-48426666D02*
X107111190Y-48760000D01*
X107587380Y-48998095D02*
X106587380Y-48998095D01*
X106587380Y-48617142D01*
X106635000Y-48521904D01*
X106682619Y-48474285D01*
X106777857Y-48426666D01*
X106920714Y-48426666D01*
X107015952Y-48474285D01*
X107063571Y-48521904D01*
X107111190Y-48617142D01*
X107111190Y-48998095D01*
X106587380Y-48093333D02*
X106587380Y-47426666D01*
X107587380Y-47855238D01*
%TO.C,J10*%
X88725476Y-21447380D02*
X88725476Y-22161666D01*
X88677857Y-22304523D01*
X88582619Y-22399761D01*
X88439761Y-22447380D01*
X88344523Y-22447380D01*
X89725476Y-22447380D02*
X89154047Y-22447380D01*
X89439761Y-22447380D02*
X89439761Y-21447380D01*
X89344523Y-21590238D01*
X89249285Y-21685476D01*
X89154047Y-21733095D01*
X90344523Y-21447380D02*
X90439761Y-21447380D01*
X90535000Y-21495000D01*
X90582619Y-21542619D01*
X90630238Y-21637857D01*
X90677857Y-21828333D01*
X90677857Y-22066428D01*
X90630238Y-22256904D01*
X90582619Y-22352142D01*
X90535000Y-22399761D01*
X90439761Y-22447380D01*
X90344523Y-22447380D01*
X90249285Y-22399761D01*
X90201666Y-22352142D01*
X90154047Y-22256904D01*
X90106428Y-22066428D01*
X90106428Y-21828333D01*
X90154047Y-21637857D01*
X90201666Y-21542619D01*
X90249285Y-21495000D01*
X90344523Y-21447380D01*
%TO.C,J6*%
X119681666Y-53002380D02*
X119681666Y-53716666D01*
X119634047Y-53859523D01*
X119538809Y-53954761D01*
X119395952Y-54002380D01*
X119300714Y-54002380D01*
X120586428Y-53002380D02*
X120395952Y-53002380D01*
X120300714Y-53050000D01*
X120253095Y-53097619D01*
X120157857Y-53240476D01*
X120110238Y-53430952D01*
X120110238Y-53811904D01*
X120157857Y-53907142D01*
X120205476Y-53954761D01*
X120300714Y-54002380D01*
X120491190Y-54002380D01*
X120586428Y-53954761D01*
X120634047Y-53907142D01*
X120681666Y-53811904D01*
X120681666Y-53573809D01*
X120634047Y-53478571D01*
X120586428Y-53430952D01*
X120491190Y-53383333D01*
X120300714Y-53383333D01*
X120205476Y-53430952D01*
X120157857Y-53478571D01*
X120110238Y-53573809D01*
%TO.C,J3*%
X120951666Y-36492380D02*
X120951666Y-37206666D01*
X120904047Y-37349523D01*
X120808809Y-37444761D01*
X120665952Y-37492380D01*
X120570714Y-37492380D01*
X121332619Y-36492380D02*
X121951666Y-36492380D01*
X121618333Y-36873333D01*
X121761190Y-36873333D01*
X121856428Y-36920952D01*
X121904047Y-36968571D01*
X121951666Y-37063809D01*
X121951666Y-37301904D01*
X121904047Y-37397142D01*
X121856428Y-37444761D01*
X121761190Y-37492380D01*
X121475476Y-37492380D01*
X121380238Y-37444761D01*
X121332619Y-37397142D01*
%TO.C,C6*%
X115363333Y-21412142D02*
X115315714Y-21459761D01*
X115172857Y-21507380D01*
X115077619Y-21507380D01*
X114934761Y-21459761D01*
X114839523Y-21364523D01*
X114791904Y-21269285D01*
X114744285Y-21078809D01*
X114744285Y-20935952D01*
X114791904Y-20745476D01*
X114839523Y-20650238D01*
X114934761Y-20555000D01*
X115077619Y-20507380D01*
X115172857Y-20507380D01*
X115315714Y-20555000D01*
X115363333Y-20602619D01*
X116220476Y-20507380D02*
X116030000Y-20507380D01*
X115934761Y-20555000D01*
X115887142Y-20602619D01*
X115791904Y-20745476D01*
X115744285Y-20935952D01*
X115744285Y-21316904D01*
X115791904Y-21412142D01*
X115839523Y-21459761D01*
X115934761Y-21507380D01*
X116125238Y-21507380D01*
X116220476Y-21459761D01*
X116268095Y-21412142D01*
X116315714Y-21316904D01*
X116315714Y-21078809D01*
X116268095Y-20983571D01*
X116220476Y-20935952D01*
X116125238Y-20888333D01*
X115934761Y-20888333D01*
X115839523Y-20935952D01*
X115791904Y-20983571D01*
X115744285Y-21078809D01*
%TO.C,C5*%
X87312142Y-29971666D02*
X87359761Y-30019285D01*
X87407380Y-30162142D01*
X87407380Y-30257380D01*
X87359761Y-30400238D01*
X87264523Y-30495476D01*
X87169285Y-30543095D01*
X86978809Y-30590714D01*
X86835952Y-30590714D01*
X86645476Y-30543095D01*
X86550238Y-30495476D01*
X86455000Y-30400238D01*
X86407380Y-30257380D01*
X86407380Y-30162142D01*
X86455000Y-30019285D01*
X86502619Y-29971666D01*
X86407380Y-29066904D02*
X86407380Y-29543095D01*
X86883571Y-29590714D01*
X86835952Y-29543095D01*
X86788333Y-29447857D01*
X86788333Y-29209761D01*
X86835952Y-29114523D01*
X86883571Y-29066904D01*
X86978809Y-29019285D01*
X87216904Y-29019285D01*
X87312142Y-29066904D01*
X87359761Y-29114523D01*
X87407380Y-29209761D01*
X87407380Y-29447857D01*
X87359761Y-29543095D01*
X87312142Y-29590714D01*
%TO.C,H1*%
X100838095Y-65967380D02*
X100838095Y-64967380D01*
X100838095Y-65443571D02*
X101409523Y-65443571D01*
X101409523Y-65967380D02*
X101409523Y-64967380D01*
X102409523Y-65967380D02*
X101838095Y-65967380D01*
X102123809Y-65967380D02*
X102123809Y-64967380D01*
X102028571Y-65110238D01*
X101933333Y-65205476D01*
X101838095Y-65253095D01*
X100838095Y-15802380D02*
X100838095Y-14802380D01*
X100838095Y-15278571D02*
X101409523Y-15278571D01*
X101409523Y-15802380D02*
X101409523Y-14802380D01*
X102409523Y-15802380D02*
X101838095Y-15802380D01*
X102123809Y-15802380D02*
X102123809Y-14802380D01*
X102028571Y-14945238D01*
X101933333Y-15040476D01*
X101838095Y-15088095D01*
%TD*%
M02*
