%TF.GenerationSoftware,KiCad,Pcbnew,(5.1.12)-1*%
%TF.CreationDate,2022-06-03T18:51:51+02:00*%
%TF.ProjectId,pypilot-dome,70797069-6c6f-4742-9d64-6f6d652e6b69,rev?*%
%TF.SameCoordinates,Original*%
%TF.FileFunction,Legend,Bot*%
%TF.FilePolarity,Positive*%
%FSLAX46Y46*%
G04 Gerber Fmt 4.6, Leading zero omitted, Abs format (unit mm)*
G04 Created by KiCad (PCBNEW (5.1.12)-1) date 2022-06-03 18:51:51*
%MOMM*%
%LPD*%
G01*
G04 APERTURE LIST*
%ADD10C,0.120000*%
%ADD11C,0.150000*%
G04 APERTURE END LIST*
D10*
%TO.C,A2*%
X97850000Y-38795000D02*
X95190000Y-38795000D01*
X97850000Y-31115000D02*
X97850000Y-38795000D01*
X95190000Y-31115000D02*
X95190000Y-38795000D01*
X97850000Y-31115000D02*
X95190000Y-31115000D01*
X97850000Y-29845000D02*
X97850000Y-28515000D01*
X97850000Y-28515000D02*
X96520000Y-28515000D01*
%TO.C,R10*%
X96980000Y-18230000D02*
X96980000Y-14790000D01*
X96980000Y-14790000D02*
X106220000Y-14790000D01*
X106220000Y-14790000D02*
X106220000Y-18230000D01*
X106220000Y-18230000D02*
X96980000Y-18230000D01*
X96290000Y-16510000D02*
X96980000Y-16510000D01*
X106910000Y-16510000D02*
X106220000Y-16510000D01*
%TO.C,A2*%
D11*
X97234285Y-27681666D02*
X96758095Y-27681666D01*
X97329523Y-27967380D02*
X96996190Y-26967380D01*
X96662857Y-27967380D01*
X96377142Y-27062619D02*
X96329523Y-27015000D01*
X96234285Y-26967380D01*
X95996190Y-26967380D01*
X95900952Y-27015000D01*
X95853333Y-27062619D01*
X95805714Y-27157857D01*
X95805714Y-27253095D01*
X95853333Y-27395952D01*
X96424761Y-27967380D01*
X95805714Y-27967380D01*
%TD*%
M02*
