%TF.GenerationSoftware,KiCad,Pcbnew,(5.1.12)-1*%
%TF.CreationDate,2022-06-03T18:51:51+02:00*%
%TF.ProjectId,pypilot-dome,70797069-6c6f-4742-9d64-6f6d652e6b69,rev?*%
%TF.SameCoordinates,Original*%
%TF.FileFunction,Soldermask,Top*%
%TF.FilePolarity,Negative*%
%FSLAX46Y46*%
G04 Gerber Fmt 4.6, Leading zero omitted, Abs format (unit mm)*
G04 Created by KiCad (PCBNEW (5.1.12)-1) date 2022-06-03 18:51:51*
%MOMM*%
%LPD*%
G01*
G04 APERTURE LIST*
%ADD10O,1.600000X1.600000*%
%ADD11C,1.600000*%
%ADD12O,1.700000X1.700000*%
%ADD13R,1.700000X1.700000*%
%ADD14C,2.000000*%
%ADD15R,2.000000X2.000000*%
%ADD16C,2.700000*%
G04 APERTURE END LIST*
D10*
%TO.C,R8*%
X104140000Y-29210000D03*
D11*
X104140000Y-41910000D03*
%TD*%
D10*
%TO.C,R7*%
X109855000Y-41910000D03*
D11*
X109855000Y-54610000D03*
%TD*%
D12*
%TO.C,J10*%
X88265000Y-73025000D03*
X90805000Y-73025000D03*
X88265000Y-70485000D03*
X90805000Y-70485000D03*
X88265000Y-67945000D03*
X90805000Y-67945000D03*
X88265000Y-65405000D03*
X90805000Y-65405000D03*
X88265000Y-62865000D03*
X90805000Y-62865000D03*
X88265000Y-60325000D03*
X90805000Y-60325000D03*
X88265000Y-57785000D03*
X90805000Y-57785000D03*
X88265000Y-55245000D03*
X90805000Y-55245000D03*
X88265000Y-52705000D03*
X90805000Y-52705000D03*
X88265000Y-50165000D03*
X90805000Y-50165000D03*
X88265000Y-47625000D03*
X90805000Y-47625000D03*
X88265000Y-45085000D03*
X90805000Y-45085000D03*
X88265000Y-42545000D03*
X90805000Y-42545000D03*
X88265000Y-40005000D03*
X90805000Y-40005000D03*
X88265000Y-37465000D03*
X90805000Y-37465000D03*
X88265000Y-34925000D03*
X90805000Y-34925000D03*
X88265000Y-32385000D03*
X90805000Y-32385000D03*
X88265000Y-29845000D03*
X90805000Y-29845000D03*
X88265000Y-27305000D03*
X90805000Y-27305000D03*
X88265000Y-24765000D03*
D13*
X90805000Y-24765000D03*
%TD*%
D12*
%TO.C,J6*%
X120015000Y-63500000D03*
X120015000Y-60960000D03*
X120015000Y-58420000D03*
D13*
X120015000Y-55880000D03*
%TD*%
D12*
%TO.C,J3*%
X122555000Y-52070000D03*
X120015000Y-52070000D03*
X122555000Y-49530000D03*
X120015000Y-49530000D03*
X122555000Y-46990000D03*
X120015000Y-46990000D03*
X122555000Y-44450000D03*
X120015000Y-44450000D03*
X122555000Y-41910000D03*
X120015000Y-41910000D03*
X122555000Y-39370000D03*
D13*
X120015000Y-39370000D03*
%TD*%
D14*
%TO.C,C6*%
X118030000Y-27305000D03*
D15*
X113030000Y-27305000D03*
%TD*%
D11*
%TO.C,C5*%
X84455000Y-32305000D03*
X84455000Y-27305000D03*
%TD*%
D12*
%TO.C,A2*%
X96520000Y-37465000D03*
X96520000Y-34925000D03*
X96520000Y-32385000D03*
D13*
X96520000Y-29845000D03*
%TD*%
D16*
%TO.C,H1*%
X101600000Y-69215000D03*
%TD*%
%TO.C,H1*%
X101600000Y-19050000D03*
%TD*%
D11*
%TO.C,R10*%
X95250000Y-16510000D03*
D10*
X107950000Y-16510000D03*
%TD*%
M02*
