%TF.GenerationSoftware,KiCad,Pcbnew,(5.1.12)-1*%
%TF.CreationDate,2022-06-03T19:18:09+02:00*%
%TF.ProjectId,pypilot_keyboard,70797069-6c6f-4745-9f6b-6579626f6172,rev?*%
%TF.SameCoordinates,Original*%
%TF.FileFunction,Legend,Bot*%
%TF.FilePolarity,Positive*%
%FSLAX46Y46*%
G04 Gerber Fmt 4.6, Leading zero omitted, Abs format (unit mm)*
G04 Created by KiCad (PCBNEW (5.1.12)-1) date 2022-06-03 19:18:09*
%MOMM*%
%LPD*%
G01*
G04 APERTURE LIST*
%ADD10C,0.120000*%
%ADD11C,0.150000*%
G04 APERTURE END LIST*
D10*
%TO.C,J3*%
X92015000Y-40580000D02*
X92015000Y-41910000D01*
X93345000Y-40580000D02*
X92015000Y-40580000D01*
X92015000Y-43180000D02*
X92015000Y-45780000D01*
X94615000Y-43180000D02*
X92015000Y-43180000D01*
X94615000Y-40580000D02*
X94615000Y-43180000D01*
X92015000Y-45780000D02*
X107375000Y-45780000D01*
X94615000Y-40580000D02*
X107375000Y-40580000D01*
X107375000Y-40580000D02*
X107375000Y-45780000D01*
%TO.C,R2*%
X138224000Y-43085600D02*
X138224000Y-46525600D01*
X138224000Y-46525600D02*
X128984000Y-46525600D01*
X128984000Y-46525600D02*
X128984000Y-43085600D01*
X128984000Y-43085600D02*
X138224000Y-43085600D01*
X138914000Y-44805600D02*
X138224000Y-44805600D01*
X128294000Y-44805600D02*
X128984000Y-44805600D01*
%TO.C,C3*%
X217805000Y-99695000D02*
G75*
G03*
X217805000Y-99695000I-5120000J0D01*
G01*
X212685000Y-104775000D02*
X212685000Y-94615000D01*
X212725000Y-104775000D02*
X212725000Y-94615000D01*
X212765000Y-104775000D02*
X212765000Y-94615000D01*
X212805000Y-104774000D02*
X212805000Y-94616000D01*
X212845000Y-104773000D02*
X212845000Y-94617000D01*
X212885000Y-104772000D02*
X212885000Y-94618000D01*
X212925000Y-104770000D02*
X212925000Y-94620000D01*
X212965000Y-104768000D02*
X212965000Y-94622000D01*
X213005000Y-104765000D02*
X213005000Y-94625000D01*
X213045000Y-104763000D02*
X213045000Y-94627000D01*
X213085000Y-104760000D02*
X213085000Y-94630000D01*
X213125000Y-104757000D02*
X213125000Y-94633000D01*
X213165000Y-104753000D02*
X213165000Y-94637000D01*
X213205000Y-104749000D02*
X213205000Y-94641000D01*
X213245000Y-104745000D02*
X213245000Y-94645000D01*
X213285000Y-104740000D02*
X213285000Y-94650000D01*
X213325000Y-104735000D02*
X213325000Y-94655000D01*
X213365000Y-104730000D02*
X213365000Y-94660000D01*
X213406000Y-104725000D02*
X213406000Y-94665000D01*
X213446000Y-104719000D02*
X213446000Y-94671000D01*
X213486000Y-104713000D02*
X213486000Y-94677000D01*
X213526000Y-104706000D02*
X213526000Y-94684000D01*
X213566000Y-104699000D02*
X213566000Y-94691000D01*
X213606000Y-104692000D02*
X213606000Y-94698000D01*
X213646000Y-104685000D02*
X213646000Y-94705000D01*
X213686000Y-104677000D02*
X213686000Y-94713000D01*
X213726000Y-104669000D02*
X213726000Y-94721000D01*
X213766000Y-104660000D02*
X213766000Y-94730000D01*
X213806000Y-104651000D02*
X213806000Y-94739000D01*
X213846000Y-104642000D02*
X213846000Y-94748000D01*
X213886000Y-104633000D02*
X213886000Y-94757000D01*
X213926000Y-104623000D02*
X213926000Y-94767000D01*
X213966000Y-104613000D02*
X213966000Y-100936000D01*
X213966000Y-98454000D02*
X213966000Y-94777000D01*
X214006000Y-104602000D02*
X214006000Y-100936000D01*
X214006000Y-98454000D02*
X214006000Y-94788000D01*
X214046000Y-104592000D02*
X214046000Y-100936000D01*
X214046000Y-98454000D02*
X214046000Y-94798000D01*
X214086000Y-104580000D02*
X214086000Y-100936000D01*
X214086000Y-98454000D02*
X214086000Y-94810000D01*
X214126000Y-104569000D02*
X214126000Y-100936000D01*
X214126000Y-98454000D02*
X214126000Y-94821000D01*
X214166000Y-104557000D02*
X214166000Y-100936000D01*
X214166000Y-98454000D02*
X214166000Y-94833000D01*
X214206000Y-104545000D02*
X214206000Y-100936000D01*
X214206000Y-98454000D02*
X214206000Y-94845000D01*
X214246000Y-104532000D02*
X214246000Y-100936000D01*
X214246000Y-98454000D02*
X214246000Y-94858000D01*
X214286000Y-104519000D02*
X214286000Y-100936000D01*
X214286000Y-98454000D02*
X214286000Y-94871000D01*
X214326000Y-104506000D02*
X214326000Y-100936000D01*
X214326000Y-98454000D02*
X214326000Y-94884000D01*
X214366000Y-104492000D02*
X214366000Y-100936000D01*
X214366000Y-98454000D02*
X214366000Y-94898000D01*
X214406000Y-104478000D02*
X214406000Y-100936000D01*
X214406000Y-98454000D02*
X214406000Y-94912000D01*
X214446000Y-104463000D02*
X214446000Y-100936000D01*
X214446000Y-98454000D02*
X214446000Y-94927000D01*
X214486000Y-104449000D02*
X214486000Y-100936000D01*
X214486000Y-98454000D02*
X214486000Y-94941000D01*
X214526000Y-104433000D02*
X214526000Y-100936000D01*
X214526000Y-98454000D02*
X214526000Y-94957000D01*
X214566000Y-104418000D02*
X214566000Y-100936000D01*
X214566000Y-98454000D02*
X214566000Y-94972000D01*
X214606000Y-104402000D02*
X214606000Y-100936000D01*
X214606000Y-98454000D02*
X214606000Y-94988000D01*
X214646000Y-104385000D02*
X214646000Y-100936000D01*
X214646000Y-98454000D02*
X214646000Y-95005000D01*
X214686000Y-104369000D02*
X214686000Y-100936000D01*
X214686000Y-98454000D02*
X214686000Y-95021000D01*
X214726000Y-104352000D02*
X214726000Y-100936000D01*
X214726000Y-98454000D02*
X214726000Y-95038000D01*
X214766000Y-104334000D02*
X214766000Y-100936000D01*
X214766000Y-98454000D02*
X214766000Y-95056000D01*
X214806000Y-104316000D02*
X214806000Y-100936000D01*
X214806000Y-98454000D02*
X214806000Y-95074000D01*
X214846000Y-104298000D02*
X214846000Y-100936000D01*
X214846000Y-98454000D02*
X214846000Y-95092000D01*
X214886000Y-104279000D02*
X214886000Y-100936000D01*
X214886000Y-98454000D02*
X214886000Y-95111000D01*
X214926000Y-104259000D02*
X214926000Y-100936000D01*
X214926000Y-98454000D02*
X214926000Y-95131000D01*
X214966000Y-104240000D02*
X214966000Y-100936000D01*
X214966000Y-98454000D02*
X214966000Y-95150000D01*
X215006000Y-104220000D02*
X215006000Y-100936000D01*
X215006000Y-98454000D02*
X215006000Y-95170000D01*
X215046000Y-104199000D02*
X215046000Y-100936000D01*
X215046000Y-98454000D02*
X215046000Y-95191000D01*
X215086000Y-104178000D02*
X215086000Y-100936000D01*
X215086000Y-98454000D02*
X215086000Y-95212000D01*
X215126000Y-104157000D02*
X215126000Y-100936000D01*
X215126000Y-98454000D02*
X215126000Y-95233000D01*
X215166000Y-104135000D02*
X215166000Y-100936000D01*
X215166000Y-98454000D02*
X215166000Y-95255000D01*
X215206000Y-104112000D02*
X215206000Y-100936000D01*
X215206000Y-98454000D02*
X215206000Y-95278000D01*
X215246000Y-104090000D02*
X215246000Y-100936000D01*
X215246000Y-98454000D02*
X215246000Y-95300000D01*
X215286000Y-104066000D02*
X215286000Y-100936000D01*
X215286000Y-98454000D02*
X215286000Y-95324000D01*
X215326000Y-104042000D02*
X215326000Y-100936000D01*
X215326000Y-98454000D02*
X215326000Y-95348000D01*
X215366000Y-104018000D02*
X215366000Y-100936000D01*
X215366000Y-98454000D02*
X215366000Y-95372000D01*
X215406000Y-103993000D02*
X215406000Y-100936000D01*
X215406000Y-98454000D02*
X215406000Y-95397000D01*
X215446000Y-103968000D02*
X215446000Y-100936000D01*
X215446000Y-98454000D02*
X215446000Y-95422000D01*
X215486000Y-103942000D02*
X215486000Y-100936000D01*
X215486000Y-98454000D02*
X215486000Y-95448000D01*
X215526000Y-103916000D02*
X215526000Y-100936000D01*
X215526000Y-98454000D02*
X215526000Y-95474000D01*
X215566000Y-103889000D02*
X215566000Y-100936000D01*
X215566000Y-98454000D02*
X215566000Y-95501000D01*
X215606000Y-103861000D02*
X215606000Y-100936000D01*
X215606000Y-98454000D02*
X215606000Y-95529000D01*
X215646000Y-103833000D02*
X215646000Y-100936000D01*
X215646000Y-98454000D02*
X215646000Y-95557000D01*
X215686000Y-103805000D02*
X215686000Y-100936000D01*
X215686000Y-98454000D02*
X215686000Y-95585000D01*
X215726000Y-103775000D02*
X215726000Y-100936000D01*
X215726000Y-98454000D02*
X215726000Y-95615000D01*
X215766000Y-103745000D02*
X215766000Y-100936000D01*
X215766000Y-98454000D02*
X215766000Y-95645000D01*
X215806000Y-103715000D02*
X215806000Y-100936000D01*
X215806000Y-98454000D02*
X215806000Y-95675000D01*
X215846000Y-103684000D02*
X215846000Y-100936000D01*
X215846000Y-98454000D02*
X215846000Y-95706000D01*
X215886000Y-103652000D02*
X215886000Y-100936000D01*
X215886000Y-98454000D02*
X215886000Y-95738000D01*
X215926000Y-103620000D02*
X215926000Y-100936000D01*
X215926000Y-98454000D02*
X215926000Y-95770000D01*
X215966000Y-103587000D02*
X215966000Y-100936000D01*
X215966000Y-98454000D02*
X215966000Y-95803000D01*
X216006000Y-103553000D02*
X216006000Y-100936000D01*
X216006000Y-98454000D02*
X216006000Y-95837000D01*
X216046000Y-103519000D02*
X216046000Y-100936000D01*
X216046000Y-98454000D02*
X216046000Y-95871000D01*
X216086000Y-103484000D02*
X216086000Y-100936000D01*
X216086000Y-98454000D02*
X216086000Y-95906000D01*
X216126000Y-103448000D02*
X216126000Y-100936000D01*
X216126000Y-98454000D02*
X216126000Y-95942000D01*
X216166000Y-103411000D02*
X216166000Y-100936000D01*
X216166000Y-98454000D02*
X216166000Y-95979000D01*
X216206000Y-103374000D02*
X216206000Y-100936000D01*
X216206000Y-98454000D02*
X216206000Y-96016000D01*
X216246000Y-103335000D02*
X216246000Y-100936000D01*
X216246000Y-98454000D02*
X216246000Y-96055000D01*
X216286000Y-103296000D02*
X216286000Y-100936000D01*
X216286000Y-98454000D02*
X216286000Y-96094000D01*
X216326000Y-103256000D02*
X216326000Y-100936000D01*
X216326000Y-98454000D02*
X216326000Y-96134000D01*
X216366000Y-103215000D02*
X216366000Y-100936000D01*
X216366000Y-98454000D02*
X216366000Y-96175000D01*
X216406000Y-103173000D02*
X216406000Y-100936000D01*
X216406000Y-98454000D02*
X216406000Y-96217000D01*
X216446000Y-103131000D02*
X216446000Y-96259000D01*
X216486000Y-103087000D02*
X216486000Y-96303000D01*
X216526000Y-103042000D02*
X216526000Y-96348000D01*
X216566000Y-102996000D02*
X216566000Y-96394000D01*
X216606000Y-102949000D02*
X216606000Y-96441000D01*
X216646000Y-102901000D02*
X216646000Y-96489000D01*
X216686000Y-102851000D02*
X216686000Y-96539000D01*
X216726000Y-102801000D02*
X216726000Y-96589000D01*
X216766000Y-102749000D02*
X216766000Y-96641000D01*
X216806000Y-102695000D02*
X216806000Y-96695000D01*
X216846000Y-102640000D02*
X216846000Y-96750000D01*
X216886000Y-102584000D02*
X216886000Y-96806000D01*
X216926000Y-102525000D02*
X216926000Y-96865000D01*
X216966000Y-102465000D02*
X216966000Y-96925000D01*
X217006000Y-102404000D02*
X217006000Y-96986000D01*
X217046000Y-102340000D02*
X217046000Y-97050000D01*
X217086000Y-102274000D02*
X217086000Y-97116000D01*
X217126000Y-102205000D02*
X217126000Y-97185000D01*
X217166000Y-102134000D02*
X217166000Y-97256000D01*
X217206000Y-102060000D02*
X217206000Y-97330000D01*
X217246000Y-101984000D02*
X217246000Y-97406000D01*
X217286000Y-101904000D02*
X217286000Y-97486000D01*
X217326000Y-101820000D02*
X217326000Y-97570000D01*
X217366000Y-101732000D02*
X217366000Y-97658000D01*
X217406000Y-101639000D02*
X217406000Y-97751000D01*
X217446000Y-101541000D02*
X217446000Y-97849000D01*
X217486000Y-101437000D02*
X217486000Y-97953000D01*
X217526000Y-101325000D02*
X217526000Y-98065000D01*
X217566000Y-101205000D02*
X217566000Y-98185000D01*
X217606000Y-101073000D02*
X217606000Y-98317000D01*
X217646000Y-100925000D02*
X217646000Y-98465000D01*
X217686000Y-100757000D02*
X217686000Y-98633000D01*
X217726000Y-100557000D02*
X217726000Y-98833000D01*
X217766000Y-100294000D02*
X217766000Y-99096000D01*
X207205354Y-102570000D02*
X208205354Y-102570000D01*
X207705354Y-103070000D02*
X207705354Y-102070000D01*
%TO.C,A1*%
X175260000Y-103505000D02*
X193294000Y-103505000D01*
X193294000Y-103505000D02*
X193294000Y-91821000D01*
X193294000Y-91821000D02*
X175260000Y-91821000D01*
X175260000Y-91821000D02*
X175260000Y-103505000D01*
%TO.C,BZ1*%
X157040000Y-42545000D02*
G75*
G03*
X157040000Y-42545000I-7100000J0D01*
G01*
%TO.C,C1*%
X142140000Y-97170000D02*
X142140000Y-103410000D01*
X144880000Y-97170000D02*
X144880000Y-103410000D01*
X142140000Y-97170000D02*
X142585000Y-97170000D01*
X144435000Y-97170000D02*
X144880000Y-97170000D01*
X142140000Y-103410000D02*
X142585000Y-103410000D01*
X144435000Y-103410000D02*
X144880000Y-103410000D01*
%TO.C,C2*%
X158155000Y-100290000D02*
G75*
G03*
X158155000Y-100290000I-5120000J0D01*
G01*
X147955000Y-100290000D02*
X158115000Y-100290000D01*
X147955000Y-100330000D02*
X158115000Y-100330000D01*
X147955000Y-100370000D02*
X158115000Y-100370000D01*
X147956000Y-100410000D02*
X158114000Y-100410000D01*
X147957000Y-100450000D02*
X158113000Y-100450000D01*
X147958000Y-100490000D02*
X158112000Y-100490000D01*
X147960000Y-100530000D02*
X158110000Y-100530000D01*
X147962000Y-100570000D02*
X158108000Y-100570000D01*
X147965000Y-100610000D02*
X158105000Y-100610000D01*
X147967000Y-100650000D02*
X158103000Y-100650000D01*
X147970000Y-100690000D02*
X158100000Y-100690000D01*
X147973000Y-100730000D02*
X158097000Y-100730000D01*
X147977000Y-100770000D02*
X158093000Y-100770000D01*
X147981000Y-100810000D02*
X158089000Y-100810000D01*
X147985000Y-100850000D02*
X158085000Y-100850000D01*
X147990000Y-100890000D02*
X158080000Y-100890000D01*
X147995000Y-100930000D02*
X158075000Y-100930000D01*
X148000000Y-100970000D02*
X158070000Y-100970000D01*
X148005000Y-101011000D02*
X158065000Y-101011000D01*
X148011000Y-101051000D02*
X158059000Y-101051000D01*
X148017000Y-101091000D02*
X158053000Y-101091000D01*
X148024000Y-101131000D02*
X158046000Y-101131000D01*
X148031000Y-101171000D02*
X158039000Y-101171000D01*
X148038000Y-101211000D02*
X158032000Y-101211000D01*
X148045000Y-101251000D02*
X158025000Y-101251000D01*
X148053000Y-101291000D02*
X158017000Y-101291000D01*
X148061000Y-101331000D02*
X158009000Y-101331000D01*
X148070000Y-101371000D02*
X158000000Y-101371000D01*
X148079000Y-101411000D02*
X157991000Y-101411000D01*
X148088000Y-101451000D02*
X157982000Y-101451000D01*
X148097000Y-101491000D02*
X157973000Y-101491000D01*
X148107000Y-101531000D02*
X157963000Y-101531000D01*
X148117000Y-101571000D02*
X151794000Y-101571000D01*
X154276000Y-101571000D02*
X157953000Y-101571000D01*
X148128000Y-101611000D02*
X151794000Y-101611000D01*
X154276000Y-101611000D02*
X157942000Y-101611000D01*
X148138000Y-101651000D02*
X151794000Y-101651000D01*
X154276000Y-101651000D02*
X157932000Y-101651000D01*
X148150000Y-101691000D02*
X151794000Y-101691000D01*
X154276000Y-101691000D02*
X157920000Y-101691000D01*
X148161000Y-101731000D02*
X151794000Y-101731000D01*
X154276000Y-101731000D02*
X157909000Y-101731000D01*
X148173000Y-101771000D02*
X151794000Y-101771000D01*
X154276000Y-101771000D02*
X157897000Y-101771000D01*
X148185000Y-101811000D02*
X151794000Y-101811000D01*
X154276000Y-101811000D02*
X157885000Y-101811000D01*
X148198000Y-101851000D02*
X151794000Y-101851000D01*
X154276000Y-101851000D02*
X157872000Y-101851000D01*
X148211000Y-101891000D02*
X151794000Y-101891000D01*
X154276000Y-101891000D02*
X157859000Y-101891000D01*
X148224000Y-101931000D02*
X151794000Y-101931000D01*
X154276000Y-101931000D02*
X157846000Y-101931000D01*
X148238000Y-101971000D02*
X151794000Y-101971000D01*
X154276000Y-101971000D02*
X157832000Y-101971000D01*
X148252000Y-102011000D02*
X151794000Y-102011000D01*
X154276000Y-102011000D02*
X157818000Y-102011000D01*
X148267000Y-102051000D02*
X151794000Y-102051000D01*
X154276000Y-102051000D02*
X157803000Y-102051000D01*
X148281000Y-102091000D02*
X151794000Y-102091000D01*
X154276000Y-102091000D02*
X157789000Y-102091000D01*
X148297000Y-102131000D02*
X151794000Y-102131000D01*
X154276000Y-102131000D02*
X157773000Y-102131000D01*
X148312000Y-102171000D02*
X151794000Y-102171000D01*
X154276000Y-102171000D02*
X157758000Y-102171000D01*
X148328000Y-102211000D02*
X151794000Y-102211000D01*
X154276000Y-102211000D02*
X157742000Y-102211000D01*
X148345000Y-102251000D02*
X151794000Y-102251000D01*
X154276000Y-102251000D02*
X157725000Y-102251000D01*
X148361000Y-102291000D02*
X151794000Y-102291000D01*
X154276000Y-102291000D02*
X157709000Y-102291000D01*
X148378000Y-102331000D02*
X151794000Y-102331000D01*
X154276000Y-102331000D02*
X157692000Y-102331000D01*
X148396000Y-102371000D02*
X151794000Y-102371000D01*
X154276000Y-102371000D02*
X157674000Y-102371000D01*
X148414000Y-102411000D02*
X151794000Y-102411000D01*
X154276000Y-102411000D02*
X157656000Y-102411000D01*
X148432000Y-102451000D02*
X151794000Y-102451000D01*
X154276000Y-102451000D02*
X157638000Y-102451000D01*
X148451000Y-102491000D02*
X151794000Y-102491000D01*
X154276000Y-102491000D02*
X157619000Y-102491000D01*
X148471000Y-102531000D02*
X151794000Y-102531000D01*
X154276000Y-102531000D02*
X157599000Y-102531000D01*
X148490000Y-102571000D02*
X151794000Y-102571000D01*
X154276000Y-102571000D02*
X157580000Y-102571000D01*
X148510000Y-102611000D02*
X151794000Y-102611000D01*
X154276000Y-102611000D02*
X157560000Y-102611000D01*
X148531000Y-102651000D02*
X151794000Y-102651000D01*
X154276000Y-102651000D02*
X157539000Y-102651000D01*
X148552000Y-102691000D02*
X151794000Y-102691000D01*
X154276000Y-102691000D02*
X157518000Y-102691000D01*
X148573000Y-102731000D02*
X151794000Y-102731000D01*
X154276000Y-102731000D02*
X157497000Y-102731000D01*
X148595000Y-102771000D02*
X151794000Y-102771000D01*
X154276000Y-102771000D02*
X157475000Y-102771000D01*
X148618000Y-102811000D02*
X151794000Y-102811000D01*
X154276000Y-102811000D02*
X157452000Y-102811000D01*
X148640000Y-102851000D02*
X151794000Y-102851000D01*
X154276000Y-102851000D02*
X157430000Y-102851000D01*
X148664000Y-102891000D02*
X151794000Y-102891000D01*
X154276000Y-102891000D02*
X157406000Y-102891000D01*
X148688000Y-102931000D02*
X151794000Y-102931000D01*
X154276000Y-102931000D02*
X157382000Y-102931000D01*
X148712000Y-102971000D02*
X151794000Y-102971000D01*
X154276000Y-102971000D02*
X157358000Y-102971000D01*
X148737000Y-103011000D02*
X151794000Y-103011000D01*
X154276000Y-103011000D02*
X157333000Y-103011000D01*
X148762000Y-103051000D02*
X151794000Y-103051000D01*
X154276000Y-103051000D02*
X157308000Y-103051000D01*
X148788000Y-103091000D02*
X151794000Y-103091000D01*
X154276000Y-103091000D02*
X157282000Y-103091000D01*
X148814000Y-103131000D02*
X151794000Y-103131000D01*
X154276000Y-103131000D02*
X157256000Y-103131000D01*
X148841000Y-103171000D02*
X151794000Y-103171000D01*
X154276000Y-103171000D02*
X157229000Y-103171000D01*
X148869000Y-103211000D02*
X151794000Y-103211000D01*
X154276000Y-103211000D02*
X157201000Y-103211000D01*
X148897000Y-103251000D02*
X151794000Y-103251000D01*
X154276000Y-103251000D02*
X157173000Y-103251000D01*
X148925000Y-103291000D02*
X151794000Y-103291000D01*
X154276000Y-103291000D02*
X157145000Y-103291000D01*
X148955000Y-103331000D02*
X151794000Y-103331000D01*
X154276000Y-103331000D02*
X157115000Y-103331000D01*
X148985000Y-103371000D02*
X151794000Y-103371000D01*
X154276000Y-103371000D02*
X157085000Y-103371000D01*
X149015000Y-103411000D02*
X151794000Y-103411000D01*
X154276000Y-103411000D02*
X157055000Y-103411000D01*
X149046000Y-103451000D02*
X151794000Y-103451000D01*
X154276000Y-103451000D02*
X157024000Y-103451000D01*
X149078000Y-103491000D02*
X151794000Y-103491000D01*
X154276000Y-103491000D02*
X156992000Y-103491000D01*
X149110000Y-103531000D02*
X151794000Y-103531000D01*
X154276000Y-103531000D02*
X156960000Y-103531000D01*
X149143000Y-103571000D02*
X151794000Y-103571000D01*
X154276000Y-103571000D02*
X156927000Y-103571000D01*
X149177000Y-103611000D02*
X151794000Y-103611000D01*
X154276000Y-103611000D02*
X156893000Y-103611000D01*
X149211000Y-103651000D02*
X151794000Y-103651000D01*
X154276000Y-103651000D02*
X156859000Y-103651000D01*
X149246000Y-103691000D02*
X151794000Y-103691000D01*
X154276000Y-103691000D02*
X156824000Y-103691000D01*
X149282000Y-103731000D02*
X151794000Y-103731000D01*
X154276000Y-103731000D02*
X156788000Y-103731000D01*
X149319000Y-103771000D02*
X151794000Y-103771000D01*
X154276000Y-103771000D02*
X156751000Y-103771000D01*
X149356000Y-103811000D02*
X151794000Y-103811000D01*
X154276000Y-103811000D02*
X156714000Y-103811000D01*
X149395000Y-103851000D02*
X151794000Y-103851000D01*
X154276000Y-103851000D02*
X156675000Y-103851000D01*
X149434000Y-103891000D02*
X151794000Y-103891000D01*
X154276000Y-103891000D02*
X156636000Y-103891000D01*
X149474000Y-103931000D02*
X151794000Y-103931000D01*
X154276000Y-103931000D02*
X156596000Y-103931000D01*
X149515000Y-103971000D02*
X151794000Y-103971000D01*
X154276000Y-103971000D02*
X156555000Y-103971000D01*
X149557000Y-104011000D02*
X151794000Y-104011000D01*
X154276000Y-104011000D02*
X156513000Y-104011000D01*
X149599000Y-104051000D02*
X156471000Y-104051000D01*
X149643000Y-104091000D02*
X156427000Y-104091000D01*
X149688000Y-104131000D02*
X156382000Y-104131000D01*
X149734000Y-104171000D02*
X156336000Y-104171000D01*
X149781000Y-104211000D02*
X156289000Y-104211000D01*
X149829000Y-104251000D02*
X156241000Y-104251000D01*
X149879000Y-104291000D02*
X156191000Y-104291000D01*
X149929000Y-104331000D02*
X156141000Y-104331000D01*
X149981000Y-104371000D02*
X156089000Y-104371000D01*
X150035000Y-104411000D02*
X156035000Y-104411000D01*
X150090000Y-104451000D02*
X155980000Y-104451000D01*
X150146000Y-104491000D02*
X155924000Y-104491000D01*
X150205000Y-104531000D02*
X155865000Y-104531000D01*
X150265000Y-104571000D02*
X155805000Y-104571000D01*
X150326000Y-104611000D02*
X155744000Y-104611000D01*
X150390000Y-104651000D02*
X155680000Y-104651000D01*
X150456000Y-104691000D02*
X155614000Y-104691000D01*
X150525000Y-104731000D02*
X155545000Y-104731000D01*
X150596000Y-104771000D02*
X155474000Y-104771000D01*
X150670000Y-104811000D02*
X155400000Y-104811000D01*
X150746000Y-104851000D02*
X155324000Y-104851000D01*
X150826000Y-104891000D02*
X155244000Y-104891000D01*
X150910000Y-104931000D02*
X155160000Y-104931000D01*
X150998000Y-104971000D02*
X155072000Y-104971000D01*
X151091000Y-105011000D02*
X154979000Y-105011000D01*
X151189000Y-105051000D02*
X154881000Y-105051000D01*
X151293000Y-105091000D02*
X154777000Y-105091000D01*
X151405000Y-105131000D02*
X154665000Y-105131000D01*
X151525000Y-105171000D02*
X154545000Y-105171000D01*
X151657000Y-105211000D02*
X154413000Y-105211000D01*
X151805000Y-105251000D02*
X154265000Y-105251000D01*
X151973000Y-105291000D02*
X154097000Y-105291000D01*
X152173000Y-105331000D02*
X153897000Y-105331000D01*
X152436000Y-105371000D02*
X153634000Y-105371000D01*
X150160000Y-94810354D02*
X150160000Y-95810354D01*
X149660000Y-95310354D02*
X150660000Y-95310354D01*
%TO.C,C4*%
X197580000Y-97445000D02*
X197580000Y-97890000D01*
X197580000Y-95150000D02*
X197580000Y-95595000D01*
X203820000Y-97445000D02*
X203820000Y-97890000D01*
X203820000Y-95150000D02*
X203820000Y-95595000D01*
X203820000Y-97890000D02*
X197580000Y-97890000D01*
X203820000Y-95150000D02*
X197580000Y-95150000D01*
%TO.C,Q1*%
X137690000Y-42490000D02*
X134090000Y-42490000D01*
X137728478Y-42478478D02*
G75*
G03*
X135890000Y-38040000I-1838478J1838478D01*
G01*
X134051522Y-42478478D02*
G75*
G02*
X135890000Y-38040000I1838478J1838478D01*
G01*
%TO.C,R1*%
X75335000Y-41275000D02*
X76025000Y-41275000D01*
X85955000Y-41275000D02*
X85265000Y-41275000D01*
X76025000Y-39555000D02*
X85265000Y-39555000D01*
X76025000Y-42995000D02*
X76025000Y-39555000D01*
X85265000Y-42995000D02*
X76025000Y-42995000D01*
X85265000Y-39555000D02*
X85265000Y-42995000D01*
%TO.C,J1*%
D11*
X212423333Y-44402380D02*
X212423333Y-45116666D01*
X212470952Y-45259523D01*
X212566190Y-45354761D01*
X212709047Y-45402380D01*
X212804285Y-45402380D01*
X211423333Y-45402380D02*
X211994761Y-45402380D01*
X211709047Y-45402380D02*
X211709047Y-44402380D01*
X211804285Y-44545238D01*
X211899523Y-44640476D01*
X211994761Y-44688095D01*
%TO.C,J2*%
X212423333Y-43402380D02*
X212423333Y-44116666D01*
X212470952Y-44259523D01*
X212566190Y-44354761D01*
X212709047Y-44402380D01*
X212804285Y-44402380D01*
X211994761Y-43497619D02*
X211947142Y-43450000D01*
X211851904Y-43402380D01*
X211613809Y-43402380D01*
X211518571Y-43450000D01*
X211470952Y-43497619D01*
X211423333Y-43592857D01*
X211423333Y-43688095D01*
X211470952Y-43830952D01*
X212042380Y-44402380D01*
X211423333Y-44402380D01*
%TO.C,J3*%
X90467380Y-42846666D02*
X91181666Y-42846666D01*
X91324523Y-42799047D01*
X91419761Y-42703809D01*
X91467380Y-42560952D01*
X91467380Y-42465714D01*
X90467380Y-43227619D02*
X90467380Y-43846666D01*
X90848333Y-43513333D01*
X90848333Y-43656190D01*
X90895952Y-43751428D01*
X90943571Y-43799047D01*
X91038809Y-43846666D01*
X91276904Y-43846666D01*
X91372142Y-43799047D01*
X91419761Y-43751428D01*
X91467380Y-43656190D01*
X91467380Y-43370476D01*
X91419761Y-43275238D01*
X91372142Y-43227619D01*
%TO.C,R2*%
X133770666Y-42537980D02*
X134104000Y-42061790D01*
X134342095Y-42537980D02*
X134342095Y-41537980D01*
X133961142Y-41537980D01*
X133865904Y-41585600D01*
X133818285Y-41633219D01*
X133770666Y-41728457D01*
X133770666Y-41871314D01*
X133818285Y-41966552D01*
X133865904Y-42014171D01*
X133961142Y-42061790D01*
X134342095Y-42061790D01*
X133389714Y-41633219D02*
X133342095Y-41585600D01*
X133246857Y-41537980D01*
X133008761Y-41537980D01*
X132913523Y-41585600D01*
X132865904Y-41633219D01*
X132818285Y-41728457D01*
X132818285Y-41823695D01*
X132865904Y-41966552D01*
X133437333Y-42537980D01*
X132818285Y-42537980D01*
%TO.C,C3*%
X212851666Y-106302142D02*
X212899285Y-106349761D01*
X213042142Y-106397380D01*
X213137380Y-106397380D01*
X213280238Y-106349761D01*
X213375476Y-106254523D01*
X213423095Y-106159285D01*
X213470714Y-105968809D01*
X213470714Y-105825952D01*
X213423095Y-105635476D01*
X213375476Y-105540238D01*
X213280238Y-105445000D01*
X213137380Y-105397380D01*
X213042142Y-105397380D01*
X212899285Y-105445000D01*
X212851666Y-105492619D01*
X212518333Y-105397380D02*
X211899285Y-105397380D01*
X212232619Y-105778333D01*
X212089761Y-105778333D01*
X211994523Y-105825952D01*
X211946904Y-105873571D01*
X211899285Y-105968809D01*
X211899285Y-106206904D01*
X211946904Y-106302142D01*
X211994523Y-106349761D01*
X212089761Y-106397380D01*
X212375476Y-106397380D01*
X212470714Y-106349761D01*
X212518333Y-106302142D01*
%TO.C,A1*%
X185626285Y-104433666D02*
X185150095Y-104433666D01*
X185721523Y-104719380D02*
X185388190Y-103719380D01*
X185054857Y-104719380D01*
X184197714Y-104719380D02*
X184769142Y-104719380D01*
X184483428Y-104719380D02*
X184483428Y-103719380D01*
X184578666Y-103862238D01*
X184673904Y-103957476D01*
X184769142Y-104005095D01*
%TO.C,BZ1*%
X150660952Y-34243571D02*
X150518095Y-34291190D01*
X150470476Y-34338809D01*
X150422857Y-34434047D01*
X150422857Y-34576904D01*
X150470476Y-34672142D01*
X150518095Y-34719761D01*
X150613333Y-34767380D01*
X150994285Y-34767380D01*
X150994285Y-33767380D01*
X150660952Y-33767380D01*
X150565714Y-33815000D01*
X150518095Y-33862619D01*
X150470476Y-33957857D01*
X150470476Y-34053095D01*
X150518095Y-34148333D01*
X150565714Y-34195952D01*
X150660952Y-34243571D01*
X150994285Y-34243571D01*
X150089523Y-33767380D02*
X149422857Y-33767380D01*
X150089523Y-34767380D01*
X149422857Y-34767380D01*
X148518095Y-34767380D02*
X149089523Y-34767380D01*
X148803809Y-34767380D02*
X148803809Y-33767380D01*
X148899047Y-33910238D01*
X148994285Y-34005476D01*
X149089523Y-34053095D01*
X155330952Y-40076428D02*
X154569047Y-40076428D01*
X154950000Y-40457380D02*
X154950000Y-39695476D01*
%TO.C,C1*%
X141367142Y-100123333D02*
X141414761Y-100075714D01*
X141462380Y-99932857D01*
X141462380Y-99837619D01*
X141414761Y-99694761D01*
X141319523Y-99599523D01*
X141224285Y-99551904D01*
X141033809Y-99504285D01*
X140890952Y-99504285D01*
X140700476Y-99551904D01*
X140605238Y-99599523D01*
X140510000Y-99694761D01*
X140462380Y-99837619D01*
X140462380Y-99932857D01*
X140510000Y-100075714D01*
X140557619Y-100123333D01*
X141462380Y-101075714D02*
X141462380Y-100504285D01*
X141462380Y-100790000D02*
X140462380Y-100790000D01*
X140605238Y-100694761D01*
X140700476Y-100599523D01*
X140748095Y-100504285D01*
%TO.C,C2*%
X147142142Y-100123333D02*
X147189761Y-100075714D01*
X147237380Y-99932857D01*
X147237380Y-99837619D01*
X147189761Y-99694761D01*
X147094523Y-99599523D01*
X146999285Y-99551904D01*
X146808809Y-99504285D01*
X146665952Y-99504285D01*
X146475476Y-99551904D01*
X146380238Y-99599523D01*
X146285000Y-99694761D01*
X146237380Y-99837619D01*
X146237380Y-99932857D01*
X146285000Y-100075714D01*
X146332619Y-100123333D01*
X146332619Y-100504285D02*
X146285000Y-100551904D01*
X146237380Y-100647142D01*
X146237380Y-100885238D01*
X146285000Y-100980476D01*
X146332619Y-101028095D01*
X146427857Y-101075714D01*
X146523095Y-101075714D01*
X146665952Y-101028095D01*
X147237380Y-100456666D01*
X147237380Y-101075714D01*
%TO.C,C4*%
X200866666Y-94377142D02*
X200914285Y-94424761D01*
X201057142Y-94472380D01*
X201152380Y-94472380D01*
X201295238Y-94424761D01*
X201390476Y-94329523D01*
X201438095Y-94234285D01*
X201485714Y-94043809D01*
X201485714Y-93900952D01*
X201438095Y-93710476D01*
X201390476Y-93615238D01*
X201295238Y-93520000D01*
X201152380Y-93472380D01*
X201057142Y-93472380D01*
X200914285Y-93520000D01*
X200866666Y-93567619D01*
X200009523Y-93805714D02*
X200009523Y-94472380D01*
X200247619Y-93424761D02*
X200485714Y-94139047D01*
X199866666Y-94139047D01*
%TO.C,Q1*%
X135985238Y-37627619D02*
X136080476Y-37580000D01*
X136175714Y-37484761D01*
X136318571Y-37341904D01*
X136413809Y-37294285D01*
X136509047Y-37294285D01*
X136461428Y-37532380D02*
X136556666Y-37484761D01*
X136651904Y-37389523D01*
X136699523Y-37199047D01*
X136699523Y-36865714D01*
X136651904Y-36675238D01*
X136556666Y-36580000D01*
X136461428Y-36532380D01*
X136270952Y-36532380D01*
X136175714Y-36580000D01*
X136080476Y-36675238D01*
X136032857Y-36865714D01*
X136032857Y-37199047D01*
X136080476Y-37389523D01*
X136175714Y-37484761D01*
X136270952Y-37532380D01*
X136461428Y-37532380D01*
X135080476Y-37532380D02*
X135651904Y-37532380D01*
X135366190Y-37532380D02*
X135366190Y-36532380D01*
X135461428Y-36675238D01*
X135556666Y-36770476D01*
X135651904Y-36818095D01*
%TO.C,R1*%
X80811666Y-39007380D02*
X81145000Y-38531190D01*
X81383095Y-39007380D02*
X81383095Y-38007380D01*
X81002142Y-38007380D01*
X80906904Y-38055000D01*
X80859285Y-38102619D01*
X80811666Y-38197857D01*
X80811666Y-38340714D01*
X80859285Y-38435952D01*
X80906904Y-38483571D01*
X81002142Y-38531190D01*
X81383095Y-38531190D01*
X79859285Y-39007380D02*
X80430714Y-39007380D01*
X80145000Y-39007380D02*
X80145000Y-38007380D01*
X80240238Y-38150238D01*
X80335476Y-38245476D01*
X80430714Y-38293095D01*
%TD*%
M02*
