%TF.GenerationSoftware,KiCad,Pcbnew,(5.1.12)-1*%
%TF.CreationDate,2022-06-03T19:18:09+02:00*%
%TF.ProjectId,pypilot_keyboard,70797069-6c6f-4745-9f6b-6579626f6172,rev?*%
%TF.SameCoordinates,Original*%
%TF.FileFunction,Copper,L1,Top*%
%TF.FilePolarity,Positive*%
%FSLAX46Y46*%
G04 Gerber Fmt 4.6, Leading zero omitted, Abs format (unit mm)*
G04 Created by KiCad (PCBNEW (5.1.12)-1) date 2022-06-03 19:18:09*
%MOMM*%
%LPD*%
G01*
G04 APERTURE LIST*
%TA.AperFunction,ComponentPad*%
%ADD10R,2.540000X2.540000*%
%TD*%
%TA.AperFunction,ComponentPad*%
%ADD11R,1.700000X1.700000*%
%TD*%
%TA.AperFunction,ComponentPad*%
%ADD12O,1.700000X1.700000*%
%TD*%
%TA.AperFunction,ComponentPad*%
%ADD13O,1.600000X1.600000*%
%TD*%
%TA.AperFunction,ComponentPad*%
%ADD14C,1.600000*%
%TD*%
%TA.AperFunction,ComponentPad*%
%ADD15C,2.000000*%
%TD*%
%TA.AperFunction,ComponentPad*%
%ADD16R,2.000000X2.000000*%
%TD*%
%TA.AperFunction,ComponentPad*%
%ADD17C,1.524000*%
%TD*%
%TA.AperFunction,ComponentPad*%
%ADD18R,1.800000X1.800000*%
%TD*%
%TA.AperFunction,ComponentPad*%
%ADD19C,1.800000*%
%TD*%
%TA.AperFunction,ComponentPad*%
%ADD20C,1.300000*%
%TD*%
%TA.AperFunction,ComponentPad*%
%ADD21R,1.300000X1.300000*%
%TD*%
%TA.AperFunction,ViaPad*%
%ADD22C,0.800000*%
%TD*%
%TA.AperFunction,Conductor*%
%ADD23C,2.000000*%
%TD*%
%TA.AperFunction,Conductor*%
%ADD24C,0.250000*%
%TD*%
%TA.AperFunction,Conductor*%
%ADD25C,0.254000*%
%TD*%
%TA.AperFunction,Conductor*%
%ADD26C,0.100000*%
%TD*%
G04 APERTURE END LIST*
D10*
%TO.P,J1,1*%
%TO.N,+12V*%
X210820000Y-46990000D03*
X213360000Y-46990000D03*
%TD*%
%TO.P,J2,1*%
%TO.N,GND*%
X213360000Y-41910000D03*
X210820000Y-41910000D03*
%TD*%
D11*
%TO.P,J3,1*%
%TO.N,LED*%
X93345000Y-41910000D03*
D12*
%TO.P,J3,2*%
%TO.N,-10*%
X93345000Y-44450000D03*
%TO.P,J3,3*%
%TO.N,+10*%
X95885000Y-41910000D03*
%TO.P,J3,4*%
%TO.N,StandBy*%
X95885000Y-44450000D03*
%TO.P,J3,5*%
%TO.N,+1*%
X98425000Y-41910000D03*
%TO.P,J3,6*%
%TO.N,AUTO*%
X98425000Y-44450000D03*
%TO.P,J3,7*%
%TO.N,-1*%
X100965000Y-41910000D03*
%TO.P,J3,8*%
%TO.N,Buzzer*%
X100965000Y-44450000D03*
%TO.P,J3,9*%
%TO.N,+5V*%
X103505000Y-41910000D03*
%TO.P,J3,10*%
%TO.N,GND*%
X103505000Y-44450000D03*
%TO.P,J3,11*%
%TO.N,+5V*%
X106045000Y-41910000D03*
%TO.P,J3,12*%
%TO.N,GND*%
X106045000Y-44450000D03*
%TD*%
D13*
%TO.P,R2,2*%
%TO.N,Buzzer*%
X127254000Y-44805600D03*
D14*
%TO.P,R2,1*%
%TO.N,Net-(Q1-Pad2)*%
X139954000Y-44805600D03*
%TD*%
D15*
%TO.P,C3,2*%
%TO.N,GND*%
X215185000Y-99695000D03*
D16*
%TO.P,C3,1*%
%TO.N,+5V*%
X210185000Y-99695000D03*
%TD*%
%TO.P,A1,1*%
%TO.N,+12V*%
%TA.AperFunction,ComponentPad*%
G36*
G01*
X176022000Y-93472000D02*
X176022000Y-92710000D01*
G75*
G02*
X176403000Y-92329000I381000J0D01*
G01*
X177165000Y-92329000D01*
G75*
G02*
X177546000Y-92710000I0J-381000D01*
G01*
X177546000Y-93472000D01*
G75*
G02*
X177165000Y-93853000I-381000J0D01*
G01*
X176403000Y-93853000D01*
G75*
G02*
X176022000Y-93472000I0J381000D01*
G01*
G37*
%TD.AperFunction*%
D17*
%TO.P,A1,2*%
%TO.N,+5V*%
X192024000Y-93091000D03*
%TO.P,A1,3*%
%TO.N,GND*%
X176530000Y-102235000D03*
%TO.P,A1,4*%
X192024000Y-102235000D03*
%TD*%
D15*
%TO.P,BZ1,2*%
%TO.N,Net-(BZ1-Pad2)*%
X144940000Y-42545000D03*
D16*
%TO.P,BZ1,1*%
%TO.N,+12V*%
X154940000Y-42545000D03*
%TD*%
D14*
%TO.P,C1,2*%
%TO.N,GND*%
X143510000Y-102790000D03*
%TO.P,C1,1*%
%TO.N,+12V*%
X143510000Y-97790000D03*
%TD*%
D15*
%TO.P,C2,2*%
%TO.N,GND*%
X153035000Y-102790000D03*
D16*
%TO.P,C2,1*%
%TO.N,+12V*%
X153035000Y-97790000D03*
%TD*%
D14*
%TO.P,C4,1*%
%TO.N,+5V*%
X203200000Y-96520000D03*
%TO.P,C4,2*%
%TO.N,GND*%
X198200000Y-96520000D03*
%TD*%
D18*
%TO.P,D1,1*%
%TO.N,GND*%
X85090000Y-73660000D03*
D19*
%TO.P,D1,2*%
%TO.N,Net-(D1-Pad2)*%
X85090000Y-71120000D03*
%TD*%
D20*
%TO.P,Q1,2*%
%TO.N,Net-(Q1-Pad2)*%
X135890000Y-39370000D03*
%TO.P,Q1,3*%
%TO.N,GND*%
X134620000Y-40640000D03*
D21*
%TO.P,Q1,1*%
%TO.N,Net-(BZ1-Pad2)*%
X137160000Y-40640000D03*
%TD*%
D14*
%TO.P,R1,1*%
%TO.N,LED*%
X86995000Y-41275000D03*
D13*
%TO.P,R1,2*%
%TO.N,Net-(D1-Pad2)*%
X74295000Y-41275000D03*
%TD*%
D15*
%TO.P,SW1,2*%
%TO.N,AUTO*%
X167640000Y-59745000D03*
%TO.P,SW1,1*%
%TO.N,GND*%
X167640000Y-55245000D03*
%TO.P,SW1,2*%
%TO.N,AUTO*%
X174140000Y-59745000D03*
%TO.P,SW1,1*%
%TO.N,GND*%
X174140000Y-55245000D03*
%TD*%
%TO.P,SW2,1*%
%TO.N,GND*%
X174140000Y-84455000D03*
%TO.P,SW2,2*%
%TO.N,StandBy*%
X174140000Y-88955000D03*
%TO.P,SW2,1*%
%TO.N,GND*%
X167640000Y-84455000D03*
%TO.P,SW2,2*%
%TO.N,StandBy*%
X167640000Y-88955000D03*
%TD*%
%TO.P,SW3,2*%
%TO.N,-10*%
X140335000Y-88955000D03*
%TO.P,SW3,1*%
%TO.N,GND*%
X140335000Y-84455000D03*
%TO.P,SW3,2*%
%TO.N,-10*%
X146835000Y-88955000D03*
%TO.P,SW3,1*%
%TO.N,GND*%
X146835000Y-84455000D03*
%TD*%
%TO.P,SW4,1*%
%TO.N,GND*%
X122705000Y-84455000D03*
%TO.P,SW4,2*%
%TO.N,-1*%
X122705000Y-88955000D03*
%TO.P,SW4,1*%
%TO.N,GND*%
X116205000Y-84455000D03*
%TO.P,SW4,2*%
%TO.N,-1*%
X116205000Y-88955000D03*
%TD*%
%TO.P,SW5,2*%
%TO.N,+1*%
X116205000Y-59745000D03*
%TO.P,SW5,1*%
%TO.N,GND*%
X116205000Y-55245000D03*
%TO.P,SW5,2*%
%TO.N,+1*%
X122705000Y-59745000D03*
%TO.P,SW5,1*%
%TO.N,GND*%
X122705000Y-55245000D03*
%TD*%
%TO.P,SW6,1*%
%TO.N,GND*%
X146835000Y-55245000D03*
%TO.P,SW6,2*%
%TO.N,+10*%
X146835000Y-59745000D03*
%TO.P,SW6,1*%
%TO.N,GND*%
X140335000Y-55245000D03*
%TO.P,SW6,2*%
%TO.N,+10*%
X140335000Y-59745000D03*
%TD*%
D22*
%TO.N,-1*%
X107950000Y-63500000D03*
%TD*%
D23*
%TO.N,+12V*%
X213360000Y-56515000D02*
X176784000Y-93091000D01*
X156464000Y-93091000D02*
X153035000Y-96520000D01*
X176784000Y-93091000D02*
X156464000Y-93091000D01*
X144780000Y-96520000D02*
X143510000Y-97790000D01*
X153035000Y-96520000D02*
X144780000Y-96520000D01*
X154940000Y-42545000D02*
X154940000Y-43815000D01*
X153035000Y-97790000D02*
X153035000Y-96520000D01*
X213360000Y-56515000D02*
X213360000Y-46990000D01*
X213360000Y-46990000D02*
X210820000Y-46990000D01*
X210820000Y-46990000D02*
X158115000Y-46990000D01*
X154940000Y-43815000D02*
X158115000Y-46990000D01*
D24*
%TO.N,Net-(BZ1-Pad2)*%
X137160000Y-40640000D02*
X137160000Y-41275000D01*
X137160000Y-41275000D02*
X138430000Y-42545000D01*
X138430000Y-42545000D02*
X144940000Y-42545000D01*
%TO.N,LED*%
X86995000Y-41275000D02*
X90170000Y-41275000D01*
X90805000Y-41910000D02*
X93345000Y-41910000D01*
X90170000Y-41275000D02*
X90805000Y-41910000D01*
%TO.N,-10*%
X93345000Y-46990000D02*
X93345000Y-63500000D01*
X93345000Y-63500000D02*
X107950000Y-78105000D01*
X129485000Y-78105000D02*
X140335000Y-88955000D01*
X107950000Y-78105000D02*
X129485000Y-78105000D01*
X140335000Y-88955000D02*
X146835000Y-88955000D01*
X93345000Y-46990000D02*
X93345000Y-44450000D01*
%TO.N,+10*%
X140335000Y-59745000D02*
X146835000Y-59745000D01*
X95885000Y-40640000D02*
X95885000Y-41910000D01*
X97155000Y-39370000D02*
X95885000Y-40640000D01*
X110490000Y-39370000D02*
X97155000Y-39370000D01*
X116840000Y-45720000D02*
X110490000Y-39370000D01*
X116840000Y-45720000D02*
X121920000Y-45720000D01*
X134620000Y-54030000D02*
X140335000Y-59745000D01*
X134620000Y-46990000D02*
X134620000Y-54030000D01*
X130175000Y-42545000D02*
X134620000Y-46990000D01*
X125095000Y-42545000D02*
X130175000Y-42545000D01*
X121920000Y-45720000D02*
X125095000Y-42545000D01*
%TO.N,StandBy*%
X95885000Y-46990000D02*
X95885000Y-62865000D01*
X95885000Y-62865000D02*
X108585000Y-75565000D01*
X154250000Y-75565000D02*
X167640000Y-88955000D01*
X108585000Y-75565000D02*
X154250000Y-75565000D01*
X167640000Y-88955000D02*
X174140000Y-88955000D01*
X95885000Y-46990000D02*
X95885000Y-44450000D01*
%TO.N,+1*%
X116205000Y-59745000D02*
X122705000Y-59745000D01*
%TO.N,AUTO*%
X98425000Y-46990000D02*
X98425000Y-61595000D01*
X98425000Y-61595000D02*
X109220000Y-72390000D01*
X154995000Y-72390000D02*
X167640000Y-59745000D01*
X109220000Y-72390000D02*
X154995000Y-72390000D01*
X167640000Y-59745000D02*
X174140000Y-59745000D01*
X98425000Y-46990000D02*
X98425000Y-44450000D01*
%TO.N,-1*%
X116205000Y-88955000D02*
X122705000Y-88955000D01*
X101600000Y-40005000D02*
X100965000Y-40640000D01*
X106680000Y-40005000D02*
X101600000Y-40005000D01*
X100965000Y-40640000D02*
X100965000Y-41910000D01*
X107950000Y-41275000D02*
X106680000Y-40005000D01*
X107950000Y-63500000D02*
X107950000Y-41275000D01*
%TO.N,Buzzer*%
X127000000Y-50165000D02*
X127000000Y-44450000D01*
X129540000Y-52705000D02*
X127000000Y-50165000D01*
X129540000Y-64135000D02*
X129540000Y-52705000D01*
X124460000Y-69215000D02*
X129540000Y-64135000D01*
X110490000Y-69215000D02*
X124460000Y-69215000D01*
X100965000Y-59690000D02*
X110490000Y-69215000D01*
X100965000Y-44450000D02*
X100965000Y-59690000D01*
%TO.N,Net-(Q1-Pad2)*%
X139700000Y-44450000D02*
X137160000Y-44450000D01*
X135890000Y-43180000D02*
X135890000Y-39370000D01*
X137160000Y-44450000D02*
X135890000Y-43180000D01*
%TD*%
D25*
%TO.N,GND*%
X96614999Y-38829999D02*
X96591201Y-38858997D01*
X95374003Y-40076196D01*
X95344999Y-40099999D01*
X95295460Y-40160363D01*
X95250026Y-40215724D01*
X95183023Y-40341077D01*
X95179454Y-40347754D01*
X95135997Y-40491015D01*
X95125000Y-40602668D01*
X95125000Y-40602678D01*
X95121927Y-40633875D01*
X94938368Y-40756525D01*
X94806513Y-40888380D01*
X94784502Y-40815820D01*
X94725537Y-40705506D01*
X94646185Y-40608815D01*
X94549494Y-40529463D01*
X94439180Y-40470498D01*
X94319482Y-40434188D01*
X94195000Y-40421928D01*
X92495000Y-40421928D01*
X92370518Y-40434188D01*
X92250820Y-40470498D01*
X92140506Y-40529463D01*
X92043815Y-40608815D01*
X91964463Y-40705506D01*
X91905498Y-40815820D01*
X91869188Y-40935518D01*
X91856928Y-41060000D01*
X91856928Y-41150000D01*
X91119802Y-41150000D01*
X90733803Y-40764002D01*
X90710001Y-40734999D01*
X90594276Y-40640026D01*
X90462247Y-40569454D01*
X90318986Y-40525997D01*
X90207333Y-40515000D01*
X90207322Y-40515000D01*
X90170000Y-40511324D01*
X90132678Y-40515000D01*
X88213043Y-40515000D01*
X88109637Y-40360241D01*
X87909759Y-40160363D01*
X87674727Y-40003320D01*
X87413574Y-39895147D01*
X87136335Y-39840000D01*
X86853665Y-39840000D01*
X86576426Y-39895147D01*
X86315273Y-40003320D01*
X86080241Y-40160363D01*
X85880363Y-40360241D01*
X85723320Y-40595273D01*
X85615147Y-40856426D01*
X85560000Y-41133665D01*
X85560000Y-41416335D01*
X85615147Y-41693574D01*
X85723320Y-41954727D01*
X85880363Y-42189759D01*
X86080241Y-42389637D01*
X86315273Y-42546680D01*
X86576426Y-42654853D01*
X86853665Y-42710000D01*
X87136335Y-42710000D01*
X87413574Y-42654853D01*
X87674727Y-42546680D01*
X87909759Y-42389637D01*
X88109637Y-42189759D01*
X88213043Y-42035000D01*
X89855199Y-42035000D01*
X90241200Y-42421002D01*
X90264999Y-42450001D01*
X90293997Y-42473799D01*
X90380724Y-42544974D01*
X90512753Y-42615546D01*
X90656014Y-42659003D01*
X90805000Y-42673677D01*
X90842333Y-42670000D01*
X91856928Y-42670000D01*
X91856928Y-42760000D01*
X91869188Y-42884482D01*
X91905498Y-43004180D01*
X91964463Y-43114494D01*
X92043815Y-43211185D01*
X92140506Y-43290537D01*
X92250820Y-43349502D01*
X92323380Y-43371513D01*
X92191525Y-43503368D01*
X92029010Y-43746589D01*
X91917068Y-44016842D01*
X91860000Y-44303740D01*
X91860000Y-44596260D01*
X91917068Y-44883158D01*
X92029010Y-45153411D01*
X92191525Y-45396632D01*
X92398368Y-45603475D01*
X92585000Y-45728179D01*
X92585000Y-46952668D01*
X92585001Y-63462667D01*
X92581324Y-63500000D01*
X92585001Y-63537332D01*
X92585001Y-63537333D01*
X92592553Y-63614003D01*
X92595998Y-63648985D01*
X92639454Y-63792246D01*
X92710026Y-63924276D01*
X92760694Y-63986014D01*
X92805000Y-64040001D01*
X92833998Y-64063799D01*
X107386200Y-78616002D01*
X107409999Y-78645001D01*
X107438997Y-78668799D01*
X107525723Y-78739974D01*
X107657753Y-78810546D01*
X107801014Y-78854003D01*
X107912667Y-78865000D01*
X107912676Y-78865000D01*
X107949999Y-78868676D01*
X107987322Y-78865000D01*
X129170199Y-78865000D01*
X138768823Y-88463625D01*
X138762832Y-88478088D01*
X138700000Y-88793967D01*
X138700000Y-89116033D01*
X138762832Y-89431912D01*
X138886082Y-89729463D01*
X139065013Y-89997252D01*
X139292748Y-90224987D01*
X139560537Y-90403918D01*
X139858088Y-90527168D01*
X140173967Y-90590000D01*
X140496033Y-90590000D01*
X140811912Y-90527168D01*
X141109463Y-90403918D01*
X141377252Y-90224987D01*
X141604987Y-89997252D01*
X141783918Y-89729463D01*
X141789909Y-89715000D01*
X145380091Y-89715000D01*
X145386082Y-89729463D01*
X145565013Y-89997252D01*
X145792748Y-90224987D01*
X146060537Y-90403918D01*
X146358088Y-90527168D01*
X146673967Y-90590000D01*
X146996033Y-90590000D01*
X147311912Y-90527168D01*
X147609463Y-90403918D01*
X147877252Y-90224987D01*
X148104987Y-89997252D01*
X148283918Y-89729463D01*
X148407168Y-89431912D01*
X148470000Y-89116033D01*
X148470000Y-88793967D01*
X148407168Y-88478088D01*
X148283918Y-88180537D01*
X148104987Y-87912748D01*
X147877252Y-87685013D01*
X147609463Y-87506082D01*
X147311912Y-87382832D01*
X146996033Y-87320000D01*
X146673967Y-87320000D01*
X146358088Y-87382832D01*
X146060537Y-87506082D01*
X145792748Y-87685013D01*
X145565013Y-87912748D01*
X145386082Y-88180537D01*
X145380091Y-88195000D01*
X141789909Y-88195000D01*
X141783918Y-88180537D01*
X141604987Y-87912748D01*
X141377252Y-87685013D01*
X141109463Y-87506082D01*
X140811912Y-87382832D01*
X140496033Y-87320000D01*
X140173967Y-87320000D01*
X139858088Y-87382832D01*
X139843625Y-87388823D01*
X138045215Y-85590413D01*
X139379192Y-85590413D01*
X139474956Y-85854814D01*
X139764571Y-85995704D01*
X140076108Y-86077384D01*
X140397595Y-86096718D01*
X140716675Y-86052961D01*
X141021088Y-85947795D01*
X141195044Y-85854814D01*
X141290808Y-85590413D01*
X145879192Y-85590413D01*
X145974956Y-85854814D01*
X146264571Y-85995704D01*
X146576108Y-86077384D01*
X146897595Y-86096718D01*
X147216675Y-86052961D01*
X147521088Y-85947795D01*
X147695044Y-85854814D01*
X147790808Y-85590413D01*
X146835000Y-84634605D01*
X145879192Y-85590413D01*
X141290808Y-85590413D01*
X140335000Y-84634605D01*
X139379192Y-85590413D01*
X138045215Y-85590413D01*
X136972397Y-84517595D01*
X138693282Y-84517595D01*
X138737039Y-84836675D01*
X138842205Y-85141088D01*
X138935186Y-85315044D01*
X139199587Y-85410808D01*
X140155395Y-84455000D01*
X140514605Y-84455000D01*
X141470413Y-85410808D01*
X141734814Y-85315044D01*
X141875704Y-85025429D01*
X141957384Y-84713892D01*
X141969189Y-84517595D01*
X145193282Y-84517595D01*
X145237039Y-84836675D01*
X145342205Y-85141088D01*
X145435186Y-85315044D01*
X145699587Y-85410808D01*
X146655395Y-84455000D01*
X147014605Y-84455000D01*
X147970413Y-85410808D01*
X148234814Y-85315044D01*
X148375704Y-85025429D01*
X148457384Y-84713892D01*
X148476718Y-84392405D01*
X148432961Y-84073325D01*
X148327795Y-83768912D01*
X148234814Y-83594956D01*
X147970413Y-83499192D01*
X147014605Y-84455000D01*
X146655395Y-84455000D01*
X145699587Y-83499192D01*
X145435186Y-83594956D01*
X145294296Y-83884571D01*
X145212616Y-84196108D01*
X145193282Y-84517595D01*
X141969189Y-84517595D01*
X141976718Y-84392405D01*
X141932961Y-84073325D01*
X141827795Y-83768912D01*
X141734814Y-83594956D01*
X141470413Y-83499192D01*
X140514605Y-84455000D01*
X140155395Y-84455000D01*
X139199587Y-83499192D01*
X138935186Y-83594956D01*
X138794296Y-83884571D01*
X138712616Y-84196108D01*
X138693282Y-84517595D01*
X136972397Y-84517595D01*
X135774389Y-83319587D01*
X139379192Y-83319587D01*
X140335000Y-84275395D01*
X141290808Y-83319587D01*
X145879192Y-83319587D01*
X146835000Y-84275395D01*
X147790808Y-83319587D01*
X147695044Y-83055186D01*
X147405429Y-82914296D01*
X147093892Y-82832616D01*
X146772405Y-82813282D01*
X146453325Y-82857039D01*
X146148912Y-82962205D01*
X145974956Y-83055186D01*
X145879192Y-83319587D01*
X141290808Y-83319587D01*
X141195044Y-83055186D01*
X140905429Y-82914296D01*
X140593892Y-82832616D01*
X140272405Y-82813282D01*
X139953325Y-82857039D01*
X139648912Y-82962205D01*
X139474956Y-83055186D01*
X139379192Y-83319587D01*
X135774389Y-83319587D01*
X130048804Y-77594003D01*
X130025001Y-77564999D01*
X129909276Y-77470026D01*
X129777247Y-77399454D01*
X129633986Y-77355997D01*
X129522333Y-77345000D01*
X129522322Y-77345000D01*
X129485000Y-77341324D01*
X129447678Y-77345000D01*
X108264802Y-77345000D01*
X94105000Y-63185199D01*
X94105000Y-45728178D01*
X94291632Y-45603475D01*
X94498475Y-45396632D01*
X94615000Y-45222240D01*
X94731525Y-45396632D01*
X94938368Y-45603475D01*
X95125000Y-45728179D01*
X95125000Y-46952668D01*
X95125001Y-62827667D01*
X95121324Y-62865000D01*
X95135998Y-63013985D01*
X95179454Y-63157246D01*
X95250026Y-63289276D01*
X95317362Y-63371324D01*
X95345000Y-63405001D01*
X95373998Y-63428799D01*
X108021200Y-76076002D01*
X108044999Y-76105001D01*
X108160724Y-76199974D01*
X108292753Y-76270546D01*
X108436014Y-76314003D01*
X108547667Y-76325000D01*
X108547676Y-76325000D01*
X108584999Y-76328676D01*
X108622322Y-76325000D01*
X153935199Y-76325000D01*
X166073823Y-88463625D01*
X166067832Y-88478088D01*
X166005000Y-88793967D01*
X166005000Y-89116033D01*
X166067832Y-89431912D01*
X166191082Y-89729463D01*
X166370013Y-89997252D01*
X166597748Y-90224987D01*
X166865537Y-90403918D01*
X167163088Y-90527168D01*
X167478967Y-90590000D01*
X167801033Y-90590000D01*
X168116912Y-90527168D01*
X168414463Y-90403918D01*
X168682252Y-90224987D01*
X168909987Y-89997252D01*
X169088918Y-89729463D01*
X169094909Y-89715000D01*
X172685091Y-89715000D01*
X172691082Y-89729463D01*
X172870013Y-89997252D01*
X173097748Y-90224987D01*
X173365537Y-90403918D01*
X173663088Y-90527168D01*
X173978967Y-90590000D01*
X174301033Y-90590000D01*
X174616912Y-90527168D01*
X174914463Y-90403918D01*
X175182252Y-90224987D01*
X175409987Y-89997252D01*
X175588918Y-89729463D01*
X175712168Y-89431912D01*
X175775000Y-89116033D01*
X175775000Y-88793967D01*
X175712168Y-88478088D01*
X175588918Y-88180537D01*
X175409987Y-87912748D01*
X175182252Y-87685013D01*
X174914463Y-87506082D01*
X174616912Y-87382832D01*
X174301033Y-87320000D01*
X173978967Y-87320000D01*
X173663088Y-87382832D01*
X173365537Y-87506082D01*
X173097748Y-87685013D01*
X172870013Y-87912748D01*
X172691082Y-88180537D01*
X172685091Y-88195000D01*
X169094909Y-88195000D01*
X169088918Y-88180537D01*
X168909987Y-87912748D01*
X168682252Y-87685013D01*
X168414463Y-87506082D01*
X168116912Y-87382832D01*
X167801033Y-87320000D01*
X167478967Y-87320000D01*
X167163088Y-87382832D01*
X167148625Y-87388823D01*
X165350215Y-85590413D01*
X166684192Y-85590413D01*
X166779956Y-85854814D01*
X167069571Y-85995704D01*
X167381108Y-86077384D01*
X167702595Y-86096718D01*
X168021675Y-86052961D01*
X168326088Y-85947795D01*
X168500044Y-85854814D01*
X168595808Y-85590413D01*
X173184192Y-85590413D01*
X173279956Y-85854814D01*
X173569571Y-85995704D01*
X173881108Y-86077384D01*
X174202595Y-86096718D01*
X174521675Y-86052961D01*
X174826088Y-85947795D01*
X175000044Y-85854814D01*
X175095808Y-85590413D01*
X174140000Y-84634605D01*
X173184192Y-85590413D01*
X168595808Y-85590413D01*
X167640000Y-84634605D01*
X166684192Y-85590413D01*
X165350215Y-85590413D01*
X164277397Y-84517595D01*
X165998282Y-84517595D01*
X166042039Y-84836675D01*
X166147205Y-85141088D01*
X166240186Y-85315044D01*
X166504587Y-85410808D01*
X167460395Y-84455000D01*
X167819605Y-84455000D01*
X168775413Y-85410808D01*
X169039814Y-85315044D01*
X169180704Y-85025429D01*
X169262384Y-84713892D01*
X169274189Y-84517595D01*
X172498282Y-84517595D01*
X172542039Y-84836675D01*
X172647205Y-85141088D01*
X172740186Y-85315044D01*
X173004587Y-85410808D01*
X173960395Y-84455000D01*
X174319605Y-84455000D01*
X175275413Y-85410808D01*
X175539814Y-85315044D01*
X175680704Y-85025429D01*
X175762384Y-84713892D01*
X175781718Y-84392405D01*
X175737961Y-84073325D01*
X175632795Y-83768912D01*
X175539814Y-83594956D01*
X175275413Y-83499192D01*
X174319605Y-84455000D01*
X173960395Y-84455000D01*
X173004587Y-83499192D01*
X172740186Y-83594956D01*
X172599296Y-83884571D01*
X172517616Y-84196108D01*
X172498282Y-84517595D01*
X169274189Y-84517595D01*
X169281718Y-84392405D01*
X169237961Y-84073325D01*
X169132795Y-83768912D01*
X169039814Y-83594956D01*
X168775413Y-83499192D01*
X167819605Y-84455000D01*
X167460395Y-84455000D01*
X166504587Y-83499192D01*
X166240186Y-83594956D01*
X166099296Y-83884571D01*
X166017616Y-84196108D01*
X165998282Y-84517595D01*
X164277397Y-84517595D01*
X163079389Y-83319587D01*
X166684192Y-83319587D01*
X167640000Y-84275395D01*
X168595808Y-83319587D01*
X173184192Y-83319587D01*
X174140000Y-84275395D01*
X175095808Y-83319587D01*
X175000044Y-83055186D01*
X174710429Y-82914296D01*
X174398892Y-82832616D01*
X174077405Y-82813282D01*
X173758325Y-82857039D01*
X173453912Y-82962205D01*
X173279956Y-83055186D01*
X173184192Y-83319587D01*
X168595808Y-83319587D01*
X168500044Y-83055186D01*
X168210429Y-82914296D01*
X167898892Y-82832616D01*
X167577405Y-82813282D01*
X167258325Y-82857039D01*
X166953912Y-82962205D01*
X166779956Y-83055186D01*
X166684192Y-83319587D01*
X163079389Y-83319587D01*
X154813804Y-75054003D01*
X154790001Y-75024999D01*
X154674276Y-74930026D01*
X154542247Y-74859454D01*
X154398986Y-74815997D01*
X154287333Y-74805000D01*
X154287322Y-74805000D01*
X154250000Y-74801324D01*
X154212678Y-74805000D01*
X108899802Y-74805000D01*
X96645000Y-62550199D01*
X96645000Y-45728178D01*
X96831632Y-45603475D01*
X97038475Y-45396632D01*
X97155000Y-45222240D01*
X97271525Y-45396632D01*
X97478368Y-45603475D01*
X97665000Y-45728179D01*
X97665000Y-46952668D01*
X97665001Y-61557668D01*
X97661324Y-61595000D01*
X97675998Y-61743985D01*
X97719454Y-61887246D01*
X97790026Y-62019276D01*
X97857362Y-62101324D01*
X97885000Y-62135001D01*
X97913998Y-62158799D01*
X108656205Y-72901008D01*
X108679999Y-72930001D01*
X108708992Y-72953795D01*
X108708996Y-72953799D01*
X108779685Y-73011811D01*
X108795724Y-73024974D01*
X108927753Y-73095546D01*
X109071014Y-73139003D01*
X109182667Y-73150000D01*
X109182676Y-73150000D01*
X109219999Y-73153676D01*
X109257322Y-73150000D01*
X154957678Y-73150000D01*
X154995000Y-73153676D01*
X155032322Y-73150000D01*
X155032333Y-73150000D01*
X155143986Y-73139003D01*
X155287247Y-73095546D01*
X155419276Y-73024974D01*
X155535001Y-72930001D01*
X155558804Y-72900997D01*
X167148625Y-61311177D01*
X167163088Y-61317168D01*
X167478967Y-61380000D01*
X167801033Y-61380000D01*
X168116912Y-61317168D01*
X168414463Y-61193918D01*
X168682252Y-61014987D01*
X168909987Y-60787252D01*
X169088918Y-60519463D01*
X169094909Y-60505000D01*
X172685091Y-60505000D01*
X172691082Y-60519463D01*
X172870013Y-60787252D01*
X173097748Y-61014987D01*
X173365537Y-61193918D01*
X173663088Y-61317168D01*
X173978967Y-61380000D01*
X174301033Y-61380000D01*
X174616912Y-61317168D01*
X174914463Y-61193918D01*
X175182252Y-61014987D01*
X175409987Y-60787252D01*
X175588918Y-60519463D01*
X175712168Y-60221912D01*
X175775000Y-59906033D01*
X175775000Y-59583967D01*
X175712168Y-59268088D01*
X175588918Y-58970537D01*
X175409987Y-58702748D01*
X175182252Y-58475013D01*
X174914463Y-58296082D01*
X174616912Y-58172832D01*
X174301033Y-58110000D01*
X173978967Y-58110000D01*
X173663088Y-58172832D01*
X173365537Y-58296082D01*
X173097748Y-58475013D01*
X172870013Y-58702748D01*
X172691082Y-58970537D01*
X172685091Y-58985000D01*
X169094909Y-58985000D01*
X169088918Y-58970537D01*
X168909987Y-58702748D01*
X168682252Y-58475013D01*
X168414463Y-58296082D01*
X168116912Y-58172832D01*
X167801033Y-58110000D01*
X167478967Y-58110000D01*
X167163088Y-58172832D01*
X166865537Y-58296082D01*
X166597748Y-58475013D01*
X166370013Y-58702748D01*
X166191082Y-58970537D01*
X166067832Y-59268088D01*
X166005000Y-59583967D01*
X166005000Y-59906033D01*
X166067832Y-60221912D01*
X166073823Y-60236375D01*
X154680199Y-71630000D01*
X109534803Y-71630000D01*
X99185000Y-61280199D01*
X99185000Y-45728178D01*
X99371632Y-45603475D01*
X99578475Y-45396632D01*
X99695000Y-45222240D01*
X99811525Y-45396632D01*
X100018368Y-45603475D01*
X100205000Y-45728179D01*
X100205001Y-59652667D01*
X100201324Y-59690000D01*
X100215998Y-59838985D01*
X100259454Y-59982246D01*
X100330026Y-60114276D01*
X100375164Y-60169276D01*
X100425000Y-60230001D01*
X100453998Y-60253799D01*
X109926201Y-69726003D01*
X109949999Y-69755001D01*
X110065724Y-69849974D01*
X110197753Y-69920546D01*
X110341014Y-69964003D01*
X110452667Y-69975000D01*
X110452676Y-69975000D01*
X110489999Y-69978676D01*
X110527322Y-69975000D01*
X124422678Y-69975000D01*
X124460000Y-69978676D01*
X124497322Y-69975000D01*
X124497333Y-69975000D01*
X124608986Y-69964003D01*
X124752247Y-69920546D01*
X124884276Y-69849974D01*
X125000001Y-69755001D01*
X125023804Y-69725997D01*
X130051004Y-64698798D01*
X130080001Y-64675001D01*
X130106332Y-64642917D01*
X130174974Y-64559277D01*
X130245546Y-64427247D01*
X130248592Y-64417205D01*
X130289003Y-64283986D01*
X130300000Y-64172333D01*
X130300000Y-64172323D01*
X130303676Y-64135000D01*
X130300000Y-64097677D01*
X130300000Y-52742322D01*
X130303676Y-52704999D01*
X130300000Y-52667676D01*
X130300000Y-52667667D01*
X130289003Y-52556014D01*
X130245546Y-52412753D01*
X130174974Y-52280724D01*
X130161811Y-52264685D01*
X130103799Y-52193996D01*
X130103795Y-52193992D01*
X130080001Y-52164999D01*
X130051008Y-52141205D01*
X127760000Y-49850199D01*
X127760000Y-46149240D01*
X127933727Y-46077280D01*
X128168759Y-45920237D01*
X128368637Y-45720359D01*
X128525680Y-45485327D01*
X128633853Y-45224174D01*
X128689000Y-44946935D01*
X128689000Y-44664265D01*
X128633853Y-44387026D01*
X128525680Y-44125873D01*
X128368637Y-43890841D01*
X128168759Y-43690963D01*
X127933727Y-43533920D01*
X127672574Y-43425747D01*
X127395335Y-43370600D01*
X127112665Y-43370600D01*
X126835426Y-43425747D01*
X126574273Y-43533920D01*
X126339241Y-43690963D01*
X126139363Y-43890841D01*
X125982320Y-44125873D01*
X125874147Y-44387026D01*
X125819000Y-44664265D01*
X125819000Y-44946935D01*
X125874147Y-45224174D01*
X125982320Y-45485327D01*
X126139363Y-45720359D01*
X126240001Y-45820997D01*
X126240000Y-50127677D01*
X126236324Y-50165000D01*
X126240000Y-50202322D01*
X126240000Y-50202332D01*
X126250997Y-50313985D01*
X126294454Y-50457246D01*
X126365026Y-50589276D01*
X126404871Y-50637826D01*
X126459999Y-50705001D01*
X126489003Y-50728804D01*
X128780001Y-53019804D01*
X128780000Y-63820198D01*
X124145199Y-68455000D01*
X110804802Y-68455000D01*
X101725000Y-59375199D01*
X101725000Y-45728178D01*
X101911632Y-45603475D01*
X102118475Y-45396632D01*
X102240195Y-45214466D01*
X102309822Y-45331355D01*
X102504731Y-45547588D01*
X102738080Y-45721641D01*
X103000901Y-45846825D01*
X103148110Y-45891476D01*
X103378000Y-45770155D01*
X103378000Y-44577000D01*
X103632000Y-44577000D01*
X103632000Y-45770155D01*
X103861890Y-45891476D01*
X104009099Y-45846825D01*
X104271920Y-45721641D01*
X104505269Y-45547588D01*
X104700178Y-45331355D01*
X104775000Y-45205745D01*
X104849822Y-45331355D01*
X105044731Y-45547588D01*
X105278080Y-45721641D01*
X105540901Y-45846825D01*
X105688110Y-45891476D01*
X105918000Y-45770155D01*
X105918000Y-44577000D01*
X103632000Y-44577000D01*
X103378000Y-44577000D01*
X103358000Y-44577000D01*
X103358000Y-44323000D01*
X103378000Y-44323000D01*
X103378000Y-44303000D01*
X103632000Y-44303000D01*
X103632000Y-44323000D01*
X105918000Y-44323000D01*
X105918000Y-44303000D01*
X106172000Y-44303000D01*
X106172000Y-44323000D01*
X106192000Y-44323000D01*
X106192000Y-44577000D01*
X106172000Y-44577000D01*
X106172000Y-45770155D01*
X106401890Y-45891476D01*
X106549099Y-45846825D01*
X106811920Y-45721641D01*
X107045269Y-45547588D01*
X107190001Y-45387022D01*
X107190000Y-62796289D01*
X107146063Y-62840226D01*
X107032795Y-63009744D01*
X106954774Y-63198102D01*
X106915000Y-63398061D01*
X106915000Y-63601939D01*
X106954774Y-63801898D01*
X107032795Y-63990256D01*
X107146063Y-64159774D01*
X107290226Y-64303937D01*
X107459744Y-64417205D01*
X107648102Y-64495226D01*
X107848061Y-64535000D01*
X108051939Y-64535000D01*
X108251898Y-64495226D01*
X108440256Y-64417205D01*
X108609774Y-64303937D01*
X108753937Y-64159774D01*
X108867205Y-63990256D01*
X108945226Y-63801898D01*
X108985000Y-63601939D01*
X108985000Y-63398061D01*
X108945226Y-63198102D01*
X108867205Y-63009744D01*
X108753937Y-62840226D01*
X108710000Y-62796289D01*
X108710000Y-59583967D01*
X114570000Y-59583967D01*
X114570000Y-59906033D01*
X114632832Y-60221912D01*
X114756082Y-60519463D01*
X114935013Y-60787252D01*
X115162748Y-61014987D01*
X115430537Y-61193918D01*
X115728088Y-61317168D01*
X116043967Y-61380000D01*
X116366033Y-61380000D01*
X116681912Y-61317168D01*
X116979463Y-61193918D01*
X117247252Y-61014987D01*
X117474987Y-60787252D01*
X117653918Y-60519463D01*
X117659909Y-60505000D01*
X121250091Y-60505000D01*
X121256082Y-60519463D01*
X121435013Y-60787252D01*
X121662748Y-61014987D01*
X121930537Y-61193918D01*
X122228088Y-61317168D01*
X122543967Y-61380000D01*
X122866033Y-61380000D01*
X123181912Y-61317168D01*
X123479463Y-61193918D01*
X123747252Y-61014987D01*
X123974987Y-60787252D01*
X124153918Y-60519463D01*
X124277168Y-60221912D01*
X124340000Y-59906033D01*
X124340000Y-59583967D01*
X124277168Y-59268088D01*
X124153918Y-58970537D01*
X123974987Y-58702748D01*
X123747252Y-58475013D01*
X123479463Y-58296082D01*
X123181912Y-58172832D01*
X122866033Y-58110000D01*
X122543967Y-58110000D01*
X122228088Y-58172832D01*
X121930537Y-58296082D01*
X121662748Y-58475013D01*
X121435013Y-58702748D01*
X121256082Y-58970537D01*
X121250091Y-58985000D01*
X117659909Y-58985000D01*
X117653918Y-58970537D01*
X117474987Y-58702748D01*
X117247252Y-58475013D01*
X116979463Y-58296082D01*
X116681912Y-58172832D01*
X116366033Y-58110000D01*
X116043967Y-58110000D01*
X115728088Y-58172832D01*
X115430537Y-58296082D01*
X115162748Y-58475013D01*
X114935013Y-58702748D01*
X114756082Y-58970537D01*
X114632832Y-59268088D01*
X114570000Y-59583967D01*
X108710000Y-59583967D01*
X108710000Y-56380413D01*
X115249192Y-56380413D01*
X115344956Y-56644814D01*
X115634571Y-56785704D01*
X115946108Y-56867384D01*
X116267595Y-56886718D01*
X116586675Y-56842961D01*
X116891088Y-56737795D01*
X117065044Y-56644814D01*
X117160808Y-56380413D01*
X121749192Y-56380413D01*
X121844956Y-56644814D01*
X122134571Y-56785704D01*
X122446108Y-56867384D01*
X122767595Y-56886718D01*
X123086675Y-56842961D01*
X123391088Y-56737795D01*
X123565044Y-56644814D01*
X123660808Y-56380413D01*
X122705000Y-55424605D01*
X121749192Y-56380413D01*
X117160808Y-56380413D01*
X116205000Y-55424605D01*
X115249192Y-56380413D01*
X108710000Y-56380413D01*
X108710000Y-55307595D01*
X114563282Y-55307595D01*
X114607039Y-55626675D01*
X114712205Y-55931088D01*
X114805186Y-56105044D01*
X115069587Y-56200808D01*
X116025395Y-55245000D01*
X116384605Y-55245000D01*
X117340413Y-56200808D01*
X117604814Y-56105044D01*
X117745704Y-55815429D01*
X117827384Y-55503892D01*
X117839189Y-55307595D01*
X121063282Y-55307595D01*
X121107039Y-55626675D01*
X121212205Y-55931088D01*
X121305186Y-56105044D01*
X121569587Y-56200808D01*
X122525395Y-55245000D01*
X122884605Y-55245000D01*
X123840413Y-56200808D01*
X124104814Y-56105044D01*
X124245704Y-55815429D01*
X124327384Y-55503892D01*
X124346718Y-55182405D01*
X124302961Y-54863325D01*
X124197795Y-54558912D01*
X124104814Y-54384956D01*
X123840413Y-54289192D01*
X122884605Y-55245000D01*
X122525395Y-55245000D01*
X121569587Y-54289192D01*
X121305186Y-54384956D01*
X121164296Y-54674571D01*
X121082616Y-54986108D01*
X121063282Y-55307595D01*
X117839189Y-55307595D01*
X117846718Y-55182405D01*
X117802961Y-54863325D01*
X117697795Y-54558912D01*
X117604814Y-54384956D01*
X117340413Y-54289192D01*
X116384605Y-55245000D01*
X116025395Y-55245000D01*
X115069587Y-54289192D01*
X114805186Y-54384956D01*
X114664296Y-54674571D01*
X114582616Y-54986108D01*
X114563282Y-55307595D01*
X108710000Y-55307595D01*
X108710000Y-54109587D01*
X115249192Y-54109587D01*
X116205000Y-55065395D01*
X117160808Y-54109587D01*
X121749192Y-54109587D01*
X122705000Y-55065395D01*
X123660808Y-54109587D01*
X123565044Y-53845186D01*
X123275429Y-53704296D01*
X122963892Y-53622616D01*
X122642405Y-53603282D01*
X122323325Y-53647039D01*
X122018912Y-53752205D01*
X121844956Y-53845186D01*
X121749192Y-54109587D01*
X117160808Y-54109587D01*
X117065044Y-53845186D01*
X116775429Y-53704296D01*
X116463892Y-53622616D01*
X116142405Y-53603282D01*
X115823325Y-53647039D01*
X115518912Y-53752205D01*
X115344956Y-53845186D01*
X115249192Y-54109587D01*
X108710000Y-54109587D01*
X108710000Y-41312322D01*
X108713676Y-41274999D01*
X108710000Y-41237676D01*
X108710000Y-41237667D01*
X108699003Y-41126014D01*
X108655546Y-40982753D01*
X108584974Y-40850724D01*
X108490001Y-40734999D01*
X108461003Y-40711201D01*
X107879802Y-40130000D01*
X110175199Y-40130000D01*
X116276201Y-46231003D01*
X116299999Y-46260001D01*
X116328997Y-46283799D01*
X116415723Y-46354974D01*
X116547753Y-46425546D01*
X116691014Y-46469003D01*
X116802667Y-46480000D01*
X116802676Y-46480000D01*
X116839999Y-46483676D01*
X116877322Y-46480000D01*
X121882678Y-46480000D01*
X121920000Y-46483676D01*
X121957322Y-46480000D01*
X121957333Y-46480000D01*
X122068986Y-46469003D01*
X122212247Y-46425546D01*
X122344276Y-46354974D01*
X122460001Y-46260001D01*
X122483804Y-46230997D01*
X125409802Y-43305000D01*
X129860199Y-43305000D01*
X133860000Y-47304802D01*
X133860001Y-53992668D01*
X133856324Y-54030000D01*
X133870998Y-54178985D01*
X133914454Y-54322246D01*
X133985026Y-54454276D01*
X134056201Y-54541002D01*
X134080000Y-54570001D01*
X134108998Y-54593799D01*
X138768823Y-59253625D01*
X138762832Y-59268088D01*
X138700000Y-59583967D01*
X138700000Y-59906033D01*
X138762832Y-60221912D01*
X138886082Y-60519463D01*
X139065013Y-60787252D01*
X139292748Y-61014987D01*
X139560537Y-61193918D01*
X139858088Y-61317168D01*
X140173967Y-61380000D01*
X140496033Y-61380000D01*
X140811912Y-61317168D01*
X141109463Y-61193918D01*
X141377252Y-61014987D01*
X141604987Y-60787252D01*
X141783918Y-60519463D01*
X141789909Y-60505000D01*
X145380091Y-60505000D01*
X145386082Y-60519463D01*
X145565013Y-60787252D01*
X145792748Y-61014987D01*
X146060537Y-61193918D01*
X146358088Y-61317168D01*
X146673967Y-61380000D01*
X146996033Y-61380000D01*
X147311912Y-61317168D01*
X147609463Y-61193918D01*
X147877252Y-61014987D01*
X148104987Y-60787252D01*
X148283918Y-60519463D01*
X148407168Y-60221912D01*
X148470000Y-59906033D01*
X148470000Y-59583967D01*
X148407168Y-59268088D01*
X148283918Y-58970537D01*
X148104987Y-58702748D01*
X147877252Y-58475013D01*
X147609463Y-58296082D01*
X147311912Y-58172832D01*
X146996033Y-58110000D01*
X146673967Y-58110000D01*
X146358088Y-58172832D01*
X146060537Y-58296082D01*
X145792748Y-58475013D01*
X145565013Y-58702748D01*
X145386082Y-58970537D01*
X145380091Y-58985000D01*
X141789909Y-58985000D01*
X141783918Y-58970537D01*
X141604987Y-58702748D01*
X141377252Y-58475013D01*
X141109463Y-58296082D01*
X140811912Y-58172832D01*
X140496033Y-58110000D01*
X140173967Y-58110000D01*
X139858088Y-58172832D01*
X139843625Y-58178823D01*
X138045215Y-56380413D01*
X139379192Y-56380413D01*
X139474956Y-56644814D01*
X139764571Y-56785704D01*
X140076108Y-56867384D01*
X140397595Y-56886718D01*
X140716675Y-56842961D01*
X141021088Y-56737795D01*
X141195044Y-56644814D01*
X141290808Y-56380413D01*
X145879192Y-56380413D01*
X145974956Y-56644814D01*
X146264571Y-56785704D01*
X146576108Y-56867384D01*
X146897595Y-56886718D01*
X147216675Y-56842961D01*
X147521088Y-56737795D01*
X147695044Y-56644814D01*
X147790808Y-56380413D01*
X166684192Y-56380413D01*
X166779956Y-56644814D01*
X167069571Y-56785704D01*
X167381108Y-56867384D01*
X167702595Y-56886718D01*
X168021675Y-56842961D01*
X168326088Y-56737795D01*
X168500044Y-56644814D01*
X168595808Y-56380413D01*
X173184192Y-56380413D01*
X173279956Y-56644814D01*
X173569571Y-56785704D01*
X173881108Y-56867384D01*
X174202595Y-56886718D01*
X174521675Y-56842961D01*
X174826088Y-56737795D01*
X175000044Y-56644814D01*
X175095808Y-56380413D01*
X174140000Y-55424605D01*
X173184192Y-56380413D01*
X168595808Y-56380413D01*
X167640000Y-55424605D01*
X166684192Y-56380413D01*
X147790808Y-56380413D01*
X146835000Y-55424605D01*
X145879192Y-56380413D01*
X141290808Y-56380413D01*
X140335000Y-55424605D01*
X139379192Y-56380413D01*
X138045215Y-56380413D01*
X136972397Y-55307595D01*
X138693282Y-55307595D01*
X138737039Y-55626675D01*
X138842205Y-55931088D01*
X138935186Y-56105044D01*
X139199587Y-56200808D01*
X140155395Y-55245000D01*
X140514605Y-55245000D01*
X141470413Y-56200808D01*
X141734814Y-56105044D01*
X141875704Y-55815429D01*
X141957384Y-55503892D01*
X141969189Y-55307595D01*
X145193282Y-55307595D01*
X145237039Y-55626675D01*
X145342205Y-55931088D01*
X145435186Y-56105044D01*
X145699587Y-56200808D01*
X146655395Y-55245000D01*
X147014605Y-55245000D01*
X147970413Y-56200808D01*
X148234814Y-56105044D01*
X148375704Y-55815429D01*
X148457384Y-55503892D01*
X148469189Y-55307595D01*
X165998282Y-55307595D01*
X166042039Y-55626675D01*
X166147205Y-55931088D01*
X166240186Y-56105044D01*
X166504587Y-56200808D01*
X167460395Y-55245000D01*
X167819605Y-55245000D01*
X168775413Y-56200808D01*
X169039814Y-56105044D01*
X169180704Y-55815429D01*
X169262384Y-55503892D01*
X169274189Y-55307595D01*
X172498282Y-55307595D01*
X172542039Y-55626675D01*
X172647205Y-55931088D01*
X172740186Y-56105044D01*
X173004587Y-56200808D01*
X173960395Y-55245000D01*
X174319605Y-55245000D01*
X175275413Y-56200808D01*
X175539814Y-56105044D01*
X175680704Y-55815429D01*
X175762384Y-55503892D01*
X175781718Y-55182405D01*
X175737961Y-54863325D01*
X175632795Y-54558912D01*
X175539814Y-54384956D01*
X175275413Y-54289192D01*
X174319605Y-55245000D01*
X173960395Y-55245000D01*
X173004587Y-54289192D01*
X172740186Y-54384956D01*
X172599296Y-54674571D01*
X172517616Y-54986108D01*
X172498282Y-55307595D01*
X169274189Y-55307595D01*
X169281718Y-55182405D01*
X169237961Y-54863325D01*
X169132795Y-54558912D01*
X169039814Y-54384956D01*
X168775413Y-54289192D01*
X167819605Y-55245000D01*
X167460395Y-55245000D01*
X166504587Y-54289192D01*
X166240186Y-54384956D01*
X166099296Y-54674571D01*
X166017616Y-54986108D01*
X165998282Y-55307595D01*
X148469189Y-55307595D01*
X148476718Y-55182405D01*
X148432961Y-54863325D01*
X148327795Y-54558912D01*
X148234814Y-54384956D01*
X147970413Y-54289192D01*
X147014605Y-55245000D01*
X146655395Y-55245000D01*
X145699587Y-54289192D01*
X145435186Y-54384956D01*
X145294296Y-54674571D01*
X145212616Y-54986108D01*
X145193282Y-55307595D01*
X141969189Y-55307595D01*
X141976718Y-55182405D01*
X141932961Y-54863325D01*
X141827795Y-54558912D01*
X141734814Y-54384956D01*
X141470413Y-54289192D01*
X140514605Y-55245000D01*
X140155395Y-55245000D01*
X139199587Y-54289192D01*
X138935186Y-54384956D01*
X138794296Y-54674571D01*
X138712616Y-54986108D01*
X138693282Y-55307595D01*
X136972397Y-55307595D01*
X135774389Y-54109587D01*
X139379192Y-54109587D01*
X140335000Y-55065395D01*
X141290808Y-54109587D01*
X145879192Y-54109587D01*
X146835000Y-55065395D01*
X147790808Y-54109587D01*
X166684192Y-54109587D01*
X167640000Y-55065395D01*
X168595808Y-54109587D01*
X173184192Y-54109587D01*
X174140000Y-55065395D01*
X175095808Y-54109587D01*
X175000044Y-53845186D01*
X174710429Y-53704296D01*
X174398892Y-53622616D01*
X174077405Y-53603282D01*
X173758325Y-53647039D01*
X173453912Y-53752205D01*
X173279956Y-53845186D01*
X173184192Y-54109587D01*
X168595808Y-54109587D01*
X168500044Y-53845186D01*
X168210429Y-53704296D01*
X167898892Y-53622616D01*
X167577405Y-53603282D01*
X167258325Y-53647039D01*
X166953912Y-53752205D01*
X166779956Y-53845186D01*
X166684192Y-54109587D01*
X147790808Y-54109587D01*
X147695044Y-53845186D01*
X147405429Y-53704296D01*
X147093892Y-53622616D01*
X146772405Y-53603282D01*
X146453325Y-53647039D01*
X146148912Y-53752205D01*
X145974956Y-53845186D01*
X145879192Y-54109587D01*
X141290808Y-54109587D01*
X141195044Y-53845186D01*
X140905429Y-53704296D01*
X140593892Y-53622616D01*
X140272405Y-53603282D01*
X139953325Y-53647039D01*
X139648912Y-53752205D01*
X139474956Y-53845186D01*
X139379192Y-54109587D01*
X135774389Y-54109587D01*
X135380000Y-53715199D01*
X135380000Y-47027322D01*
X135383676Y-46989999D01*
X135380000Y-46952676D01*
X135380000Y-46952667D01*
X135369003Y-46841014D01*
X135325546Y-46697753D01*
X135254974Y-46565724D01*
X135160001Y-46449999D01*
X135131004Y-46426202D01*
X130738804Y-42034003D01*
X130715001Y-42004999D01*
X130599276Y-41910026D01*
X130467247Y-41839454D01*
X130323986Y-41795997D01*
X130212333Y-41785000D01*
X130212322Y-41785000D01*
X130175000Y-41781324D01*
X130137678Y-41785000D01*
X125132322Y-41785000D01*
X125094999Y-41781324D01*
X125057676Y-41785000D01*
X125057667Y-41785000D01*
X124946014Y-41795997D01*
X124804912Y-41838799D01*
X124802753Y-41839454D01*
X124670723Y-41910026D01*
X124596818Y-41970679D01*
X124554999Y-42004999D01*
X124531201Y-42033997D01*
X121605199Y-44960000D01*
X117154802Y-44960000D01*
X113234900Y-41040098D01*
X117249000Y-41040098D01*
X117249000Y-41509902D01*
X117340654Y-41970679D01*
X117520440Y-42404721D01*
X117781450Y-42795349D01*
X118113651Y-43127550D01*
X118504279Y-43388560D01*
X118938321Y-43568346D01*
X119399098Y-43660000D01*
X119868902Y-43660000D01*
X120329679Y-43568346D01*
X120763721Y-43388560D01*
X121154349Y-43127550D01*
X121486550Y-42795349D01*
X121747560Y-42404721D01*
X121927346Y-41970679D01*
X122019000Y-41509902D01*
X122019000Y-41040098D01*
X121954624Y-40716455D01*
X133331048Y-40716455D01*
X133370730Y-40966449D01*
X133458422Y-41203896D01*
X133505799Y-41292534D01*
X133734473Y-41345922D01*
X134440395Y-40640000D01*
X133734473Y-39934078D01*
X133505799Y-39987466D01*
X133399905Y-40217374D01*
X133340898Y-40463524D01*
X133331048Y-40716455D01*
X121954624Y-40716455D01*
X121927346Y-40579321D01*
X121747560Y-40145279D01*
X121486550Y-39754651D01*
X121154349Y-39422450D01*
X120763721Y-39161440D01*
X120329679Y-38981654D01*
X119868902Y-38890000D01*
X119399098Y-38890000D01*
X118938321Y-38981654D01*
X118504279Y-39161440D01*
X118113651Y-39422450D01*
X117781450Y-39754651D01*
X117520440Y-40145279D01*
X117340654Y-40579321D01*
X117249000Y-41040098D01*
X113234900Y-41040098D01*
X111053804Y-38859003D01*
X111030001Y-38829999D01*
X110944707Y-38760000D01*
X134752132Y-38760000D01*
X134751247Y-38761324D01*
X134654381Y-38995179D01*
X134605000Y-39243439D01*
X134605000Y-39353441D01*
X134543545Y-39351048D01*
X134293551Y-39390730D01*
X134056104Y-39478422D01*
X133967466Y-39525799D01*
X133914078Y-39754473D01*
X134620000Y-40460395D01*
X134634143Y-40446253D01*
X134813748Y-40625858D01*
X134799605Y-40640000D01*
X134813748Y-40654143D01*
X134634143Y-40833748D01*
X134620000Y-40819605D01*
X133914078Y-41525527D01*
X133967466Y-41754201D01*
X134197374Y-41860095D01*
X134443524Y-41919102D01*
X134696455Y-41928952D01*
X134946449Y-41889270D01*
X135130000Y-41821482D01*
X135130000Y-43142677D01*
X135126324Y-43180000D01*
X135130000Y-43217322D01*
X135130000Y-43217332D01*
X135140997Y-43328985D01*
X135173991Y-43437753D01*
X135184454Y-43472246D01*
X135255026Y-43604276D01*
X135277110Y-43631185D01*
X135349999Y-43720001D01*
X135379003Y-43743804D01*
X136596201Y-44961003D01*
X136619999Y-44990001D01*
X136735724Y-45084974D01*
X136867753Y-45155546D01*
X137011014Y-45199003D01*
X137122667Y-45210000D01*
X137122676Y-45210000D01*
X137159999Y-45213676D01*
X137197322Y-45210000D01*
X138571328Y-45210000D01*
X138574147Y-45224174D01*
X138682320Y-45485327D01*
X138839363Y-45720359D01*
X139039241Y-45920237D01*
X139274273Y-46077280D01*
X139535426Y-46185453D01*
X139812665Y-46240600D01*
X140095335Y-46240600D01*
X140372574Y-46185453D01*
X140633727Y-46077280D01*
X140868759Y-45920237D01*
X141068637Y-45720359D01*
X141225680Y-45485327D01*
X141333853Y-45224174D01*
X141389000Y-44946935D01*
X141389000Y-44664265D01*
X141333853Y-44387026D01*
X141225680Y-44125873D01*
X141068637Y-43890841D01*
X140868759Y-43690963D01*
X140633727Y-43533920D01*
X140372574Y-43425747D01*
X140095335Y-43370600D01*
X139812665Y-43370600D01*
X139535426Y-43425747D01*
X139274273Y-43533920D01*
X139040682Y-43690000D01*
X137474802Y-43690000D01*
X136650000Y-42865199D01*
X136650000Y-41928072D01*
X136738271Y-41928072D01*
X137866200Y-43056002D01*
X137889999Y-43085001D01*
X138005724Y-43179974D01*
X138137753Y-43250546D01*
X138281014Y-43294003D01*
X138392667Y-43305000D01*
X138392676Y-43305000D01*
X138429999Y-43308676D01*
X138467322Y-43305000D01*
X143485091Y-43305000D01*
X143491082Y-43319463D01*
X143670013Y-43587252D01*
X143897748Y-43814987D01*
X144165537Y-43993918D01*
X144463088Y-44117168D01*
X144778967Y-44180000D01*
X145101033Y-44180000D01*
X145416912Y-44117168D01*
X145714463Y-43993918D01*
X145982252Y-43814987D01*
X146209987Y-43587252D01*
X146388918Y-43319463D01*
X146512168Y-43021912D01*
X146575000Y-42706033D01*
X146575000Y-42383967D01*
X146512168Y-42068088D01*
X146388918Y-41770537D01*
X146209987Y-41502748D01*
X145982252Y-41275013D01*
X145714463Y-41096082D01*
X145416912Y-40972832D01*
X145101033Y-40910000D01*
X144778967Y-40910000D01*
X144463088Y-40972832D01*
X144165537Y-41096082D01*
X143897748Y-41275013D01*
X143670013Y-41502748D01*
X143491082Y-41770537D01*
X143485091Y-41785000D01*
X138744802Y-41785000D01*
X138421492Y-41461690D01*
X138435812Y-41414482D01*
X138448072Y-41290000D01*
X138448072Y-39990000D01*
X138435812Y-39865518D01*
X138399502Y-39745820D01*
X138340537Y-39635506D01*
X138261185Y-39538815D01*
X138164494Y-39459463D01*
X138054180Y-39400498D01*
X137934482Y-39364188D01*
X137810000Y-39351928D01*
X137175000Y-39351928D01*
X137175000Y-39243439D01*
X137125619Y-38995179D01*
X137028753Y-38761324D01*
X137027868Y-38760000D01*
X193699903Y-38760000D01*
X193730214Y-39145142D01*
X193746415Y-39247433D01*
X193979027Y-40216329D01*
X193979027Y-40216332D01*
X194011031Y-40314829D01*
X194392349Y-41235410D01*
X194392349Y-41235411D01*
X194439366Y-41327689D01*
X194959999Y-42177284D01*
X194960000Y-42177285D01*
X195020874Y-42261072D01*
X195668004Y-43018764D01*
X195741236Y-43091996D01*
X196498927Y-43739125D01*
X196498928Y-43739126D01*
X196582715Y-43800001D01*
X197432311Y-44320634D01*
X197524590Y-44367652D01*
X197524597Y-44367654D01*
X198445171Y-44748969D01*
X198543668Y-44780973D01*
X199512567Y-45013585D01*
X199614858Y-45029786D01*
X200608217Y-45107965D01*
X200711785Y-45107965D01*
X201705142Y-45029786D01*
X201807433Y-45013585D01*
X202776329Y-44780973D01*
X202776332Y-44780973D01*
X202874829Y-44748969D01*
X203795411Y-44367651D01*
X203887689Y-44320634D01*
X204737285Y-43800000D01*
X204748248Y-43792035D01*
X204821072Y-43739126D01*
X205475724Y-43180000D01*
X208911928Y-43180000D01*
X208924188Y-43304482D01*
X208960498Y-43424180D01*
X209019463Y-43534494D01*
X209098815Y-43631185D01*
X209195506Y-43710537D01*
X209305820Y-43769502D01*
X209425518Y-43805812D01*
X209550000Y-43818072D01*
X210534250Y-43815000D01*
X210693000Y-43656250D01*
X210693000Y-42037000D01*
X210947000Y-42037000D01*
X210947000Y-43656250D01*
X211105750Y-43815000D01*
X212090000Y-43818072D01*
X213074250Y-43815000D01*
X213233000Y-43656250D01*
X213233000Y-42037000D01*
X213487000Y-42037000D01*
X213487000Y-43656250D01*
X213645750Y-43815000D01*
X214630000Y-43818072D01*
X214754482Y-43805812D01*
X214874180Y-43769502D01*
X214984494Y-43710537D01*
X215081185Y-43631185D01*
X215160537Y-43534494D01*
X215219502Y-43424180D01*
X215255812Y-43304482D01*
X215268072Y-43180000D01*
X215265000Y-42195750D01*
X215106250Y-42037000D01*
X213487000Y-42037000D01*
X213233000Y-42037000D01*
X210947000Y-42037000D01*
X210693000Y-42037000D01*
X209073750Y-42037000D01*
X208915000Y-42195750D01*
X208911928Y-43180000D01*
X205475724Y-43180000D01*
X205578764Y-43091996D01*
X205651996Y-43018764D01*
X206299126Y-42261072D01*
X206305170Y-42252753D01*
X206360001Y-42177285D01*
X206880634Y-41327689D01*
X206927652Y-41235410D01*
X206927654Y-41235403D01*
X207174278Y-40640000D01*
X208911928Y-40640000D01*
X208915000Y-41624250D01*
X209073750Y-41783000D01*
X210693000Y-41783000D01*
X210693000Y-40163750D01*
X210947000Y-40163750D01*
X210947000Y-41783000D01*
X213233000Y-41783000D01*
X213233000Y-40163750D01*
X213487000Y-40163750D01*
X213487000Y-41783000D01*
X215106250Y-41783000D01*
X215265000Y-41624250D01*
X215268072Y-40640000D01*
X215255812Y-40515518D01*
X215219502Y-40395820D01*
X215160537Y-40285506D01*
X215081185Y-40188815D01*
X214984494Y-40109463D01*
X214874180Y-40050498D01*
X214754482Y-40014188D01*
X214630000Y-40001928D01*
X213645750Y-40005000D01*
X213487000Y-40163750D01*
X213233000Y-40163750D01*
X213074250Y-40005000D01*
X212090000Y-40001928D01*
X211105750Y-40005000D01*
X210947000Y-40163750D01*
X210693000Y-40163750D01*
X210534250Y-40005000D01*
X209550000Y-40001928D01*
X209425518Y-40014188D01*
X209305820Y-40050498D01*
X209195506Y-40109463D01*
X209098815Y-40188815D01*
X209019463Y-40285506D01*
X208960498Y-40395820D01*
X208924188Y-40515518D01*
X208911928Y-40640000D01*
X207174278Y-40640000D01*
X207308969Y-40314829D01*
X207340973Y-40216332D01*
X207340973Y-40216331D01*
X207573585Y-39247433D01*
X207589786Y-39145142D01*
X207620097Y-38760000D01*
X219050000Y-38760000D01*
X219050001Y-104750000D01*
X207620097Y-104750000D01*
X207589786Y-104364858D01*
X207573585Y-104262567D01*
X207340973Y-103293668D01*
X207308969Y-103195171D01*
X206927654Y-102274597D01*
X206927652Y-102274590D01*
X206880634Y-102182311D01*
X206360001Y-101332715D01*
X206299126Y-101248928D01*
X205651996Y-100491236D01*
X205578764Y-100418004D01*
X204821072Y-99770874D01*
X204737285Y-99710000D01*
X204737283Y-99709999D01*
X203887689Y-99189366D01*
X203795411Y-99142349D01*
X202874829Y-98761031D01*
X202776332Y-98729027D01*
X202776329Y-98729027D01*
X202634597Y-98695000D01*
X208546928Y-98695000D01*
X208546928Y-100695000D01*
X208559188Y-100819482D01*
X208595498Y-100939180D01*
X208654463Y-101049494D01*
X208733815Y-101146185D01*
X208830506Y-101225537D01*
X208940820Y-101284502D01*
X209060518Y-101320812D01*
X209185000Y-101333072D01*
X211185000Y-101333072D01*
X211309482Y-101320812D01*
X211429180Y-101284502D01*
X211539494Y-101225537D01*
X211636185Y-101146185D01*
X211715537Y-101049494D01*
X211774502Y-100939180D01*
X211807496Y-100830413D01*
X214229192Y-100830413D01*
X214324956Y-101094814D01*
X214614571Y-101235704D01*
X214926108Y-101317384D01*
X215247595Y-101336718D01*
X215566675Y-101292961D01*
X215871088Y-101187795D01*
X216045044Y-101094814D01*
X216140808Y-100830413D01*
X215185000Y-99874605D01*
X214229192Y-100830413D01*
X211807496Y-100830413D01*
X211810812Y-100819482D01*
X211823072Y-100695000D01*
X211823072Y-99757595D01*
X213543282Y-99757595D01*
X213587039Y-100076675D01*
X213692205Y-100381088D01*
X213785186Y-100555044D01*
X214049587Y-100650808D01*
X215005395Y-99695000D01*
X215364605Y-99695000D01*
X216320413Y-100650808D01*
X216584814Y-100555044D01*
X216725704Y-100265429D01*
X216807384Y-99953892D01*
X216826718Y-99632405D01*
X216782961Y-99313325D01*
X216677795Y-99008912D01*
X216584814Y-98834956D01*
X216320413Y-98739192D01*
X215364605Y-99695000D01*
X215005395Y-99695000D01*
X214049587Y-98739192D01*
X213785186Y-98834956D01*
X213644296Y-99124571D01*
X213562616Y-99436108D01*
X213543282Y-99757595D01*
X211823072Y-99757595D01*
X211823072Y-98695000D01*
X211810812Y-98570518D01*
X211807497Y-98559587D01*
X214229192Y-98559587D01*
X215185000Y-99515395D01*
X216140808Y-98559587D01*
X216045044Y-98295186D01*
X215755429Y-98154296D01*
X215443892Y-98072616D01*
X215122405Y-98053282D01*
X214803325Y-98097039D01*
X214498912Y-98202205D01*
X214324956Y-98295186D01*
X214229192Y-98559587D01*
X211807497Y-98559587D01*
X211774502Y-98450820D01*
X211715537Y-98340506D01*
X211636185Y-98243815D01*
X211539494Y-98164463D01*
X211429180Y-98105498D01*
X211309482Y-98069188D01*
X211185000Y-98056928D01*
X209185000Y-98056928D01*
X209060518Y-98069188D01*
X208940820Y-98105498D01*
X208830506Y-98164463D01*
X208733815Y-98243815D01*
X208654463Y-98340506D01*
X208595498Y-98450820D01*
X208559188Y-98570518D01*
X208546928Y-98695000D01*
X202634597Y-98695000D01*
X201807433Y-98496415D01*
X201705142Y-98480214D01*
X200711785Y-98402035D01*
X200608217Y-98402035D01*
X199614858Y-98480214D01*
X199512567Y-98496415D01*
X198543668Y-98729027D01*
X198445171Y-98761031D01*
X197524597Y-99142346D01*
X197524590Y-99142348D01*
X197432311Y-99189366D01*
X196582715Y-99709999D01*
X196517205Y-99757595D01*
X196498928Y-99770874D01*
X195741236Y-100418004D01*
X195668004Y-100491236D01*
X195020874Y-101248928D01*
X194968648Y-101320812D01*
X194960000Y-101332715D01*
X194439366Y-102182311D01*
X194401216Y-102257186D01*
X194392349Y-102274589D01*
X194011031Y-103195171D01*
X193984767Y-103276004D01*
X193979027Y-103293669D01*
X193746415Y-104262567D01*
X193730214Y-104364858D01*
X193699903Y-104750000D01*
X72245233Y-104750000D01*
X72140087Y-103934851D01*
X72136929Y-103919603D01*
X72135383Y-103904111D01*
X72119784Y-103836811D01*
X71832154Y-102837019D01*
X71826725Y-102822422D01*
X71822854Y-102807344D01*
X71797255Y-102743178D01*
X71454690Y-102000098D01*
X117249000Y-102000098D01*
X117249000Y-102469902D01*
X117340654Y-102930679D01*
X117520440Y-103364721D01*
X117781450Y-103755349D01*
X118113651Y-104087550D01*
X118504279Y-104348560D01*
X118938321Y-104528346D01*
X119399098Y-104620000D01*
X119868902Y-104620000D01*
X120329679Y-104528346D01*
X120763721Y-104348560D01*
X121154349Y-104087550D01*
X121459197Y-103782702D01*
X142696903Y-103782702D01*
X142768486Y-104026671D01*
X143023996Y-104147571D01*
X143298184Y-104216300D01*
X143580512Y-104230217D01*
X143860130Y-104188787D01*
X144126292Y-104093603D01*
X144251514Y-104026671D01*
X144281224Y-103925413D01*
X152079192Y-103925413D01*
X152174956Y-104189814D01*
X152464571Y-104330704D01*
X152776108Y-104412384D01*
X153097595Y-104431718D01*
X153416675Y-104387961D01*
X153721088Y-104282795D01*
X153895044Y-104189814D01*
X153990808Y-103925413D01*
X153035000Y-102969605D01*
X152079192Y-103925413D01*
X144281224Y-103925413D01*
X144323097Y-103782702D01*
X143510000Y-102969605D01*
X142696903Y-103782702D01*
X121459197Y-103782702D01*
X121486550Y-103755349D01*
X121747560Y-103364721D01*
X121927346Y-102930679D01*
X121941303Y-102860512D01*
X142069783Y-102860512D01*
X142111213Y-103140130D01*
X142206397Y-103406292D01*
X142273329Y-103531514D01*
X142517298Y-103603097D01*
X143330395Y-102790000D01*
X143689605Y-102790000D01*
X144502702Y-103603097D01*
X144746671Y-103531514D01*
X144867571Y-103276004D01*
X144936300Y-103001816D01*
X144943655Y-102852595D01*
X151393282Y-102852595D01*
X151437039Y-103171675D01*
X151542205Y-103476088D01*
X151635186Y-103650044D01*
X151899587Y-103745808D01*
X152855395Y-102790000D01*
X153214605Y-102790000D01*
X154170413Y-103745808D01*
X154434814Y-103650044D01*
X154575704Y-103360429D01*
X154657384Y-103048892D01*
X154676718Y-102727405D01*
X154632961Y-102408325D01*
X154527795Y-102103912D01*
X154472306Y-102000098D01*
X162207000Y-102000098D01*
X162207000Y-102469902D01*
X162298654Y-102930679D01*
X162478440Y-103364721D01*
X162739450Y-103755349D01*
X163071651Y-104087550D01*
X163462279Y-104348560D01*
X163896321Y-104528346D01*
X164357098Y-104620000D01*
X164826902Y-104620000D01*
X165287679Y-104528346D01*
X165721721Y-104348560D01*
X166112349Y-104087550D01*
X166444550Y-103755349D01*
X166705560Y-103364721D01*
X166773555Y-103200565D01*
X175744040Y-103200565D01*
X175811020Y-103440656D01*
X176060048Y-103557756D01*
X176327135Y-103624023D01*
X176602017Y-103636910D01*
X176874133Y-103595922D01*
X177133023Y-103502636D01*
X177248980Y-103440656D01*
X177315960Y-103200565D01*
X191238040Y-103200565D01*
X191305020Y-103440656D01*
X191554048Y-103557756D01*
X191821135Y-103624023D01*
X192096017Y-103636910D01*
X192368133Y-103595922D01*
X192627023Y-103502636D01*
X192742980Y-103440656D01*
X192809960Y-103200565D01*
X192024000Y-102414605D01*
X191238040Y-103200565D01*
X177315960Y-103200565D01*
X176530000Y-102414605D01*
X175744040Y-103200565D01*
X166773555Y-103200565D01*
X166885346Y-102930679D01*
X166977000Y-102469902D01*
X166977000Y-102307017D01*
X175128090Y-102307017D01*
X175169078Y-102579133D01*
X175262364Y-102838023D01*
X175324344Y-102953980D01*
X175564435Y-103020960D01*
X176350395Y-102235000D01*
X176709605Y-102235000D01*
X177495565Y-103020960D01*
X177735656Y-102953980D01*
X177852756Y-102704952D01*
X177919023Y-102437865D01*
X177925157Y-102307017D01*
X190622090Y-102307017D01*
X190663078Y-102579133D01*
X190756364Y-102838023D01*
X190818344Y-102953980D01*
X191058435Y-103020960D01*
X191844395Y-102235000D01*
X192203605Y-102235000D01*
X192989565Y-103020960D01*
X193229656Y-102953980D01*
X193346756Y-102704952D01*
X193413023Y-102437865D01*
X193425910Y-102162983D01*
X193384922Y-101890867D01*
X193291636Y-101631977D01*
X193229656Y-101516020D01*
X192989565Y-101449040D01*
X192203605Y-102235000D01*
X191844395Y-102235000D01*
X191058435Y-101449040D01*
X190818344Y-101516020D01*
X190701244Y-101765048D01*
X190634977Y-102032135D01*
X190622090Y-102307017D01*
X177925157Y-102307017D01*
X177931910Y-102162983D01*
X177890922Y-101890867D01*
X177797636Y-101631977D01*
X177735656Y-101516020D01*
X177495565Y-101449040D01*
X176709605Y-102235000D01*
X176350395Y-102235000D01*
X175564435Y-101449040D01*
X175324344Y-101516020D01*
X175207244Y-101765048D01*
X175140977Y-102032135D01*
X175128090Y-102307017D01*
X166977000Y-102307017D01*
X166977000Y-102000098D01*
X166885346Y-101539321D01*
X166773556Y-101269435D01*
X175744040Y-101269435D01*
X176530000Y-102055395D01*
X177315960Y-101269435D01*
X191238040Y-101269435D01*
X192024000Y-102055395D01*
X192809960Y-101269435D01*
X192742980Y-101029344D01*
X192493952Y-100912244D01*
X192226865Y-100845977D01*
X191951983Y-100833090D01*
X191679867Y-100874078D01*
X191420977Y-100967364D01*
X191305020Y-101029344D01*
X191238040Y-101269435D01*
X177315960Y-101269435D01*
X177248980Y-101029344D01*
X176999952Y-100912244D01*
X176732865Y-100845977D01*
X176457983Y-100833090D01*
X176185867Y-100874078D01*
X175926977Y-100967364D01*
X175811020Y-101029344D01*
X175744040Y-101269435D01*
X166773556Y-101269435D01*
X166705560Y-101105279D01*
X166444550Y-100714651D01*
X166112349Y-100382450D01*
X165721721Y-100121440D01*
X165287679Y-99941654D01*
X164826902Y-99850000D01*
X164357098Y-99850000D01*
X163896321Y-99941654D01*
X163462279Y-100121440D01*
X163071651Y-100382450D01*
X162739450Y-100714651D01*
X162478440Y-101105279D01*
X162298654Y-101539321D01*
X162207000Y-102000098D01*
X154472306Y-102000098D01*
X154434814Y-101929956D01*
X154170413Y-101834192D01*
X153214605Y-102790000D01*
X152855395Y-102790000D01*
X151899587Y-101834192D01*
X151635186Y-101929956D01*
X151494296Y-102219571D01*
X151412616Y-102531108D01*
X151393282Y-102852595D01*
X144943655Y-102852595D01*
X144950217Y-102719488D01*
X144908787Y-102439870D01*
X144813603Y-102173708D01*
X144746671Y-102048486D01*
X144502702Y-101976903D01*
X143689605Y-102790000D01*
X143330395Y-102790000D01*
X142517298Y-101976903D01*
X142273329Y-102048486D01*
X142152429Y-102303996D01*
X142083700Y-102578184D01*
X142069783Y-102860512D01*
X121941303Y-102860512D01*
X122019000Y-102469902D01*
X122019000Y-102000098D01*
X121978661Y-101797298D01*
X142696903Y-101797298D01*
X143510000Y-102610395D01*
X144323097Y-101797298D01*
X144281225Y-101654587D01*
X152079192Y-101654587D01*
X153035000Y-102610395D01*
X153990808Y-101654587D01*
X153895044Y-101390186D01*
X153605429Y-101249296D01*
X153293892Y-101167616D01*
X152972405Y-101148282D01*
X152653325Y-101192039D01*
X152348912Y-101297205D01*
X152174956Y-101390186D01*
X152079192Y-101654587D01*
X144281225Y-101654587D01*
X144251514Y-101553329D01*
X143996004Y-101432429D01*
X143721816Y-101363700D01*
X143439488Y-101349783D01*
X143159870Y-101391213D01*
X142893708Y-101486397D01*
X142768486Y-101553329D01*
X142696903Y-101797298D01*
X121978661Y-101797298D01*
X121927346Y-101539321D01*
X121747560Y-101105279D01*
X121486550Y-100714651D01*
X121154349Y-100382450D01*
X120763721Y-100121440D01*
X120329679Y-99941654D01*
X119868902Y-99850000D01*
X119399098Y-99850000D01*
X118938321Y-99941654D01*
X118504279Y-100121440D01*
X118113651Y-100382450D01*
X117781450Y-100714651D01*
X117520440Y-101105279D01*
X117340654Y-101539321D01*
X117249000Y-102000098D01*
X71454690Y-102000098D01*
X71361704Y-101798397D01*
X71354134Y-101784797D01*
X71348023Y-101770469D01*
X71313012Y-101710914D01*
X70739565Y-100842885D01*
X70730022Y-100830582D01*
X70721817Y-100817349D01*
X70678201Y-100763774D01*
X69980054Y-99992474D01*
X69968755Y-99981752D01*
X69958647Y-99969917D01*
X69907429Y-99923556D01*
X69100647Y-99266732D01*
X69087858Y-99257843D01*
X69076074Y-99247672D01*
X69018433Y-99209592D01*
X68121582Y-98682360D01*
X68107598Y-98675509D01*
X68094409Y-98667236D01*
X68031671Y-98638313D01*
X67065390Y-98252806D01*
X67050533Y-98248150D01*
X67036242Y-98241966D01*
X66969851Y-98222866D01*
X65956376Y-97987955D01*
X65940981Y-97985599D01*
X65925923Y-97981649D01*
X65857407Y-97972810D01*
X64827353Y-97894456D01*
X64802419Y-97892000D01*
X64160000Y-97892000D01*
X64160000Y-97790000D01*
X141867089Y-97790000D01*
X141898658Y-98110516D01*
X141992148Y-98418714D01*
X142143970Y-98702752D01*
X142348287Y-98951713D01*
X142597248Y-99156030D01*
X142881286Y-99307852D01*
X143189484Y-99401342D01*
X143510000Y-99432911D01*
X143830516Y-99401342D01*
X144138714Y-99307852D01*
X144422752Y-99156030D01*
X144609323Y-99002915D01*
X145457239Y-98155000D01*
X151396928Y-98155000D01*
X151396928Y-98790000D01*
X151409188Y-98914482D01*
X151445498Y-99034180D01*
X151504463Y-99144494D01*
X151583815Y-99241185D01*
X151680506Y-99320537D01*
X151790820Y-99379502D01*
X151910518Y-99415812D01*
X152035000Y-99428072D01*
X152985869Y-99428072D01*
X153035000Y-99432911D01*
X153084131Y-99428072D01*
X154035000Y-99428072D01*
X154159482Y-99415812D01*
X154279180Y-99379502D01*
X154389494Y-99320537D01*
X154486185Y-99241185D01*
X154565537Y-99144494D01*
X154624502Y-99034180D01*
X154660812Y-98914482D01*
X154673072Y-98790000D01*
X154673072Y-97512702D01*
X197386903Y-97512702D01*
X197458486Y-97756671D01*
X197713996Y-97877571D01*
X197988184Y-97946300D01*
X198270512Y-97960217D01*
X198550130Y-97918787D01*
X198816292Y-97823603D01*
X198941514Y-97756671D01*
X199013097Y-97512702D01*
X198200000Y-96699605D01*
X197386903Y-97512702D01*
X154673072Y-97512702D01*
X154673072Y-97194166D01*
X155276726Y-96590512D01*
X196759783Y-96590512D01*
X196801213Y-96870130D01*
X196896397Y-97136292D01*
X196963329Y-97261514D01*
X197207298Y-97333097D01*
X198020395Y-96520000D01*
X198379605Y-96520000D01*
X199192702Y-97333097D01*
X199436671Y-97261514D01*
X199557571Y-97006004D01*
X199626300Y-96731816D01*
X199640217Y-96449488D01*
X199629724Y-96378665D01*
X201765000Y-96378665D01*
X201765000Y-96661335D01*
X201820147Y-96938574D01*
X201928320Y-97199727D01*
X202085363Y-97434759D01*
X202285241Y-97634637D01*
X202520273Y-97791680D01*
X202781426Y-97899853D01*
X203058665Y-97955000D01*
X203341335Y-97955000D01*
X203618574Y-97899853D01*
X203879727Y-97791680D01*
X204114759Y-97634637D01*
X204314637Y-97434759D01*
X204471680Y-97199727D01*
X204579853Y-96938574D01*
X204635000Y-96661335D01*
X204635000Y-96378665D01*
X204579853Y-96101426D01*
X204471680Y-95840273D01*
X204314637Y-95605241D01*
X204114759Y-95405363D01*
X203879727Y-95248320D01*
X203618574Y-95140147D01*
X203341335Y-95085000D01*
X203058665Y-95085000D01*
X202781426Y-95140147D01*
X202520273Y-95248320D01*
X202285241Y-95405363D01*
X202085363Y-95605241D01*
X201928320Y-95840273D01*
X201820147Y-96101426D01*
X201765000Y-96378665D01*
X199629724Y-96378665D01*
X199598787Y-96169870D01*
X199503603Y-95903708D01*
X199436671Y-95778486D01*
X199192702Y-95706903D01*
X198379605Y-96520000D01*
X198020395Y-96520000D01*
X197207298Y-95706903D01*
X196963329Y-95778486D01*
X196842429Y-96033996D01*
X196773700Y-96308184D01*
X196759783Y-96590512D01*
X155276726Y-96590512D01*
X156339940Y-95527298D01*
X197386903Y-95527298D01*
X198200000Y-96340395D01*
X199013097Y-95527298D01*
X198941514Y-95283329D01*
X198686004Y-95162429D01*
X198411816Y-95093700D01*
X198129488Y-95079783D01*
X197849870Y-95121213D01*
X197583708Y-95216397D01*
X197458486Y-95283329D01*
X197386903Y-95527298D01*
X156339940Y-95527298D01*
X157141239Y-94726000D01*
X176703681Y-94726000D01*
X176784000Y-94733911D01*
X176864319Y-94726000D01*
X176864322Y-94726000D01*
X177104516Y-94702343D01*
X177412715Y-94608852D01*
X177696752Y-94457031D01*
X177945714Y-94252714D01*
X177996925Y-94190313D01*
X179233830Y-92953408D01*
X190627000Y-92953408D01*
X190627000Y-93228592D01*
X190680686Y-93498490D01*
X190785995Y-93752727D01*
X190938880Y-93981535D01*
X191133465Y-94176120D01*
X191362273Y-94329005D01*
X191616510Y-94434314D01*
X191886408Y-94488000D01*
X192161592Y-94488000D01*
X192431490Y-94434314D01*
X192685727Y-94329005D01*
X192914535Y-94176120D01*
X193109120Y-93981535D01*
X193262005Y-93752727D01*
X193367314Y-93498490D01*
X193421000Y-93228592D01*
X193421000Y-92953408D01*
X193367314Y-92683510D01*
X193262005Y-92429273D01*
X193109120Y-92200465D01*
X192914535Y-92005880D01*
X192685727Y-91852995D01*
X192431490Y-91747686D01*
X192161592Y-91694000D01*
X191886408Y-91694000D01*
X191616510Y-91747686D01*
X191362273Y-91852995D01*
X191133465Y-92005880D01*
X190938880Y-92200465D01*
X190785995Y-92429273D01*
X190680686Y-92683510D01*
X190627000Y-92953408D01*
X179233830Y-92953408D01*
X214459320Y-57727919D01*
X214521714Y-57676714D01*
X214726031Y-57427752D01*
X214877852Y-57143715D01*
X214971343Y-56835516D01*
X214995000Y-56595322D01*
X214995000Y-56595320D01*
X215002911Y-56515001D01*
X214995000Y-56434681D01*
X214995000Y-48781915D01*
X215081185Y-48711185D01*
X215160537Y-48614494D01*
X215219502Y-48504180D01*
X215255812Y-48384482D01*
X215268072Y-48260000D01*
X215268072Y-45720000D01*
X215255812Y-45595518D01*
X215219502Y-45475820D01*
X215160537Y-45365506D01*
X215081185Y-45268815D01*
X214984494Y-45189463D01*
X214874180Y-45130498D01*
X214754482Y-45094188D01*
X214630000Y-45081928D01*
X209550000Y-45081928D01*
X209425518Y-45094188D01*
X209305820Y-45130498D01*
X209195506Y-45189463D01*
X209098815Y-45268815D01*
X209028085Y-45355000D01*
X158792239Y-45355000D01*
X156578072Y-43140834D01*
X156578072Y-41545000D01*
X156565812Y-41420518D01*
X156529502Y-41300820D01*
X156470537Y-41190506D01*
X156391185Y-41093815D01*
X156325731Y-41040098D01*
X162207000Y-41040098D01*
X162207000Y-41509902D01*
X162298654Y-41970679D01*
X162478440Y-42404721D01*
X162739450Y-42795349D01*
X163071651Y-43127550D01*
X163462279Y-43388560D01*
X163896321Y-43568346D01*
X164357098Y-43660000D01*
X164826902Y-43660000D01*
X165287679Y-43568346D01*
X165721721Y-43388560D01*
X166112349Y-43127550D01*
X166444550Y-42795349D01*
X166705560Y-42404721D01*
X166885346Y-41970679D01*
X166977000Y-41509902D01*
X166977000Y-41040098D01*
X166885346Y-40579321D01*
X166705560Y-40145279D01*
X166444550Y-39754651D01*
X166112349Y-39422450D01*
X165721721Y-39161440D01*
X165287679Y-38981654D01*
X164826902Y-38890000D01*
X164357098Y-38890000D01*
X163896321Y-38981654D01*
X163462279Y-39161440D01*
X163071651Y-39422450D01*
X162739450Y-39754651D01*
X162478440Y-40145279D01*
X162298654Y-40579321D01*
X162207000Y-41040098D01*
X156325731Y-41040098D01*
X156294494Y-41014463D01*
X156184180Y-40955498D01*
X156064482Y-40919188D01*
X155940000Y-40906928D01*
X154989131Y-40906928D01*
X154940000Y-40902089D01*
X154890869Y-40906928D01*
X153940000Y-40906928D01*
X153815518Y-40919188D01*
X153695820Y-40955498D01*
X153585506Y-41014463D01*
X153488815Y-41093815D01*
X153409463Y-41190506D01*
X153350498Y-41300820D01*
X153314188Y-41420518D01*
X153301928Y-41545000D01*
X153301928Y-43545000D01*
X153305000Y-43576192D01*
X153305000Y-43734681D01*
X153297089Y-43815000D01*
X153305000Y-43895319D01*
X153305000Y-43895322D01*
X153328657Y-44135516D01*
X153422148Y-44443715D01*
X153573970Y-44727752D01*
X153778287Y-44976714D01*
X153840682Y-45027920D01*
X156902080Y-48089319D01*
X156953286Y-48151714D01*
X157202248Y-48356031D01*
X157486285Y-48507852D01*
X157794484Y-48601343D01*
X158034678Y-48625000D01*
X158034680Y-48625000D01*
X158114999Y-48632911D01*
X158195319Y-48625000D01*
X209028085Y-48625000D01*
X209098815Y-48711185D01*
X209195506Y-48790537D01*
X209305820Y-48849502D01*
X209425518Y-48885812D01*
X209550000Y-48898072D01*
X211725001Y-48898072D01*
X211725000Y-55837761D01*
X176106762Y-91456000D01*
X156544319Y-91456000D01*
X156463999Y-91448089D01*
X156383680Y-91456000D01*
X156383678Y-91456000D01*
X156143484Y-91479657D01*
X155835285Y-91573148D01*
X155551248Y-91724969D01*
X155302286Y-91929286D01*
X155251080Y-91991681D01*
X152357762Y-94885000D01*
X144860319Y-94885000D01*
X144779999Y-94877089D01*
X144699680Y-94885000D01*
X144699678Y-94885000D01*
X144459484Y-94908657D01*
X144151285Y-95002148D01*
X143867248Y-95153969D01*
X143618286Y-95358286D01*
X143567079Y-95420682D01*
X142297085Y-96690677D01*
X142143970Y-96877248D01*
X141992148Y-97161286D01*
X141898658Y-97469484D01*
X141867089Y-97790000D01*
X64160000Y-97790000D01*
X64160000Y-94761098D01*
X64290000Y-94761098D01*
X64290000Y-95230902D01*
X64381654Y-95691679D01*
X64561440Y-96125721D01*
X64822450Y-96516349D01*
X65154651Y-96848550D01*
X65545279Y-97109560D01*
X65979321Y-97289346D01*
X66440098Y-97381000D01*
X66909902Y-97381000D01*
X67370679Y-97289346D01*
X67804721Y-97109560D01*
X68195349Y-96848550D01*
X68527550Y-96516349D01*
X68788560Y-96125721D01*
X68968346Y-95691679D01*
X69060000Y-95230902D01*
X69060000Y-94761098D01*
X68968346Y-94300321D01*
X68788560Y-93866279D01*
X68527550Y-93475651D01*
X68195349Y-93143450D01*
X67804721Y-92882440D01*
X67370679Y-92702654D01*
X66909902Y-92611000D01*
X66440098Y-92611000D01*
X65979321Y-92702654D01*
X65545279Y-92882440D01*
X65154651Y-93143450D01*
X64822450Y-93475651D01*
X64561440Y-93866279D01*
X64381654Y-94300321D01*
X64290000Y-94761098D01*
X64160000Y-94761098D01*
X64160000Y-88793967D01*
X114570000Y-88793967D01*
X114570000Y-89116033D01*
X114632832Y-89431912D01*
X114756082Y-89729463D01*
X114935013Y-89997252D01*
X115162748Y-90224987D01*
X115430537Y-90403918D01*
X115728088Y-90527168D01*
X116043967Y-90590000D01*
X116366033Y-90590000D01*
X116681912Y-90527168D01*
X116979463Y-90403918D01*
X117247252Y-90224987D01*
X117474987Y-89997252D01*
X117653918Y-89729463D01*
X117659909Y-89715000D01*
X121250091Y-89715000D01*
X121256082Y-89729463D01*
X121435013Y-89997252D01*
X121662748Y-90224987D01*
X121930537Y-90403918D01*
X122228088Y-90527168D01*
X122543967Y-90590000D01*
X122866033Y-90590000D01*
X123181912Y-90527168D01*
X123479463Y-90403918D01*
X123747252Y-90224987D01*
X123974987Y-89997252D01*
X124153918Y-89729463D01*
X124277168Y-89431912D01*
X124340000Y-89116033D01*
X124340000Y-88793967D01*
X124277168Y-88478088D01*
X124153918Y-88180537D01*
X123974987Y-87912748D01*
X123747252Y-87685013D01*
X123479463Y-87506082D01*
X123181912Y-87382832D01*
X122866033Y-87320000D01*
X122543967Y-87320000D01*
X122228088Y-87382832D01*
X121930537Y-87506082D01*
X121662748Y-87685013D01*
X121435013Y-87912748D01*
X121256082Y-88180537D01*
X121250091Y-88195000D01*
X117659909Y-88195000D01*
X117653918Y-88180537D01*
X117474987Y-87912748D01*
X117247252Y-87685013D01*
X116979463Y-87506082D01*
X116681912Y-87382832D01*
X116366033Y-87320000D01*
X116043967Y-87320000D01*
X115728088Y-87382832D01*
X115430537Y-87506082D01*
X115162748Y-87685013D01*
X114935013Y-87912748D01*
X114756082Y-88180537D01*
X114632832Y-88478088D01*
X114570000Y-88793967D01*
X64160000Y-88793967D01*
X64160000Y-85590413D01*
X115249192Y-85590413D01*
X115344956Y-85854814D01*
X115634571Y-85995704D01*
X115946108Y-86077384D01*
X116267595Y-86096718D01*
X116586675Y-86052961D01*
X116891088Y-85947795D01*
X117065044Y-85854814D01*
X117160808Y-85590413D01*
X121749192Y-85590413D01*
X121844956Y-85854814D01*
X122134571Y-85995704D01*
X122446108Y-86077384D01*
X122767595Y-86096718D01*
X123086675Y-86052961D01*
X123391088Y-85947795D01*
X123565044Y-85854814D01*
X123660808Y-85590413D01*
X122705000Y-84634605D01*
X121749192Y-85590413D01*
X117160808Y-85590413D01*
X116205000Y-84634605D01*
X115249192Y-85590413D01*
X64160000Y-85590413D01*
X64160000Y-84517595D01*
X114563282Y-84517595D01*
X114607039Y-84836675D01*
X114712205Y-85141088D01*
X114805186Y-85315044D01*
X115069587Y-85410808D01*
X116025395Y-84455000D01*
X116384605Y-84455000D01*
X117340413Y-85410808D01*
X117604814Y-85315044D01*
X117745704Y-85025429D01*
X117827384Y-84713892D01*
X117839189Y-84517595D01*
X121063282Y-84517595D01*
X121107039Y-84836675D01*
X121212205Y-85141088D01*
X121305186Y-85315044D01*
X121569587Y-85410808D01*
X122525395Y-84455000D01*
X122884605Y-84455000D01*
X123840413Y-85410808D01*
X124104814Y-85315044D01*
X124245704Y-85025429D01*
X124327384Y-84713892D01*
X124346718Y-84392405D01*
X124302961Y-84073325D01*
X124197795Y-83768912D01*
X124104814Y-83594956D01*
X123840413Y-83499192D01*
X122884605Y-84455000D01*
X122525395Y-84455000D01*
X121569587Y-83499192D01*
X121305186Y-83594956D01*
X121164296Y-83884571D01*
X121082616Y-84196108D01*
X121063282Y-84517595D01*
X117839189Y-84517595D01*
X117846718Y-84392405D01*
X117802961Y-84073325D01*
X117697795Y-83768912D01*
X117604814Y-83594956D01*
X117340413Y-83499192D01*
X116384605Y-84455000D01*
X116025395Y-84455000D01*
X115069587Y-83499192D01*
X114805186Y-83594956D01*
X114664296Y-83884571D01*
X114582616Y-84196108D01*
X114563282Y-84517595D01*
X64160000Y-84517595D01*
X64160000Y-83319587D01*
X115249192Y-83319587D01*
X116205000Y-84275395D01*
X117160808Y-83319587D01*
X121749192Y-83319587D01*
X122705000Y-84275395D01*
X123660808Y-83319587D01*
X123565044Y-83055186D01*
X123275429Y-82914296D01*
X122963892Y-82832616D01*
X122642405Y-82813282D01*
X122323325Y-82857039D01*
X122018912Y-82962205D01*
X121844956Y-83055186D01*
X121749192Y-83319587D01*
X117160808Y-83319587D01*
X117065044Y-83055186D01*
X116775429Y-82914296D01*
X116463892Y-82832616D01*
X116142405Y-82813282D01*
X115823325Y-82857039D01*
X115518912Y-82962205D01*
X115344956Y-83055186D01*
X115249192Y-83319587D01*
X64160000Y-83319587D01*
X64160000Y-74560000D01*
X83551928Y-74560000D01*
X83564188Y-74684482D01*
X83600498Y-74804180D01*
X83659463Y-74914494D01*
X83738815Y-75011185D01*
X83835506Y-75090537D01*
X83945820Y-75149502D01*
X84065518Y-75185812D01*
X84190000Y-75198072D01*
X84804250Y-75195000D01*
X84963000Y-75036250D01*
X84963000Y-73787000D01*
X85217000Y-73787000D01*
X85217000Y-75036250D01*
X85375750Y-75195000D01*
X85990000Y-75198072D01*
X86114482Y-75185812D01*
X86234180Y-75149502D01*
X86344494Y-75090537D01*
X86441185Y-75011185D01*
X86520537Y-74914494D01*
X86579502Y-74804180D01*
X86615812Y-74684482D01*
X86628072Y-74560000D01*
X86625000Y-73945750D01*
X86466250Y-73787000D01*
X85217000Y-73787000D01*
X84963000Y-73787000D01*
X83713750Y-73787000D01*
X83555000Y-73945750D01*
X83551928Y-74560000D01*
X64160000Y-74560000D01*
X64160000Y-72760000D01*
X83551928Y-72760000D01*
X83555000Y-73374250D01*
X83713750Y-73533000D01*
X84963000Y-73533000D01*
X84963000Y-73513000D01*
X85217000Y-73513000D01*
X85217000Y-73533000D01*
X86466250Y-73533000D01*
X86625000Y-73374250D01*
X86628072Y-72760000D01*
X86615812Y-72635518D01*
X86579502Y-72515820D01*
X86520537Y-72405506D01*
X86441185Y-72308815D01*
X86344494Y-72229463D01*
X86234180Y-72170498D01*
X86215873Y-72164944D01*
X86282312Y-72098505D01*
X86450299Y-71847095D01*
X86566011Y-71567743D01*
X86625000Y-71271184D01*
X86625000Y-70968816D01*
X86566011Y-70672257D01*
X86450299Y-70392905D01*
X86282312Y-70141495D01*
X86068505Y-69927688D01*
X85817095Y-69759701D01*
X85537743Y-69643989D01*
X85241184Y-69585000D01*
X84938816Y-69585000D01*
X84642257Y-69643989D01*
X84362905Y-69759701D01*
X84111495Y-69927688D01*
X83897688Y-70141495D01*
X83729701Y-70392905D01*
X83613989Y-70672257D01*
X83555000Y-70968816D01*
X83555000Y-71271184D01*
X83613989Y-71567743D01*
X83729701Y-71847095D01*
X83897688Y-72098505D01*
X83964127Y-72164944D01*
X83945820Y-72170498D01*
X83835506Y-72229463D01*
X83738815Y-72308815D01*
X83659463Y-72405506D01*
X83600498Y-72515820D01*
X83564188Y-72635518D01*
X83551928Y-72760000D01*
X64160000Y-72760000D01*
X64160000Y-45618000D01*
X64802419Y-45618000D01*
X64811029Y-45617152D01*
X65146197Y-45608375D01*
X65149583Y-45608028D01*
X65213354Y-45603178D01*
X66245148Y-45470087D01*
X66260394Y-45466930D01*
X66275890Y-45465383D01*
X66343189Y-45449784D01*
X67342981Y-45162154D01*
X67357576Y-45156726D01*
X67372657Y-45152854D01*
X67436785Y-45127269D01*
X67436822Y-45127255D01*
X67436832Y-45127249D01*
X68381604Y-44691704D01*
X68395207Y-44684133D01*
X68409531Y-44678023D01*
X68469086Y-44643012D01*
X69337115Y-44069565D01*
X69349420Y-44060020D01*
X69362652Y-44051816D01*
X69416226Y-44008201D01*
X70187526Y-43310053D01*
X70198241Y-43298762D01*
X70210084Y-43288647D01*
X70256444Y-43237429D01*
X70913268Y-42430647D01*
X70922157Y-42417858D01*
X70932328Y-42406074D01*
X70970408Y-42348433D01*
X71497640Y-41451582D01*
X71504491Y-41437598D01*
X71512764Y-41424409D01*
X71541687Y-41361671D01*
X71632652Y-41133665D01*
X72860000Y-41133665D01*
X72860000Y-41416335D01*
X72915147Y-41693574D01*
X73023320Y-41954727D01*
X73180363Y-42189759D01*
X73380241Y-42389637D01*
X73615273Y-42546680D01*
X73876426Y-42654853D01*
X74153665Y-42710000D01*
X74436335Y-42710000D01*
X74713574Y-42654853D01*
X74974727Y-42546680D01*
X75209759Y-42389637D01*
X75409637Y-42189759D01*
X75566680Y-41954727D01*
X75674853Y-41693574D01*
X75730000Y-41416335D01*
X75730000Y-41133665D01*
X75674853Y-40856426D01*
X75566680Y-40595273D01*
X75409637Y-40360241D01*
X75209759Y-40160363D01*
X74974727Y-40003320D01*
X74713574Y-39895147D01*
X74436335Y-39840000D01*
X74153665Y-39840000D01*
X73876426Y-39895147D01*
X73615273Y-40003320D01*
X73380241Y-40160363D01*
X73180363Y-40360241D01*
X73023320Y-40595273D01*
X72915147Y-40856426D01*
X72860000Y-41133665D01*
X71632652Y-41133665D01*
X71927194Y-40395389D01*
X71931850Y-40380533D01*
X71938034Y-40366242D01*
X71957123Y-40299890D01*
X71957135Y-40299851D01*
X71957137Y-40299838D01*
X72192046Y-39286375D01*
X72194403Y-39270974D01*
X72198351Y-39255923D01*
X72207190Y-39187407D01*
X72239702Y-38760000D01*
X96700293Y-38760000D01*
X96614999Y-38829999D01*
%TA.AperFunction,Conductor*%
D26*
G36*
X96614999Y-38829999D02*
G01*
X96591201Y-38858997D01*
X95374003Y-40076196D01*
X95344999Y-40099999D01*
X95295460Y-40160363D01*
X95250026Y-40215724D01*
X95183023Y-40341077D01*
X95179454Y-40347754D01*
X95135997Y-40491015D01*
X95125000Y-40602668D01*
X95125000Y-40602678D01*
X95121927Y-40633875D01*
X94938368Y-40756525D01*
X94806513Y-40888380D01*
X94784502Y-40815820D01*
X94725537Y-40705506D01*
X94646185Y-40608815D01*
X94549494Y-40529463D01*
X94439180Y-40470498D01*
X94319482Y-40434188D01*
X94195000Y-40421928D01*
X92495000Y-40421928D01*
X92370518Y-40434188D01*
X92250820Y-40470498D01*
X92140506Y-40529463D01*
X92043815Y-40608815D01*
X91964463Y-40705506D01*
X91905498Y-40815820D01*
X91869188Y-40935518D01*
X91856928Y-41060000D01*
X91856928Y-41150000D01*
X91119802Y-41150000D01*
X90733803Y-40764002D01*
X90710001Y-40734999D01*
X90594276Y-40640026D01*
X90462247Y-40569454D01*
X90318986Y-40525997D01*
X90207333Y-40515000D01*
X90207322Y-40515000D01*
X90170000Y-40511324D01*
X90132678Y-40515000D01*
X88213043Y-40515000D01*
X88109637Y-40360241D01*
X87909759Y-40160363D01*
X87674727Y-40003320D01*
X87413574Y-39895147D01*
X87136335Y-39840000D01*
X86853665Y-39840000D01*
X86576426Y-39895147D01*
X86315273Y-40003320D01*
X86080241Y-40160363D01*
X85880363Y-40360241D01*
X85723320Y-40595273D01*
X85615147Y-40856426D01*
X85560000Y-41133665D01*
X85560000Y-41416335D01*
X85615147Y-41693574D01*
X85723320Y-41954727D01*
X85880363Y-42189759D01*
X86080241Y-42389637D01*
X86315273Y-42546680D01*
X86576426Y-42654853D01*
X86853665Y-42710000D01*
X87136335Y-42710000D01*
X87413574Y-42654853D01*
X87674727Y-42546680D01*
X87909759Y-42389637D01*
X88109637Y-42189759D01*
X88213043Y-42035000D01*
X89855199Y-42035000D01*
X90241200Y-42421002D01*
X90264999Y-42450001D01*
X90293997Y-42473799D01*
X90380724Y-42544974D01*
X90512753Y-42615546D01*
X90656014Y-42659003D01*
X90805000Y-42673677D01*
X90842333Y-42670000D01*
X91856928Y-42670000D01*
X91856928Y-42760000D01*
X91869188Y-42884482D01*
X91905498Y-43004180D01*
X91964463Y-43114494D01*
X92043815Y-43211185D01*
X92140506Y-43290537D01*
X92250820Y-43349502D01*
X92323380Y-43371513D01*
X92191525Y-43503368D01*
X92029010Y-43746589D01*
X91917068Y-44016842D01*
X91860000Y-44303740D01*
X91860000Y-44596260D01*
X91917068Y-44883158D01*
X92029010Y-45153411D01*
X92191525Y-45396632D01*
X92398368Y-45603475D01*
X92585000Y-45728179D01*
X92585000Y-46952668D01*
X92585001Y-63462667D01*
X92581324Y-63500000D01*
X92585001Y-63537332D01*
X92585001Y-63537333D01*
X92592553Y-63614003D01*
X92595998Y-63648985D01*
X92639454Y-63792246D01*
X92710026Y-63924276D01*
X92760694Y-63986014D01*
X92805000Y-64040001D01*
X92833998Y-64063799D01*
X107386200Y-78616002D01*
X107409999Y-78645001D01*
X107438997Y-78668799D01*
X107525723Y-78739974D01*
X107657753Y-78810546D01*
X107801014Y-78854003D01*
X107912667Y-78865000D01*
X107912676Y-78865000D01*
X107949999Y-78868676D01*
X107987322Y-78865000D01*
X129170199Y-78865000D01*
X138768823Y-88463625D01*
X138762832Y-88478088D01*
X138700000Y-88793967D01*
X138700000Y-89116033D01*
X138762832Y-89431912D01*
X138886082Y-89729463D01*
X139065013Y-89997252D01*
X139292748Y-90224987D01*
X139560537Y-90403918D01*
X139858088Y-90527168D01*
X140173967Y-90590000D01*
X140496033Y-90590000D01*
X140811912Y-90527168D01*
X141109463Y-90403918D01*
X141377252Y-90224987D01*
X141604987Y-89997252D01*
X141783918Y-89729463D01*
X141789909Y-89715000D01*
X145380091Y-89715000D01*
X145386082Y-89729463D01*
X145565013Y-89997252D01*
X145792748Y-90224987D01*
X146060537Y-90403918D01*
X146358088Y-90527168D01*
X146673967Y-90590000D01*
X146996033Y-90590000D01*
X147311912Y-90527168D01*
X147609463Y-90403918D01*
X147877252Y-90224987D01*
X148104987Y-89997252D01*
X148283918Y-89729463D01*
X148407168Y-89431912D01*
X148470000Y-89116033D01*
X148470000Y-88793967D01*
X148407168Y-88478088D01*
X148283918Y-88180537D01*
X148104987Y-87912748D01*
X147877252Y-87685013D01*
X147609463Y-87506082D01*
X147311912Y-87382832D01*
X146996033Y-87320000D01*
X146673967Y-87320000D01*
X146358088Y-87382832D01*
X146060537Y-87506082D01*
X145792748Y-87685013D01*
X145565013Y-87912748D01*
X145386082Y-88180537D01*
X145380091Y-88195000D01*
X141789909Y-88195000D01*
X141783918Y-88180537D01*
X141604987Y-87912748D01*
X141377252Y-87685013D01*
X141109463Y-87506082D01*
X140811912Y-87382832D01*
X140496033Y-87320000D01*
X140173967Y-87320000D01*
X139858088Y-87382832D01*
X139843625Y-87388823D01*
X138045215Y-85590413D01*
X139379192Y-85590413D01*
X139474956Y-85854814D01*
X139764571Y-85995704D01*
X140076108Y-86077384D01*
X140397595Y-86096718D01*
X140716675Y-86052961D01*
X141021088Y-85947795D01*
X141195044Y-85854814D01*
X141290808Y-85590413D01*
X145879192Y-85590413D01*
X145974956Y-85854814D01*
X146264571Y-85995704D01*
X146576108Y-86077384D01*
X146897595Y-86096718D01*
X147216675Y-86052961D01*
X147521088Y-85947795D01*
X147695044Y-85854814D01*
X147790808Y-85590413D01*
X146835000Y-84634605D01*
X145879192Y-85590413D01*
X141290808Y-85590413D01*
X140335000Y-84634605D01*
X139379192Y-85590413D01*
X138045215Y-85590413D01*
X136972397Y-84517595D01*
X138693282Y-84517595D01*
X138737039Y-84836675D01*
X138842205Y-85141088D01*
X138935186Y-85315044D01*
X139199587Y-85410808D01*
X140155395Y-84455000D01*
X140514605Y-84455000D01*
X141470413Y-85410808D01*
X141734814Y-85315044D01*
X141875704Y-85025429D01*
X141957384Y-84713892D01*
X141969189Y-84517595D01*
X145193282Y-84517595D01*
X145237039Y-84836675D01*
X145342205Y-85141088D01*
X145435186Y-85315044D01*
X145699587Y-85410808D01*
X146655395Y-84455000D01*
X147014605Y-84455000D01*
X147970413Y-85410808D01*
X148234814Y-85315044D01*
X148375704Y-85025429D01*
X148457384Y-84713892D01*
X148476718Y-84392405D01*
X148432961Y-84073325D01*
X148327795Y-83768912D01*
X148234814Y-83594956D01*
X147970413Y-83499192D01*
X147014605Y-84455000D01*
X146655395Y-84455000D01*
X145699587Y-83499192D01*
X145435186Y-83594956D01*
X145294296Y-83884571D01*
X145212616Y-84196108D01*
X145193282Y-84517595D01*
X141969189Y-84517595D01*
X141976718Y-84392405D01*
X141932961Y-84073325D01*
X141827795Y-83768912D01*
X141734814Y-83594956D01*
X141470413Y-83499192D01*
X140514605Y-84455000D01*
X140155395Y-84455000D01*
X139199587Y-83499192D01*
X138935186Y-83594956D01*
X138794296Y-83884571D01*
X138712616Y-84196108D01*
X138693282Y-84517595D01*
X136972397Y-84517595D01*
X135774389Y-83319587D01*
X139379192Y-83319587D01*
X140335000Y-84275395D01*
X141290808Y-83319587D01*
X145879192Y-83319587D01*
X146835000Y-84275395D01*
X147790808Y-83319587D01*
X147695044Y-83055186D01*
X147405429Y-82914296D01*
X147093892Y-82832616D01*
X146772405Y-82813282D01*
X146453325Y-82857039D01*
X146148912Y-82962205D01*
X145974956Y-83055186D01*
X145879192Y-83319587D01*
X141290808Y-83319587D01*
X141195044Y-83055186D01*
X140905429Y-82914296D01*
X140593892Y-82832616D01*
X140272405Y-82813282D01*
X139953325Y-82857039D01*
X139648912Y-82962205D01*
X139474956Y-83055186D01*
X139379192Y-83319587D01*
X135774389Y-83319587D01*
X130048804Y-77594003D01*
X130025001Y-77564999D01*
X129909276Y-77470026D01*
X129777247Y-77399454D01*
X129633986Y-77355997D01*
X129522333Y-77345000D01*
X129522322Y-77345000D01*
X129485000Y-77341324D01*
X129447678Y-77345000D01*
X108264802Y-77345000D01*
X94105000Y-63185199D01*
X94105000Y-45728178D01*
X94291632Y-45603475D01*
X94498475Y-45396632D01*
X94615000Y-45222240D01*
X94731525Y-45396632D01*
X94938368Y-45603475D01*
X95125000Y-45728179D01*
X95125000Y-46952668D01*
X95125001Y-62827667D01*
X95121324Y-62865000D01*
X95135998Y-63013985D01*
X95179454Y-63157246D01*
X95250026Y-63289276D01*
X95317362Y-63371324D01*
X95345000Y-63405001D01*
X95373998Y-63428799D01*
X108021200Y-76076002D01*
X108044999Y-76105001D01*
X108160724Y-76199974D01*
X108292753Y-76270546D01*
X108436014Y-76314003D01*
X108547667Y-76325000D01*
X108547676Y-76325000D01*
X108584999Y-76328676D01*
X108622322Y-76325000D01*
X153935199Y-76325000D01*
X166073823Y-88463625D01*
X166067832Y-88478088D01*
X166005000Y-88793967D01*
X166005000Y-89116033D01*
X166067832Y-89431912D01*
X166191082Y-89729463D01*
X166370013Y-89997252D01*
X166597748Y-90224987D01*
X166865537Y-90403918D01*
X167163088Y-90527168D01*
X167478967Y-90590000D01*
X167801033Y-90590000D01*
X168116912Y-90527168D01*
X168414463Y-90403918D01*
X168682252Y-90224987D01*
X168909987Y-89997252D01*
X169088918Y-89729463D01*
X169094909Y-89715000D01*
X172685091Y-89715000D01*
X172691082Y-89729463D01*
X172870013Y-89997252D01*
X173097748Y-90224987D01*
X173365537Y-90403918D01*
X173663088Y-90527168D01*
X173978967Y-90590000D01*
X174301033Y-90590000D01*
X174616912Y-90527168D01*
X174914463Y-90403918D01*
X175182252Y-90224987D01*
X175409987Y-89997252D01*
X175588918Y-89729463D01*
X175712168Y-89431912D01*
X175775000Y-89116033D01*
X175775000Y-88793967D01*
X175712168Y-88478088D01*
X175588918Y-88180537D01*
X175409987Y-87912748D01*
X175182252Y-87685013D01*
X174914463Y-87506082D01*
X174616912Y-87382832D01*
X174301033Y-87320000D01*
X173978967Y-87320000D01*
X173663088Y-87382832D01*
X173365537Y-87506082D01*
X173097748Y-87685013D01*
X172870013Y-87912748D01*
X172691082Y-88180537D01*
X172685091Y-88195000D01*
X169094909Y-88195000D01*
X169088918Y-88180537D01*
X168909987Y-87912748D01*
X168682252Y-87685013D01*
X168414463Y-87506082D01*
X168116912Y-87382832D01*
X167801033Y-87320000D01*
X167478967Y-87320000D01*
X167163088Y-87382832D01*
X167148625Y-87388823D01*
X165350215Y-85590413D01*
X166684192Y-85590413D01*
X166779956Y-85854814D01*
X167069571Y-85995704D01*
X167381108Y-86077384D01*
X167702595Y-86096718D01*
X168021675Y-86052961D01*
X168326088Y-85947795D01*
X168500044Y-85854814D01*
X168595808Y-85590413D01*
X173184192Y-85590413D01*
X173279956Y-85854814D01*
X173569571Y-85995704D01*
X173881108Y-86077384D01*
X174202595Y-86096718D01*
X174521675Y-86052961D01*
X174826088Y-85947795D01*
X175000044Y-85854814D01*
X175095808Y-85590413D01*
X174140000Y-84634605D01*
X173184192Y-85590413D01*
X168595808Y-85590413D01*
X167640000Y-84634605D01*
X166684192Y-85590413D01*
X165350215Y-85590413D01*
X164277397Y-84517595D01*
X165998282Y-84517595D01*
X166042039Y-84836675D01*
X166147205Y-85141088D01*
X166240186Y-85315044D01*
X166504587Y-85410808D01*
X167460395Y-84455000D01*
X167819605Y-84455000D01*
X168775413Y-85410808D01*
X169039814Y-85315044D01*
X169180704Y-85025429D01*
X169262384Y-84713892D01*
X169274189Y-84517595D01*
X172498282Y-84517595D01*
X172542039Y-84836675D01*
X172647205Y-85141088D01*
X172740186Y-85315044D01*
X173004587Y-85410808D01*
X173960395Y-84455000D01*
X174319605Y-84455000D01*
X175275413Y-85410808D01*
X175539814Y-85315044D01*
X175680704Y-85025429D01*
X175762384Y-84713892D01*
X175781718Y-84392405D01*
X175737961Y-84073325D01*
X175632795Y-83768912D01*
X175539814Y-83594956D01*
X175275413Y-83499192D01*
X174319605Y-84455000D01*
X173960395Y-84455000D01*
X173004587Y-83499192D01*
X172740186Y-83594956D01*
X172599296Y-83884571D01*
X172517616Y-84196108D01*
X172498282Y-84517595D01*
X169274189Y-84517595D01*
X169281718Y-84392405D01*
X169237961Y-84073325D01*
X169132795Y-83768912D01*
X169039814Y-83594956D01*
X168775413Y-83499192D01*
X167819605Y-84455000D01*
X167460395Y-84455000D01*
X166504587Y-83499192D01*
X166240186Y-83594956D01*
X166099296Y-83884571D01*
X166017616Y-84196108D01*
X165998282Y-84517595D01*
X164277397Y-84517595D01*
X163079389Y-83319587D01*
X166684192Y-83319587D01*
X167640000Y-84275395D01*
X168595808Y-83319587D01*
X173184192Y-83319587D01*
X174140000Y-84275395D01*
X175095808Y-83319587D01*
X175000044Y-83055186D01*
X174710429Y-82914296D01*
X174398892Y-82832616D01*
X174077405Y-82813282D01*
X173758325Y-82857039D01*
X173453912Y-82962205D01*
X173279956Y-83055186D01*
X173184192Y-83319587D01*
X168595808Y-83319587D01*
X168500044Y-83055186D01*
X168210429Y-82914296D01*
X167898892Y-82832616D01*
X167577405Y-82813282D01*
X167258325Y-82857039D01*
X166953912Y-82962205D01*
X166779956Y-83055186D01*
X166684192Y-83319587D01*
X163079389Y-83319587D01*
X154813804Y-75054003D01*
X154790001Y-75024999D01*
X154674276Y-74930026D01*
X154542247Y-74859454D01*
X154398986Y-74815997D01*
X154287333Y-74805000D01*
X154287322Y-74805000D01*
X154250000Y-74801324D01*
X154212678Y-74805000D01*
X108899802Y-74805000D01*
X96645000Y-62550199D01*
X96645000Y-45728178D01*
X96831632Y-45603475D01*
X97038475Y-45396632D01*
X97155000Y-45222240D01*
X97271525Y-45396632D01*
X97478368Y-45603475D01*
X97665000Y-45728179D01*
X97665000Y-46952668D01*
X97665001Y-61557668D01*
X97661324Y-61595000D01*
X97675998Y-61743985D01*
X97719454Y-61887246D01*
X97790026Y-62019276D01*
X97857362Y-62101324D01*
X97885000Y-62135001D01*
X97913998Y-62158799D01*
X108656205Y-72901008D01*
X108679999Y-72930001D01*
X108708992Y-72953795D01*
X108708996Y-72953799D01*
X108779685Y-73011811D01*
X108795724Y-73024974D01*
X108927753Y-73095546D01*
X109071014Y-73139003D01*
X109182667Y-73150000D01*
X109182676Y-73150000D01*
X109219999Y-73153676D01*
X109257322Y-73150000D01*
X154957678Y-73150000D01*
X154995000Y-73153676D01*
X155032322Y-73150000D01*
X155032333Y-73150000D01*
X155143986Y-73139003D01*
X155287247Y-73095546D01*
X155419276Y-73024974D01*
X155535001Y-72930001D01*
X155558804Y-72900997D01*
X167148625Y-61311177D01*
X167163088Y-61317168D01*
X167478967Y-61380000D01*
X167801033Y-61380000D01*
X168116912Y-61317168D01*
X168414463Y-61193918D01*
X168682252Y-61014987D01*
X168909987Y-60787252D01*
X169088918Y-60519463D01*
X169094909Y-60505000D01*
X172685091Y-60505000D01*
X172691082Y-60519463D01*
X172870013Y-60787252D01*
X173097748Y-61014987D01*
X173365537Y-61193918D01*
X173663088Y-61317168D01*
X173978967Y-61380000D01*
X174301033Y-61380000D01*
X174616912Y-61317168D01*
X174914463Y-61193918D01*
X175182252Y-61014987D01*
X175409987Y-60787252D01*
X175588918Y-60519463D01*
X175712168Y-60221912D01*
X175775000Y-59906033D01*
X175775000Y-59583967D01*
X175712168Y-59268088D01*
X175588918Y-58970537D01*
X175409987Y-58702748D01*
X175182252Y-58475013D01*
X174914463Y-58296082D01*
X174616912Y-58172832D01*
X174301033Y-58110000D01*
X173978967Y-58110000D01*
X173663088Y-58172832D01*
X173365537Y-58296082D01*
X173097748Y-58475013D01*
X172870013Y-58702748D01*
X172691082Y-58970537D01*
X172685091Y-58985000D01*
X169094909Y-58985000D01*
X169088918Y-58970537D01*
X168909987Y-58702748D01*
X168682252Y-58475013D01*
X168414463Y-58296082D01*
X168116912Y-58172832D01*
X167801033Y-58110000D01*
X167478967Y-58110000D01*
X167163088Y-58172832D01*
X166865537Y-58296082D01*
X166597748Y-58475013D01*
X166370013Y-58702748D01*
X166191082Y-58970537D01*
X166067832Y-59268088D01*
X166005000Y-59583967D01*
X166005000Y-59906033D01*
X166067832Y-60221912D01*
X166073823Y-60236375D01*
X154680199Y-71630000D01*
X109534803Y-71630000D01*
X99185000Y-61280199D01*
X99185000Y-45728178D01*
X99371632Y-45603475D01*
X99578475Y-45396632D01*
X99695000Y-45222240D01*
X99811525Y-45396632D01*
X100018368Y-45603475D01*
X100205000Y-45728179D01*
X100205001Y-59652667D01*
X100201324Y-59690000D01*
X100215998Y-59838985D01*
X100259454Y-59982246D01*
X100330026Y-60114276D01*
X100375164Y-60169276D01*
X100425000Y-60230001D01*
X100453998Y-60253799D01*
X109926201Y-69726003D01*
X109949999Y-69755001D01*
X110065724Y-69849974D01*
X110197753Y-69920546D01*
X110341014Y-69964003D01*
X110452667Y-69975000D01*
X110452676Y-69975000D01*
X110489999Y-69978676D01*
X110527322Y-69975000D01*
X124422678Y-69975000D01*
X124460000Y-69978676D01*
X124497322Y-69975000D01*
X124497333Y-69975000D01*
X124608986Y-69964003D01*
X124752247Y-69920546D01*
X124884276Y-69849974D01*
X125000001Y-69755001D01*
X125023804Y-69725997D01*
X130051004Y-64698798D01*
X130080001Y-64675001D01*
X130106332Y-64642917D01*
X130174974Y-64559277D01*
X130245546Y-64427247D01*
X130248592Y-64417205D01*
X130289003Y-64283986D01*
X130300000Y-64172333D01*
X130300000Y-64172323D01*
X130303676Y-64135000D01*
X130300000Y-64097677D01*
X130300000Y-52742322D01*
X130303676Y-52704999D01*
X130300000Y-52667676D01*
X130300000Y-52667667D01*
X130289003Y-52556014D01*
X130245546Y-52412753D01*
X130174974Y-52280724D01*
X130161811Y-52264685D01*
X130103799Y-52193996D01*
X130103795Y-52193992D01*
X130080001Y-52164999D01*
X130051008Y-52141205D01*
X127760000Y-49850199D01*
X127760000Y-46149240D01*
X127933727Y-46077280D01*
X128168759Y-45920237D01*
X128368637Y-45720359D01*
X128525680Y-45485327D01*
X128633853Y-45224174D01*
X128689000Y-44946935D01*
X128689000Y-44664265D01*
X128633853Y-44387026D01*
X128525680Y-44125873D01*
X128368637Y-43890841D01*
X128168759Y-43690963D01*
X127933727Y-43533920D01*
X127672574Y-43425747D01*
X127395335Y-43370600D01*
X127112665Y-43370600D01*
X126835426Y-43425747D01*
X126574273Y-43533920D01*
X126339241Y-43690963D01*
X126139363Y-43890841D01*
X125982320Y-44125873D01*
X125874147Y-44387026D01*
X125819000Y-44664265D01*
X125819000Y-44946935D01*
X125874147Y-45224174D01*
X125982320Y-45485327D01*
X126139363Y-45720359D01*
X126240001Y-45820997D01*
X126240000Y-50127677D01*
X126236324Y-50165000D01*
X126240000Y-50202322D01*
X126240000Y-50202332D01*
X126250997Y-50313985D01*
X126294454Y-50457246D01*
X126365026Y-50589276D01*
X126404871Y-50637826D01*
X126459999Y-50705001D01*
X126489003Y-50728804D01*
X128780001Y-53019804D01*
X128780000Y-63820198D01*
X124145199Y-68455000D01*
X110804802Y-68455000D01*
X101725000Y-59375199D01*
X101725000Y-45728178D01*
X101911632Y-45603475D01*
X102118475Y-45396632D01*
X102240195Y-45214466D01*
X102309822Y-45331355D01*
X102504731Y-45547588D01*
X102738080Y-45721641D01*
X103000901Y-45846825D01*
X103148110Y-45891476D01*
X103378000Y-45770155D01*
X103378000Y-44577000D01*
X103632000Y-44577000D01*
X103632000Y-45770155D01*
X103861890Y-45891476D01*
X104009099Y-45846825D01*
X104271920Y-45721641D01*
X104505269Y-45547588D01*
X104700178Y-45331355D01*
X104775000Y-45205745D01*
X104849822Y-45331355D01*
X105044731Y-45547588D01*
X105278080Y-45721641D01*
X105540901Y-45846825D01*
X105688110Y-45891476D01*
X105918000Y-45770155D01*
X105918000Y-44577000D01*
X103632000Y-44577000D01*
X103378000Y-44577000D01*
X103358000Y-44577000D01*
X103358000Y-44323000D01*
X103378000Y-44323000D01*
X103378000Y-44303000D01*
X103632000Y-44303000D01*
X103632000Y-44323000D01*
X105918000Y-44323000D01*
X105918000Y-44303000D01*
X106172000Y-44303000D01*
X106172000Y-44323000D01*
X106192000Y-44323000D01*
X106192000Y-44577000D01*
X106172000Y-44577000D01*
X106172000Y-45770155D01*
X106401890Y-45891476D01*
X106549099Y-45846825D01*
X106811920Y-45721641D01*
X107045269Y-45547588D01*
X107190001Y-45387022D01*
X107190000Y-62796289D01*
X107146063Y-62840226D01*
X107032795Y-63009744D01*
X106954774Y-63198102D01*
X106915000Y-63398061D01*
X106915000Y-63601939D01*
X106954774Y-63801898D01*
X107032795Y-63990256D01*
X107146063Y-64159774D01*
X107290226Y-64303937D01*
X107459744Y-64417205D01*
X107648102Y-64495226D01*
X107848061Y-64535000D01*
X108051939Y-64535000D01*
X108251898Y-64495226D01*
X108440256Y-64417205D01*
X108609774Y-64303937D01*
X108753937Y-64159774D01*
X108867205Y-63990256D01*
X108945226Y-63801898D01*
X108985000Y-63601939D01*
X108985000Y-63398061D01*
X108945226Y-63198102D01*
X108867205Y-63009744D01*
X108753937Y-62840226D01*
X108710000Y-62796289D01*
X108710000Y-59583967D01*
X114570000Y-59583967D01*
X114570000Y-59906033D01*
X114632832Y-60221912D01*
X114756082Y-60519463D01*
X114935013Y-60787252D01*
X115162748Y-61014987D01*
X115430537Y-61193918D01*
X115728088Y-61317168D01*
X116043967Y-61380000D01*
X116366033Y-61380000D01*
X116681912Y-61317168D01*
X116979463Y-61193918D01*
X117247252Y-61014987D01*
X117474987Y-60787252D01*
X117653918Y-60519463D01*
X117659909Y-60505000D01*
X121250091Y-60505000D01*
X121256082Y-60519463D01*
X121435013Y-60787252D01*
X121662748Y-61014987D01*
X121930537Y-61193918D01*
X122228088Y-61317168D01*
X122543967Y-61380000D01*
X122866033Y-61380000D01*
X123181912Y-61317168D01*
X123479463Y-61193918D01*
X123747252Y-61014987D01*
X123974987Y-60787252D01*
X124153918Y-60519463D01*
X124277168Y-60221912D01*
X124340000Y-59906033D01*
X124340000Y-59583967D01*
X124277168Y-59268088D01*
X124153918Y-58970537D01*
X123974987Y-58702748D01*
X123747252Y-58475013D01*
X123479463Y-58296082D01*
X123181912Y-58172832D01*
X122866033Y-58110000D01*
X122543967Y-58110000D01*
X122228088Y-58172832D01*
X121930537Y-58296082D01*
X121662748Y-58475013D01*
X121435013Y-58702748D01*
X121256082Y-58970537D01*
X121250091Y-58985000D01*
X117659909Y-58985000D01*
X117653918Y-58970537D01*
X117474987Y-58702748D01*
X117247252Y-58475013D01*
X116979463Y-58296082D01*
X116681912Y-58172832D01*
X116366033Y-58110000D01*
X116043967Y-58110000D01*
X115728088Y-58172832D01*
X115430537Y-58296082D01*
X115162748Y-58475013D01*
X114935013Y-58702748D01*
X114756082Y-58970537D01*
X114632832Y-59268088D01*
X114570000Y-59583967D01*
X108710000Y-59583967D01*
X108710000Y-56380413D01*
X115249192Y-56380413D01*
X115344956Y-56644814D01*
X115634571Y-56785704D01*
X115946108Y-56867384D01*
X116267595Y-56886718D01*
X116586675Y-56842961D01*
X116891088Y-56737795D01*
X117065044Y-56644814D01*
X117160808Y-56380413D01*
X121749192Y-56380413D01*
X121844956Y-56644814D01*
X122134571Y-56785704D01*
X122446108Y-56867384D01*
X122767595Y-56886718D01*
X123086675Y-56842961D01*
X123391088Y-56737795D01*
X123565044Y-56644814D01*
X123660808Y-56380413D01*
X122705000Y-55424605D01*
X121749192Y-56380413D01*
X117160808Y-56380413D01*
X116205000Y-55424605D01*
X115249192Y-56380413D01*
X108710000Y-56380413D01*
X108710000Y-55307595D01*
X114563282Y-55307595D01*
X114607039Y-55626675D01*
X114712205Y-55931088D01*
X114805186Y-56105044D01*
X115069587Y-56200808D01*
X116025395Y-55245000D01*
X116384605Y-55245000D01*
X117340413Y-56200808D01*
X117604814Y-56105044D01*
X117745704Y-55815429D01*
X117827384Y-55503892D01*
X117839189Y-55307595D01*
X121063282Y-55307595D01*
X121107039Y-55626675D01*
X121212205Y-55931088D01*
X121305186Y-56105044D01*
X121569587Y-56200808D01*
X122525395Y-55245000D01*
X122884605Y-55245000D01*
X123840413Y-56200808D01*
X124104814Y-56105044D01*
X124245704Y-55815429D01*
X124327384Y-55503892D01*
X124346718Y-55182405D01*
X124302961Y-54863325D01*
X124197795Y-54558912D01*
X124104814Y-54384956D01*
X123840413Y-54289192D01*
X122884605Y-55245000D01*
X122525395Y-55245000D01*
X121569587Y-54289192D01*
X121305186Y-54384956D01*
X121164296Y-54674571D01*
X121082616Y-54986108D01*
X121063282Y-55307595D01*
X117839189Y-55307595D01*
X117846718Y-55182405D01*
X117802961Y-54863325D01*
X117697795Y-54558912D01*
X117604814Y-54384956D01*
X117340413Y-54289192D01*
X116384605Y-55245000D01*
X116025395Y-55245000D01*
X115069587Y-54289192D01*
X114805186Y-54384956D01*
X114664296Y-54674571D01*
X114582616Y-54986108D01*
X114563282Y-55307595D01*
X108710000Y-55307595D01*
X108710000Y-54109587D01*
X115249192Y-54109587D01*
X116205000Y-55065395D01*
X117160808Y-54109587D01*
X121749192Y-54109587D01*
X122705000Y-55065395D01*
X123660808Y-54109587D01*
X123565044Y-53845186D01*
X123275429Y-53704296D01*
X122963892Y-53622616D01*
X122642405Y-53603282D01*
X122323325Y-53647039D01*
X122018912Y-53752205D01*
X121844956Y-53845186D01*
X121749192Y-54109587D01*
X117160808Y-54109587D01*
X117065044Y-53845186D01*
X116775429Y-53704296D01*
X116463892Y-53622616D01*
X116142405Y-53603282D01*
X115823325Y-53647039D01*
X115518912Y-53752205D01*
X115344956Y-53845186D01*
X115249192Y-54109587D01*
X108710000Y-54109587D01*
X108710000Y-41312322D01*
X108713676Y-41274999D01*
X108710000Y-41237676D01*
X108710000Y-41237667D01*
X108699003Y-41126014D01*
X108655546Y-40982753D01*
X108584974Y-40850724D01*
X108490001Y-40734999D01*
X108461003Y-40711201D01*
X107879802Y-40130000D01*
X110175199Y-40130000D01*
X116276201Y-46231003D01*
X116299999Y-46260001D01*
X116328997Y-46283799D01*
X116415723Y-46354974D01*
X116547753Y-46425546D01*
X116691014Y-46469003D01*
X116802667Y-46480000D01*
X116802676Y-46480000D01*
X116839999Y-46483676D01*
X116877322Y-46480000D01*
X121882678Y-46480000D01*
X121920000Y-46483676D01*
X121957322Y-46480000D01*
X121957333Y-46480000D01*
X122068986Y-46469003D01*
X122212247Y-46425546D01*
X122344276Y-46354974D01*
X122460001Y-46260001D01*
X122483804Y-46230997D01*
X125409802Y-43305000D01*
X129860199Y-43305000D01*
X133860000Y-47304802D01*
X133860001Y-53992668D01*
X133856324Y-54030000D01*
X133870998Y-54178985D01*
X133914454Y-54322246D01*
X133985026Y-54454276D01*
X134056201Y-54541002D01*
X134080000Y-54570001D01*
X134108998Y-54593799D01*
X138768823Y-59253625D01*
X138762832Y-59268088D01*
X138700000Y-59583967D01*
X138700000Y-59906033D01*
X138762832Y-60221912D01*
X138886082Y-60519463D01*
X139065013Y-60787252D01*
X139292748Y-61014987D01*
X139560537Y-61193918D01*
X139858088Y-61317168D01*
X140173967Y-61380000D01*
X140496033Y-61380000D01*
X140811912Y-61317168D01*
X141109463Y-61193918D01*
X141377252Y-61014987D01*
X141604987Y-60787252D01*
X141783918Y-60519463D01*
X141789909Y-60505000D01*
X145380091Y-60505000D01*
X145386082Y-60519463D01*
X145565013Y-60787252D01*
X145792748Y-61014987D01*
X146060537Y-61193918D01*
X146358088Y-61317168D01*
X146673967Y-61380000D01*
X146996033Y-61380000D01*
X147311912Y-61317168D01*
X147609463Y-61193918D01*
X147877252Y-61014987D01*
X148104987Y-60787252D01*
X148283918Y-60519463D01*
X148407168Y-60221912D01*
X148470000Y-59906033D01*
X148470000Y-59583967D01*
X148407168Y-59268088D01*
X148283918Y-58970537D01*
X148104987Y-58702748D01*
X147877252Y-58475013D01*
X147609463Y-58296082D01*
X147311912Y-58172832D01*
X146996033Y-58110000D01*
X146673967Y-58110000D01*
X146358088Y-58172832D01*
X146060537Y-58296082D01*
X145792748Y-58475013D01*
X145565013Y-58702748D01*
X145386082Y-58970537D01*
X145380091Y-58985000D01*
X141789909Y-58985000D01*
X141783918Y-58970537D01*
X141604987Y-58702748D01*
X141377252Y-58475013D01*
X141109463Y-58296082D01*
X140811912Y-58172832D01*
X140496033Y-58110000D01*
X140173967Y-58110000D01*
X139858088Y-58172832D01*
X139843625Y-58178823D01*
X138045215Y-56380413D01*
X139379192Y-56380413D01*
X139474956Y-56644814D01*
X139764571Y-56785704D01*
X140076108Y-56867384D01*
X140397595Y-56886718D01*
X140716675Y-56842961D01*
X141021088Y-56737795D01*
X141195044Y-56644814D01*
X141290808Y-56380413D01*
X145879192Y-56380413D01*
X145974956Y-56644814D01*
X146264571Y-56785704D01*
X146576108Y-56867384D01*
X146897595Y-56886718D01*
X147216675Y-56842961D01*
X147521088Y-56737795D01*
X147695044Y-56644814D01*
X147790808Y-56380413D01*
X166684192Y-56380413D01*
X166779956Y-56644814D01*
X167069571Y-56785704D01*
X167381108Y-56867384D01*
X167702595Y-56886718D01*
X168021675Y-56842961D01*
X168326088Y-56737795D01*
X168500044Y-56644814D01*
X168595808Y-56380413D01*
X173184192Y-56380413D01*
X173279956Y-56644814D01*
X173569571Y-56785704D01*
X173881108Y-56867384D01*
X174202595Y-56886718D01*
X174521675Y-56842961D01*
X174826088Y-56737795D01*
X175000044Y-56644814D01*
X175095808Y-56380413D01*
X174140000Y-55424605D01*
X173184192Y-56380413D01*
X168595808Y-56380413D01*
X167640000Y-55424605D01*
X166684192Y-56380413D01*
X147790808Y-56380413D01*
X146835000Y-55424605D01*
X145879192Y-56380413D01*
X141290808Y-56380413D01*
X140335000Y-55424605D01*
X139379192Y-56380413D01*
X138045215Y-56380413D01*
X136972397Y-55307595D01*
X138693282Y-55307595D01*
X138737039Y-55626675D01*
X138842205Y-55931088D01*
X138935186Y-56105044D01*
X139199587Y-56200808D01*
X140155395Y-55245000D01*
X140514605Y-55245000D01*
X141470413Y-56200808D01*
X141734814Y-56105044D01*
X141875704Y-55815429D01*
X141957384Y-55503892D01*
X141969189Y-55307595D01*
X145193282Y-55307595D01*
X145237039Y-55626675D01*
X145342205Y-55931088D01*
X145435186Y-56105044D01*
X145699587Y-56200808D01*
X146655395Y-55245000D01*
X147014605Y-55245000D01*
X147970413Y-56200808D01*
X148234814Y-56105044D01*
X148375704Y-55815429D01*
X148457384Y-55503892D01*
X148469189Y-55307595D01*
X165998282Y-55307595D01*
X166042039Y-55626675D01*
X166147205Y-55931088D01*
X166240186Y-56105044D01*
X166504587Y-56200808D01*
X167460395Y-55245000D01*
X167819605Y-55245000D01*
X168775413Y-56200808D01*
X169039814Y-56105044D01*
X169180704Y-55815429D01*
X169262384Y-55503892D01*
X169274189Y-55307595D01*
X172498282Y-55307595D01*
X172542039Y-55626675D01*
X172647205Y-55931088D01*
X172740186Y-56105044D01*
X173004587Y-56200808D01*
X173960395Y-55245000D01*
X174319605Y-55245000D01*
X175275413Y-56200808D01*
X175539814Y-56105044D01*
X175680704Y-55815429D01*
X175762384Y-55503892D01*
X175781718Y-55182405D01*
X175737961Y-54863325D01*
X175632795Y-54558912D01*
X175539814Y-54384956D01*
X175275413Y-54289192D01*
X174319605Y-55245000D01*
X173960395Y-55245000D01*
X173004587Y-54289192D01*
X172740186Y-54384956D01*
X172599296Y-54674571D01*
X172517616Y-54986108D01*
X172498282Y-55307595D01*
X169274189Y-55307595D01*
X169281718Y-55182405D01*
X169237961Y-54863325D01*
X169132795Y-54558912D01*
X169039814Y-54384956D01*
X168775413Y-54289192D01*
X167819605Y-55245000D01*
X167460395Y-55245000D01*
X166504587Y-54289192D01*
X166240186Y-54384956D01*
X166099296Y-54674571D01*
X166017616Y-54986108D01*
X165998282Y-55307595D01*
X148469189Y-55307595D01*
X148476718Y-55182405D01*
X148432961Y-54863325D01*
X148327795Y-54558912D01*
X148234814Y-54384956D01*
X147970413Y-54289192D01*
X147014605Y-55245000D01*
X146655395Y-55245000D01*
X145699587Y-54289192D01*
X145435186Y-54384956D01*
X145294296Y-54674571D01*
X145212616Y-54986108D01*
X145193282Y-55307595D01*
X141969189Y-55307595D01*
X141976718Y-55182405D01*
X141932961Y-54863325D01*
X141827795Y-54558912D01*
X141734814Y-54384956D01*
X141470413Y-54289192D01*
X140514605Y-55245000D01*
X140155395Y-55245000D01*
X139199587Y-54289192D01*
X138935186Y-54384956D01*
X138794296Y-54674571D01*
X138712616Y-54986108D01*
X138693282Y-55307595D01*
X136972397Y-55307595D01*
X135774389Y-54109587D01*
X139379192Y-54109587D01*
X140335000Y-55065395D01*
X141290808Y-54109587D01*
X145879192Y-54109587D01*
X146835000Y-55065395D01*
X147790808Y-54109587D01*
X166684192Y-54109587D01*
X167640000Y-55065395D01*
X168595808Y-54109587D01*
X173184192Y-54109587D01*
X174140000Y-55065395D01*
X175095808Y-54109587D01*
X175000044Y-53845186D01*
X174710429Y-53704296D01*
X174398892Y-53622616D01*
X174077405Y-53603282D01*
X173758325Y-53647039D01*
X173453912Y-53752205D01*
X173279956Y-53845186D01*
X173184192Y-54109587D01*
X168595808Y-54109587D01*
X168500044Y-53845186D01*
X168210429Y-53704296D01*
X167898892Y-53622616D01*
X167577405Y-53603282D01*
X167258325Y-53647039D01*
X166953912Y-53752205D01*
X166779956Y-53845186D01*
X166684192Y-54109587D01*
X147790808Y-54109587D01*
X147695044Y-53845186D01*
X147405429Y-53704296D01*
X147093892Y-53622616D01*
X146772405Y-53603282D01*
X146453325Y-53647039D01*
X146148912Y-53752205D01*
X145974956Y-53845186D01*
X145879192Y-54109587D01*
X141290808Y-54109587D01*
X141195044Y-53845186D01*
X140905429Y-53704296D01*
X140593892Y-53622616D01*
X140272405Y-53603282D01*
X139953325Y-53647039D01*
X139648912Y-53752205D01*
X139474956Y-53845186D01*
X139379192Y-54109587D01*
X135774389Y-54109587D01*
X135380000Y-53715199D01*
X135380000Y-47027322D01*
X135383676Y-46989999D01*
X135380000Y-46952676D01*
X135380000Y-46952667D01*
X135369003Y-46841014D01*
X135325546Y-46697753D01*
X135254974Y-46565724D01*
X135160001Y-46449999D01*
X135131004Y-46426202D01*
X130738804Y-42034003D01*
X130715001Y-42004999D01*
X130599276Y-41910026D01*
X130467247Y-41839454D01*
X130323986Y-41795997D01*
X130212333Y-41785000D01*
X130212322Y-41785000D01*
X130175000Y-41781324D01*
X130137678Y-41785000D01*
X125132322Y-41785000D01*
X125094999Y-41781324D01*
X125057676Y-41785000D01*
X125057667Y-41785000D01*
X124946014Y-41795997D01*
X124804912Y-41838799D01*
X124802753Y-41839454D01*
X124670723Y-41910026D01*
X124596818Y-41970679D01*
X124554999Y-42004999D01*
X124531201Y-42033997D01*
X121605199Y-44960000D01*
X117154802Y-44960000D01*
X113234900Y-41040098D01*
X117249000Y-41040098D01*
X117249000Y-41509902D01*
X117340654Y-41970679D01*
X117520440Y-42404721D01*
X117781450Y-42795349D01*
X118113651Y-43127550D01*
X118504279Y-43388560D01*
X118938321Y-43568346D01*
X119399098Y-43660000D01*
X119868902Y-43660000D01*
X120329679Y-43568346D01*
X120763721Y-43388560D01*
X121154349Y-43127550D01*
X121486550Y-42795349D01*
X121747560Y-42404721D01*
X121927346Y-41970679D01*
X122019000Y-41509902D01*
X122019000Y-41040098D01*
X121954624Y-40716455D01*
X133331048Y-40716455D01*
X133370730Y-40966449D01*
X133458422Y-41203896D01*
X133505799Y-41292534D01*
X133734473Y-41345922D01*
X134440395Y-40640000D01*
X133734473Y-39934078D01*
X133505799Y-39987466D01*
X133399905Y-40217374D01*
X133340898Y-40463524D01*
X133331048Y-40716455D01*
X121954624Y-40716455D01*
X121927346Y-40579321D01*
X121747560Y-40145279D01*
X121486550Y-39754651D01*
X121154349Y-39422450D01*
X120763721Y-39161440D01*
X120329679Y-38981654D01*
X119868902Y-38890000D01*
X119399098Y-38890000D01*
X118938321Y-38981654D01*
X118504279Y-39161440D01*
X118113651Y-39422450D01*
X117781450Y-39754651D01*
X117520440Y-40145279D01*
X117340654Y-40579321D01*
X117249000Y-41040098D01*
X113234900Y-41040098D01*
X111053804Y-38859003D01*
X111030001Y-38829999D01*
X110944707Y-38760000D01*
X134752132Y-38760000D01*
X134751247Y-38761324D01*
X134654381Y-38995179D01*
X134605000Y-39243439D01*
X134605000Y-39353441D01*
X134543545Y-39351048D01*
X134293551Y-39390730D01*
X134056104Y-39478422D01*
X133967466Y-39525799D01*
X133914078Y-39754473D01*
X134620000Y-40460395D01*
X134634143Y-40446253D01*
X134813748Y-40625858D01*
X134799605Y-40640000D01*
X134813748Y-40654143D01*
X134634143Y-40833748D01*
X134620000Y-40819605D01*
X133914078Y-41525527D01*
X133967466Y-41754201D01*
X134197374Y-41860095D01*
X134443524Y-41919102D01*
X134696455Y-41928952D01*
X134946449Y-41889270D01*
X135130000Y-41821482D01*
X135130000Y-43142677D01*
X135126324Y-43180000D01*
X135130000Y-43217322D01*
X135130000Y-43217332D01*
X135140997Y-43328985D01*
X135173991Y-43437753D01*
X135184454Y-43472246D01*
X135255026Y-43604276D01*
X135277110Y-43631185D01*
X135349999Y-43720001D01*
X135379003Y-43743804D01*
X136596201Y-44961003D01*
X136619999Y-44990001D01*
X136735724Y-45084974D01*
X136867753Y-45155546D01*
X137011014Y-45199003D01*
X137122667Y-45210000D01*
X137122676Y-45210000D01*
X137159999Y-45213676D01*
X137197322Y-45210000D01*
X138571328Y-45210000D01*
X138574147Y-45224174D01*
X138682320Y-45485327D01*
X138839363Y-45720359D01*
X139039241Y-45920237D01*
X139274273Y-46077280D01*
X139535426Y-46185453D01*
X139812665Y-46240600D01*
X140095335Y-46240600D01*
X140372574Y-46185453D01*
X140633727Y-46077280D01*
X140868759Y-45920237D01*
X141068637Y-45720359D01*
X141225680Y-45485327D01*
X141333853Y-45224174D01*
X141389000Y-44946935D01*
X141389000Y-44664265D01*
X141333853Y-44387026D01*
X141225680Y-44125873D01*
X141068637Y-43890841D01*
X140868759Y-43690963D01*
X140633727Y-43533920D01*
X140372574Y-43425747D01*
X140095335Y-43370600D01*
X139812665Y-43370600D01*
X139535426Y-43425747D01*
X139274273Y-43533920D01*
X139040682Y-43690000D01*
X137474802Y-43690000D01*
X136650000Y-42865199D01*
X136650000Y-41928072D01*
X136738271Y-41928072D01*
X137866200Y-43056002D01*
X137889999Y-43085001D01*
X138005724Y-43179974D01*
X138137753Y-43250546D01*
X138281014Y-43294003D01*
X138392667Y-43305000D01*
X138392676Y-43305000D01*
X138429999Y-43308676D01*
X138467322Y-43305000D01*
X143485091Y-43305000D01*
X143491082Y-43319463D01*
X143670013Y-43587252D01*
X143897748Y-43814987D01*
X144165537Y-43993918D01*
X144463088Y-44117168D01*
X144778967Y-44180000D01*
X145101033Y-44180000D01*
X145416912Y-44117168D01*
X145714463Y-43993918D01*
X145982252Y-43814987D01*
X146209987Y-43587252D01*
X146388918Y-43319463D01*
X146512168Y-43021912D01*
X146575000Y-42706033D01*
X146575000Y-42383967D01*
X146512168Y-42068088D01*
X146388918Y-41770537D01*
X146209987Y-41502748D01*
X145982252Y-41275013D01*
X145714463Y-41096082D01*
X145416912Y-40972832D01*
X145101033Y-40910000D01*
X144778967Y-40910000D01*
X144463088Y-40972832D01*
X144165537Y-41096082D01*
X143897748Y-41275013D01*
X143670013Y-41502748D01*
X143491082Y-41770537D01*
X143485091Y-41785000D01*
X138744802Y-41785000D01*
X138421492Y-41461690D01*
X138435812Y-41414482D01*
X138448072Y-41290000D01*
X138448072Y-39990000D01*
X138435812Y-39865518D01*
X138399502Y-39745820D01*
X138340537Y-39635506D01*
X138261185Y-39538815D01*
X138164494Y-39459463D01*
X138054180Y-39400498D01*
X137934482Y-39364188D01*
X137810000Y-39351928D01*
X137175000Y-39351928D01*
X137175000Y-39243439D01*
X137125619Y-38995179D01*
X137028753Y-38761324D01*
X137027868Y-38760000D01*
X193699903Y-38760000D01*
X193730214Y-39145142D01*
X193746415Y-39247433D01*
X193979027Y-40216329D01*
X193979027Y-40216332D01*
X194011031Y-40314829D01*
X194392349Y-41235410D01*
X194392349Y-41235411D01*
X194439366Y-41327689D01*
X194959999Y-42177284D01*
X194960000Y-42177285D01*
X195020874Y-42261072D01*
X195668004Y-43018764D01*
X195741236Y-43091996D01*
X196498927Y-43739125D01*
X196498928Y-43739126D01*
X196582715Y-43800001D01*
X197432311Y-44320634D01*
X197524590Y-44367652D01*
X197524597Y-44367654D01*
X198445171Y-44748969D01*
X198543668Y-44780973D01*
X199512567Y-45013585D01*
X199614858Y-45029786D01*
X200608217Y-45107965D01*
X200711785Y-45107965D01*
X201705142Y-45029786D01*
X201807433Y-45013585D01*
X202776329Y-44780973D01*
X202776332Y-44780973D01*
X202874829Y-44748969D01*
X203795411Y-44367651D01*
X203887689Y-44320634D01*
X204737285Y-43800000D01*
X204748248Y-43792035D01*
X204821072Y-43739126D01*
X205475724Y-43180000D01*
X208911928Y-43180000D01*
X208924188Y-43304482D01*
X208960498Y-43424180D01*
X209019463Y-43534494D01*
X209098815Y-43631185D01*
X209195506Y-43710537D01*
X209305820Y-43769502D01*
X209425518Y-43805812D01*
X209550000Y-43818072D01*
X210534250Y-43815000D01*
X210693000Y-43656250D01*
X210693000Y-42037000D01*
X210947000Y-42037000D01*
X210947000Y-43656250D01*
X211105750Y-43815000D01*
X212090000Y-43818072D01*
X213074250Y-43815000D01*
X213233000Y-43656250D01*
X213233000Y-42037000D01*
X213487000Y-42037000D01*
X213487000Y-43656250D01*
X213645750Y-43815000D01*
X214630000Y-43818072D01*
X214754482Y-43805812D01*
X214874180Y-43769502D01*
X214984494Y-43710537D01*
X215081185Y-43631185D01*
X215160537Y-43534494D01*
X215219502Y-43424180D01*
X215255812Y-43304482D01*
X215268072Y-43180000D01*
X215265000Y-42195750D01*
X215106250Y-42037000D01*
X213487000Y-42037000D01*
X213233000Y-42037000D01*
X210947000Y-42037000D01*
X210693000Y-42037000D01*
X209073750Y-42037000D01*
X208915000Y-42195750D01*
X208911928Y-43180000D01*
X205475724Y-43180000D01*
X205578764Y-43091996D01*
X205651996Y-43018764D01*
X206299126Y-42261072D01*
X206305170Y-42252753D01*
X206360001Y-42177285D01*
X206880634Y-41327689D01*
X206927652Y-41235410D01*
X206927654Y-41235403D01*
X207174278Y-40640000D01*
X208911928Y-40640000D01*
X208915000Y-41624250D01*
X209073750Y-41783000D01*
X210693000Y-41783000D01*
X210693000Y-40163750D01*
X210947000Y-40163750D01*
X210947000Y-41783000D01*
X213233000Y-41783000D01*
X213233000Y-40163750D01*
X213487000Y-40163750D01*
X213487000Y-41783000D01*
X215106250Y-41783000D01*
X215265000Y-41624250D01*
X215268072Y-40640000D01*
X215255812Y-40515518D01*
X215219502Y-40395820D01*
X215160537Y-40285506D01*
X215081185Y-40188815D01*
X214984494Y-40109463D01*
X214874180Y-40050498D01*
X214754482Y-40014188D01*
X214630000Y-40001928D01*
X213645750Y-40005000D01*
X213487000Y-40163750D01*
X213233000Y-40163750D01*
X213074250Y-40005000D01*
X212090000Y-40001928D01*
X211105750Y-40005000D01*
X210947000Y-40163750D01*
X210693000Y-40163750D01*
X210534250Y-40005000D01*
X209550000Y-40001928D01*
X209425518Y-40014188D01*
X209305820Y-40050498D01*
X209195506Y-40109463D01*
X209098815Y-40188815D01*
X209019463Y-40285506D01*
X208960498Y-40395820D01*
X208924188Y-40515518D01*
X208911928Y-40640000D01*
X207174278Y-40640000D01*
X207308969Y-40314829D01*
X207340973Y-40216332D01*
X207340973Y-40216331D01*
X207573585Y-39247433D01*
X207589786Y-39145142D01*
X207620097Y-38760000D01*
X219050000Y-38760000D01*
X219050001Y-104750000D01*
X207620097Y-104750000D01*
X207589786Y-104364858D01*
X207573585Y-104262567D01*
X207340973Y-103293668D01*
X207308969Y-103195171D01*
X206927654Y-102274597D01*
X206927652Y-102274590D01*
X206880634Y-102182311D01*
X206360001Y-101332715D01*
X206299126Y-101248928D01*
X205651996Y-100491236D01*
X205578764Y-100418004D01*
X204821072Y-99770874D01*
X204737285Y-99710000D01*
X204737283Y-99709999D01*
X203887689Y-99189366D01*
X203795411Y-99142349D01*
X202874829Y-98761031D01*
X202776332Y-98729027D01*
X202776329Y-98729027D01*
X202634597Y-98695000D01*
X208546928Y-98695000D01*
X208546928Y-100695000D01*
X208559188Y-100819482D01*
X208595498Y-100939180D01*
X208654463Y-101049494D01*
X208733815Y-101146185D01*
X208830506Y-101225537D01*
X208940820Y-101284502D01*
X209060518Y-101320812D01*
X209185000Y-101333072D01*
X211185000Y-101333072D01*
X211309482Y-101320812D01*
X211429180Y-101284502D01*
X211539494Y-101225537D01*
X211636185Y-101146185D01*
X211715537Y-101049494D01*
X211774502Y-100939180D01*
X211807496Y-100830413D01*
X214229192Y-100830413D01*
X214324956Y-101094814D01*
X214614571Y-101235704D01*
X214926108Y-101317384D01*
X215247595Y-101336718D01*
X215566675Y-101292961D01*
X215871088Y-101187795D01*
X216045044Y-101094814D01*
X216140808Y-100830413D01*
X215185000Y-99874605D01*
X214229192Y-100830413D01*
X211807496Y-100830413D01*
X211810812Y-100819482D01*
X211823072Y-100695000D01*
X211823072Y-99757595D01*
X213543282Y-99757595D01*
X213587039Y-100076675D01*
X213692205Y-100381088D01*
X213785186Y-100555044D01*
X214049587Y-100650808D01*
X215005395Y-99695000D01*
X215364605Y-99695000D01*
X216320413Y-100650808D01*
X216584814Y-100555044D01*
X216725704Y-100265429D01*
X216807384Y-99953892D01*
X216826718Y-99632405D01*
X216782961Y-99313325D01*
X216677795Y-99008912D01*
X216584814Y-98834956D01*
X216320413Y-98739192D01*
X215364605Y-99695000D01*
X215005395Y-99695000D01*
X214049587Y-98739192D01*
X213785186Y-98834956D01*
X213644296Y-99124571D01*
X213562616Y-99436108D01*
X213543282Y-99757595D01*
X211823072Y-99757595D01*
X211823072Y-98695000D01*
X211810812Y-98570518D01*
X211807497Y-98559587D01*
X214229192Y-98559587D01*
X215185000Y-99515395D01*
X216140808Y-98559587D01*
X216045044Y-98295186D01*
X215755429Y-98154296D01*
X215443892Y-98072616D01*
X215122405Y-98053282D01*
X214803325Y-98097039D01*
X214498912Y-98202205D01*
X214324956Y-98295186D01*
X214229192Y-98559587D01*
X211807497Y-98559587D01*
X211774502Y-98450820D01*
X211715537Y-98340506D01*
X211636185Y-98243815D01*
X211539494Y-98164463D01*
X211429180Y-98105498D01*
X211309482Y-98069188D01*
X211185000Y-98056928D01*
X209185000Y-98056928D01*
X209060518Y-98069188D01*
X208940820Y-98105498D01*
X208830506Y-98164463D01*
X208733815Y-98243815D01*
X208654463Y-98340506D01*
X208595498Y-98450820D01*
X208559188Y-98570518D01*
X208546928Y-98695000D01*
X202634597Y-98695000D01*
X201807433Y-98496415D01*
X201705142Y-98480214D01*
X200711785Y-98402035D01*
X200608217Y-98402035D01*
X199614858Y-98480214D01*
X199512567Y-98496415D01*
X198543668Y-98729027D01*
X198445171Y-98761031D01*
X197524597Y-99142346D01*
X197524590Y-99142348D01*
X197432311Y-99189366D01*
X196582715Y-99709999D01*
X196517205Y-99757595D01*
X196498928Y-99770874D01*
X195741236Y-100418004D01*
X195668004Y-100491236D01*
X195020874Y-101248928D01*
X194968648Y-101320812D01*
X194960000Y-101332715D01*
X194439366Y-102182311D01*
X194401216Y-102257186D01*
X194392349Y-102274589D01*
X194011031Y-103195171D01*
X193984767Y-103276004D01*
X193979027Y-103293669D01*
X193746415Y-104262567D01*
X193730214Y-104364858D01*
X193699903Y-104750000D01*
X72245233Y-104750000D01*
X72140087Y-103934851D01*
X72136929Y-103919603D01*
X72135383Y-103904111D01*
X72119784Y-103836811D01*
X71832154Y-102837019D01*
X71826725Y-102822422D01*
X71822854Y-102807344D01*
X71797255Y-102743178D01*
X71454690Y-102000098D01*
X117249000Y-102000098D01*
X117249000Y-102469902D01*
X117340654Y-102930679D01*
X117520440Y-103364721D01*
X117781450Y-103755349D01*
X118113651Y-104087550D01*
X118504279Y-104348560D01*
X118938321Y-104528346D01*
X119399098Y-104620000D01*
X119868902Y-104620000D01*
X120329679Y-104528346D01*
X120763721Y-104348560D01*
X121154349Y-104087550D01*
X121459197Y-103782702D01*
X142696903Y-103782702D01*
X142768486Y-104026671D01*
X143023996Y-104147571D01*
X143298184Y-104216300D01*
X143580512Y-104230217D01*
X143860130Y-104188787D01*
X144126292Y-104093603D01*
X144251514Y-104026671D01*
X144281224Y-103925413D01*
X152079192Y-103925413D01*
X152174956Y-104189814D01*
X152464571Y-104330704D01*
X152776108Y-104412384D01*
X153097595Y-104431718D01*
X153416675Y-104387961D01*
X153721088Y-104282795D01*
X153895044Y-104189814D01*
X153990808Y-103925413D01*
X153035000Y-102969605D01*
X152079192Y-103925413D01*
X144281224Y-103925413D01*
X144323097Y-103782702D01*
X143510000Y-102969605D01*
X142696903Y-103782702D01*
X121459197Y-103782702D01*
X121486550Y-103755349D01*
X121747560Y-103364721D01*
X121927346Y-102930679D01*
X121941303Y-102860512D01*
X142069783Y-102860512D01*
X142111213Y-103140130D01*
X142206397Y-103406292D01*
X142273329Y-103531514D01*
X142517298Y-103603097D01*
X143330395Y-102790000D01*
X143689605Y-102790000D01*
X144502702Y-103603097D01*
X144746671Y-103531514D01*
X144867571Y-103276004D01*
X144936300Y-103001816D01*
X144943655Y-102852595D01*
X151393282Y-102852595D01*
X151437039Y-103171675D01*
X151542205Y-103476088D01*
X151635186Y-103650044D01*
X151899587Y-103745808D01*
X152855395Y-102790000D01*
X153214605Y-102790000D01*
X154170413Y-103745808D01*
X154434814Y-103650044D01*
X154575704Y-103360429D01*
X154657384Y-103048892D01*
X154676718Y-102727405D01*
X154632961Y-102408325D01*
X154527795Y-102103912D01*
X154472306Y-102000098D01*
X162207000Y-102000098D01*
X162207000Y-102469902D01*
X162298654Y-102930679D01*
X162478440Y-103364721D01*
X162739450Y-103755349D01*
X163071651Y-104087550D01*
X163462279Y-104348560D01*
X163896321Y-104528346D01*
X164357098Y-104620000D01*
X164826902Y-104620000D01*
X165287679Y-104528346D01*
X165721721Y-104348560D01*
X166112349Y-104087550D01*
X166444550Y-103755349D01*
X166705560Y-103364721D01*
X166773555Y-103200565D01*
X175744040Y-103200565D01*
X175811020Y-103440656D01*
X176060048Y-103557756D01*
X176327135Y-103624023D01*
X176602017Y-103636910D01*
X176874133Y-103595922D01*
X177133023Y-103502636D01*
X177248980Y-103440656D01*
X177315960Y-103200565D01*
X191238040Y-103200565D01*
X191305020Y-103440656D01*
X191554048Y-103557756D01*
X191821135Y-103624023D01*
X192096017Y-103636910D01*
X192368133Y-103595922D01*
X192627023Y-103502636D01*
X192742980Y-103440656D01*
X192809960Y-103200565D01*
X192024000Y-102414605D01*
X191238040Y-103200565D01*
X177315960Y-103200565D01*
X176530000Y-102414605D01*
X175744040Y-103200565D01*
X166773555Y-103200565D01*
X166885346Y-102930679D01*
X166977000Y-102469902D01*
X166977000Y-102307017D01*
X175128090Y-102307017D01*
X175169078Y-102579133D01*
X175262364Y-102838023D01*
X175324344Y-102953980D01*
X175564435Y-103020960D01*
X176350395Y-102235000D01*
X176709605Y-102235000D01*
X177495565Y-103020960D01*
X177735656Y-102953980D01*
X177852756Y-102704952D01*
X177919023Y-102437865D01*
X177925157Y-102307017D01*
X190622090Y-102307017D01*
X190663078Y-102579133D01*
X190756364Y-102838023D01*
X190818344Y-102953980D01*
X191058435Y-103020960D01*
X191844395Y-102235000D01*
X192203605Y-102235000D01*
X192989565Y-103020960D01*
X193229656Y-102953980D01*
X193346756Y-102704952D01*
X193413023Y-102437865D01*
X193425910Y-102162983D01*
X193384922Y-101890867D01*
X193291636Y-101631977D01*
X193229656Y-101516020D01*
X192989565Y-101449040D01*
X192203605Y-102235000D01*
X191844395Y-102235000D01*
X191058435Y-101449040D01*
X190818344Y-101516020D01*
X190701244Y-101765048D01*
X190634977Y-102032135D01*
X190622090Y-102307017D01*
X177925157Y-102307017D01*
X177931910Y-102162983D01*
X177890922Y-101890867D01*
X177797636Y-101631977D01*
X177735656Y-101516020D01*
X177495565Y-101449040D01*
X176709605Y-102235000D01*
X176350395Y-102235000D01*
X175564435Y-101449040D01*
X175324344Y-101516020D01*
X175207244Y-101765048D01*
X175140977Y-102032135D01*
X175128090Y-102307017D01*
X166977000Y-102307017D01*
X166977000Y-102000098D01*
X166885346Y-101539321D01*
X166773556Y-101269435D01*
X175744040Y-101269435D01*
X176530000Y-102055395D01*
X177315960Y-101269435D01*
X191238040Y-101269435D01*
X192024000Y-102055395D01*
X192809960Y-101269435D01*
X192742980Y-101029344D01*
X192493952Y-100912244D01*
X192226865Y-100845977D01*
X191951983Y-100833090D01*
X191679867Y-100874078D01*
X191420977Y-100967364D01*
X191305020Y-101029344D01*
X191238040Y-101269435D01*
X177315960Y-101269435D01*
X177248980Y-101029344D01*
X176999952Y-100912244D01*
X176732865Y-100845977D01*
X176457983Y-100833090D01*
X176185867Y-100874078D01*
X175926977Y-100967364D01*
X175811020Y-101029344D01*
X175744040Y-101269435D01*
X166773556Y-101269435D01*
X166705560Y-101105279D01*
X166444550Y-100714651D01*
X166112349Y-100382450D01*
X165721721Y-100121440D01*
X165287679Y-99941654D01*
X164826902Y-99850000D01*
X164357098Y-99850000D01*
X163896321Y-99941654D01*
X163462279Y-100121440D01*
X163071651Y-100382450D01*
X162739450Y-100714651D01*
X162478440Y-101105279D01*
X162298654Y-101539321D01*
X162207000Y-102000098D01*
X154472306Y-102000098D01*
X154434814Y-101929956D01*
X154170413Y-101834192D01*
X153214605Y-102790000D01*
X152855395Y-102790000D01*
X151899587Y-101834192D01*
X151635186Y-101929956D01*
X151494296Y-102219571D01*
X151412616Y-102531108D01*
X151393282Y-102852595D01*
X144943655Y-102852595D01*
X144950217Y-102719488D01*
X144908787Y-102439870D01*
X144813603Y-102173708D01*
X144746671Y-102048486D01*
X144502702Y-101976903D01*
X143689605Y-102790000D01*
X143330395Y-102790000D01*
X142517298Y-101976903D01*
X142273329Y-102048486D01*
X142152429Y-102303996D01*
X142083700Y-102578184D01*
X142069783Y-102860512D01*
X121941303Y-102860512D01*
X122019000Y-102469902D01*
X122019000Y-102000098D01*
X121978661Y-101797298D01*
X142696903Y-101797298D01*
X143510000Y-102610395D01*
X144323097Y-101797298D01*
X144281225Y-101654587D01*
X152079192Y-101654587D01*
X153035000Y-102610395D01*
X153990808Y-101654587D01*
X153895044Y-101390186D01*
X153605429Y-101249296D01*
X153293892Y-101167616D01*
X152972405Y-101148282D01*
X152653325Y-101192039D01*
X152348912Y-101297205D01*
X152174956Y-101390186D01*
X152079192Y-101654587D01*
X144281225Y-101654587D01*
X144251514Y-101553329D01*
X143996004Y-101432429D01*
X143721816Y-101363700D01*
X143439488Y-101349783D01*
X143159870Y-101391213D01*
X142893708Y-101486397D01*
X142768486Y-101553329D01*
X142696903Y-101797298D01*
X121978661Y-101797298D01*
X121927346Y-101539321D01*
X121747560Y-101105279D01*
X121486550Y-100714651D01*
X121154349Y-100382450D01*
X120763721Y-100121440D01*
X120329679Y-99941654D01*
X119868902Y-99850000D01*
X119399098Y-99850000D01*
X118938321Y-99941654D01*
X118504279Y-100121440D01*
X118113651Y-100382450D01*
X117781450Y-100714651D01*
X117520440Y-101105279D01*
X117340654Y-101539321D01*
X117249000Y-102000098D01*
X71454690Y-102000098D01*
X71361704Y-101798397D01*
X71354134Y-101784797D01*
X71348023Y-101770469D01*
X71313012Y-101710914D01*
X70739565Y-100842885D01*
X70730022Y-100830582D01*
X70721817Y-100817349D01*
X70678201Y-100763774D01*
X69980054Y-99992474D01*
X69968755Y-99981752D01*
X69958647Y-99969917D01*
X69907429Y-99923556D01*
X69100647Y-99266732D01*
X69087858Y-99257843D01*
X69076074Y-99247672D01*
X69018433Y-99209592D01*
X68121582Y-98682360D01*
X68107598Y-98675509D01*
X68094409Y-98667236D01*
X68031671Y-98638313D01*
X67065390Y-98252806D01*
X67050533Y-98248150D01*
X67036242Y-98241966D01*
X66969851Y-98222866D01*
X65956376Y-97987955D01*
X65940981Y-97985599D01*
X65925923Y-97981649D01*
X65857407Y-97972810D01*
X64827353Y-97894456D01*
X64802419Y-97892000D01*
X64160000Y-97892000D01*
X64160000Y-97790000D01*
X141867089Y-97790000D01*
X141898658Y-98110516D01*
X141992148Y-98418714D01*
X142143970Y-98702752D01*
X142348287Y-98951713D01*
X142597248Y-99156030D01*
X142881286Y-99307852D01*
X143189484Y-99401342D01*
X143510000Y-99432911D01*
X143830516Y-99401342D01*
X144138714Y-99307852D01*
X144422752Y-99156030D01*
X144609323Y-99002915D01*
X145457239Y-98155000D01*
X151396928Y-98155000D01*
X151396928Y-98790000D01*
X151409188Y-98914482D01*
X151445498Y-99034180D01*
X151504463Y-99144494D01*
X151583815Y-99241185D01*
X151680506Y-99320537D01*
X151790820Y-99379502D01*
X151910518Y-99415812D01*
X152035000Y-99428072D01*
X152985869Y-99428072D01*
X153035000Y-99432911D01*
X153084131Y-99428072D01*
X154035000Y-99428072D01*
X154159482Y-99415812D01*
X154279180Y-99379502D01*
X154389494Y-99320537D01*
X154486185Y-99241185D01*
X154565537Y-99144494D01*
X154624502Y-99034180D01*
X154660812Y-98914482D01*
X154673072Y-98790000D01*
X154673072Y-97512702D01*
X197386903Y-97512702D01*
X197458486Y-97756671D01*
X197713996Y-97877571D01*
X197988184Y-97946300D01*
X198270512Y-97960217D01*
X198550130Y-97918787D01*
X198816292Y-97823603D01*
X198941514Y-97756671D01*
X199013097Y-97512702D01*
X198200000Y-96699605D01*
X197386903Y-97512702D01*
X154673072Y-97512702D01*
X154673072Y-97194166D01*
X155276726Y-96590512D01*
X196759783Y-96590512D01*
X196801213Y-96870130D01*
X196896397Y-97136292D01*
X196963329Y-97261514D01*
X197207298Y-97333097D01*
X198020395Y-96520000D01*
X198379605Y-96520000D01*
X199192702Y-97333097D01*
X199436671Y-97261514D01*
X199557571Y-97006004D01*
X199626300Y-96731816D01*
X199640217Y-96449488D01*
X199629724Y-96378665D01*
X201765000Y-96378665D01*
X201765000Y-96661335D01*
X201820147Y-96938574D01*
X201928320Y-97199727D01*
X202085363Y-97434759D01*
X202285241Y-97634637D01*
X202520273Y-97791680D01*
X202781426Y-97899853D01*
X203058665Y-97955000D01*
X203341335Y-97955000D01*
X203618574Y-97899853D01*
X203879727Y-97791680D01*
X204114759Y-97634637D01*
X204314637Y-97434759D01*
X204471680Y-97199727D01*
X204579853Y-96938574D01*
X204635000Y-96661335D01*
X204635000Y-96378665D01*
X204579853Y-96101426D01*
X204471680Y-95840273D01*
X204314637Y-95605241D01*
X204114759Y-95405363D01*
X203879727Y-95248320D01*
X203618574Y-95140147D01*
X203341335Y-95085000D01*
X203058665Y-95085000D01*
X202781426Y-95140147D01*
X202520273Y-95248320D01*
X202285241Y-95405363D01*
X202085363Y-95605241D01*
X201928320Y-95840273D01*
X201820147Y-96101426D01*
X201765000Y-96378665D01*
X199629724Y-96378665D01*
X199598787Y-96169870D01*
X199503603Y-95903708D01*
X199436671Y-95778486D01*
X199192702Y-95706903D01*
X198379605Y-96520000D01*
X198020395Y-96520000D01*
X197207298Y-95706903D01*
X196963329Y-95778486D01*
X196842429Y-96033996D01*
X196773700Y-96308184D01*
X196759783Y-96590512D01*
X155276726Y-96590512D01*
X156339940Y-95527298D01*
X197386903Y-95527298D01*
X198200000Y-96340395D01*
X199013097Y-95527298D01*
X198941514Y-95283329D01*
X198686004Y-95162429D01*
X198411816Y-95093700D01*
X198129488Y-95079783D01*
X197849870Y-95121213D01*
X197583708Y-95216397D01*
X197458486Y-95283329D01*
X197386903Y-95527298D01*
X156339940Y-95527298D01*
X157141239Y-94726000D01*
X176703681Y-94726000D01*
X176784000Y-94733911D01*
X176864319Y-94726000D01*
X176864322Y-94726000D01*
X177104516Y-94702343D01*
X177412715Y-94608852D01*
X177696752Y-94457031D01*
X177945714Y-94252714D01*
X177996925Y-94190313D01*
X179233830Y-92953408D01*
X190627000Y-92953408D01*
X190627000Y-93228592D01*
X190680686Y-93498490D01*
X190785995Y-93752727D01*
X190938880Y-93981535D01*
X191133465Y-94176120D01*
X191362273Y-94329005D01*
X191616510Y-94434314D01*
X191886408Y-94488000D01*
X192161592Y-94488000D01*
X192431490Y-94434314D01*
X192685727Y-94329005D01*
X192914535Y-94176120D01*
X193109120Y-93981535D01*
X193262005Y-93752727D01*
X193367314Y-93498490D01*
X193421000Y-93228592D01*
X193421000Y-92953408D01*
X193367314Y-92683510D01*
X193262005Y-92429273D01*
X193109120Y-92200465D01*
X192914535Y-92005880D01*
X192685727Y-91852995D01*
X192431490Y-91747686D01*
X192161592Y-91694000D01*
X191886408Y-91694000D01*
X191616510Y-91747686D01*
X191362273Y-91852995D01*
X191133465Y-92005880D01*
X190938880Y-92200465D01*
X190785995Y-92429273D01*
X190680686Y-92683510D01*
X190627000Y-92953408D01*
X179233830Y-92953408D01*
X214459320Y-57727919D01*
X214521714Y-57676714D01*
X214726031Y-57427752D01*
X214877852Y-57143715D01*
X214971343Y-56835516D01*
X214995000Y-56595322D01*
X214995000Y-56595320D01*
X215002911Y-56515001D01*
X214995000Y-56434681D01*
X214995000Y-48781915D01*
X215081185Y-48711185D01*
X215160537Y-48614494D01*
X215219502Y-48504180D01*
X215255812Y-48384482D01*
X215268072Y-48260000D01*
X215268072Y-45720000D01*
X215255812Y-45595518D01*
X215219502Y-45475820D01*
X215160537Y-45365506D01*
X215081185Y-45268815D01*
X214984494Y-45189463D01*
X214874180Y-45130498D01*
X214754482Y-45094188D01*
X214630000Y-45081928D01*
X209550000Y-45081928D01*
X209425518Y-45094188D01*
X209305820Y-45130498D01*
X209195506Y-45189463D01*
X209098815Y-45268815D01*
X209028085Y-45355000D01*
X158792239Y-45355000D01*
X156578072Y-43140834D01*
X156578072Y-41545000D01*
X156565812Y-41420518D01*
X156529502Y-41300820D01*
X156470537Y-41190506D01*
X156391185Y-41093815D01*
X156325731Y-41040098D01*
X162207000Y-41040098D01*
X162207000Y-41509902D01*
X162298654Y-41970679D01*
X162478440Y-42404721D01*
X162739450Y-42795349D01*
X163071651Y-43127550D01*
X163462279Y-43388560D01*
X163896321Y-43568346D01*
X164357098Y-43660000D01*
X164826902Y-43660000D01*
X165287679Y-43568346D01*
X165721721Y-43388560D01*
X166112349Y-43127550D01*
X166444550Y-42795349D01*
X166705560Y-42404721D01*
X166885346Y-41970679D01*
X166977000Y-41509902D01*
X166977000Y-41040098D01*
X166885346Y-40579321D01*
X166705560Y-40145279D01*
X166444550Y-39754651D01*
X166112349Y-39422450D01*
X165721721Y-39161440D01*
X165287679Y-38981654D01*
X164826902Y-38890000D01*
X164357098Y-38890000D01*
X163896321Y-38981654D01*
X163462279Y-39161440D01*
X163071651Y-39422450D01*
X162739450Y-39754651D01*
X162478440Y-40145279D01*
X162298654Y-40579321D01*
X162207000Y-41040098D01*
X156325731Y-41040098D01*
X156294494Y-41014463D01*
X156184180Y-40955498D01*
X156064482Y-40919188D01*
X155940000Y-40906928D01*
X154989131Y-40906928D01*
X154940000Y-40902089D01*
X154890869Y-40906928D01*
X153940000Y-40906928D01*
X153815518Y-40919188D01*
X153695820Y-40955498D01*
X153585506Y-41014463D01*
X153488815Y-41093815D01*
X153409463Y-41190506D01*
X153350498Y-41300820D01*
X153314188Y-41420518D01*
X153301928Y-41545000D01*
X153301928Y-43545000D01*
X153305000Y-43576192D01*
X153305000Y-43734681D01*
X153297089Y-43815000D01*
X153305000Y-43895319D01*
X153305000Y-43895322D01*
X153328657Y-44135516D01*
X153422148Y-44443715D01*
X153573970Y-44727752D01*
X153778287Y-44976714D01*
X153840682Y-45027920D01*
X156902080Y-48089319D01*
X156953286Y-48151714D01*
X157202248Y-48356031D01*
X157486285Y-48507852D01*
X157794484Y-48601343D01*
X158034678Y-48625000D01*
X158034680Y-48625000D01*
X158114999Y-48632911D01*
X158195319Y-48625000D01*
X209028085Y-48625000D01*
X209098815Y-48711185D01*
X209195506Y-48790537D01*
X209305820Y-48849502D01*
X209425518Y-48885812D01*
X209550000Y-48898072D01*
X211725001Y-48898072D01*
X211725000Y-55837761D01*
X176106762Y-91456000D01*
X156544319Y-91456000D01*
X156463999Y-91448089D01*
X156383680Y-91456000D01*
X156383678Y-91456000D01*
X156143484Y-91479657D01*
X155835285Y-91573148D01*
X155551248Y-91724969D01*
X155302286Y-91929286D01*
X155251080Y-91991681D01*
X152357762Y-94885000D01*
X144860319Y-94885000D01*
X144779999Y-94877089D01*
X144699680Y-94885000D01*
X144699678Y-94885000D01*
X144459484Y-94908657D01*
X144151285Y-95002148D01*
X143867248Y-95153969D01*
X143618286Y-95358286D01*
X143567079Y-95420682D01*
X142297085Y-96690677D01*
X142143970Y-96877248D01*
X141992148Y-97161286D01*
X141898658Y-97469484D01*
X141867089Y-97790000D01*
X64160000Y-97790000D01*
X64160000Y-94761098D01*
X64290000Y-94761098D01*
X64290000Y-95230902D01*
X64381654Y-95691679D01*
X64561440Y-96125721D01*
X64822450Y-96516349D01*
X65154651Y-96848550D01*
X65545279Y-97109560D01*
X65979321Y-97289346D01*
X66440098Y-97381000D01*
X66909902Y-97381000D01*
X67370679Y-97289346D01*
X67804721Y-97109560D01*
X68195349Y-96848550D01*
X68527550Y-96516349D01*
X68788560Y-96125721D01*
X68968346Y-95691679D01*
X69060000Y-95230902D01*
X69060000Y-94761098D01*
X68968346Y-94300321D01*
X68788560Y-93866279D01*
X68527550Y-93475651D01*
X68195349Y-93143450D01*
X67804721Y-92882440D01*
X67370679Y-92702654D01*
X66909902Y-92611000D01*
X66440098Y-92611000D01*
X65979321Y-92702654D01*
X65545279Y-92882440D01*
X65154651Y-93143450D01*
X64822450Y-93475651D01*
X64561440Y-93866279D01*
X64381654Y-94300321D01*
X64290000Y-94761098D01*
X64160000Y-94761098D01*
X64160000Y-88793967D01*
X114570000Y-88793967D01*
X114570000Y-89116033D01*
X114632832Y-89431912D01*
X114756082Y-89729463D01*
X114935013Y-89997252D01*
X115162748Y-90224987D01*
X115430537Y-90403918D01*
X115728088Y-90527168D01*
X116043967Y-90590000D01*
X116366033Y-90590000D01*
X116681912Y-90527168D01*
X116979463Y-90403918D01*
X117247252Y-90224987D01*
X117474987Y-89997252D01*
X117653918Y-89729463D01*
X117659909Y-89715000D01*
X121250091Y-89715000D01*
X121256082Y-89729463D01*
X121435013Y-89997252D01*
X121662748Y-90224987D01*
X121930537Y-90403918D01*
X122228088Y-90527168D01*
X122543967Y-90590000D01*
X122866033Y-90590000D01*
X123181912Y-90527168D01*
X123479463Y-90403918D01*
X123747252Y-90224987D01*
X123974987Y-89997252D01*
X124153918Y-89729463D01*
X124277168Y-89431912D01*
X124340000Y-89116033D01*
X124340000Y-88793967D01*
X124277168Y-88478088D01*
X124153918Y-88180537D01*
X123974987Y-87912748D01*
X123747252Y-87685013D01*
X123479463Y-87506082D01*
X123181912Y-87382832D01*
X122866033Y-87320000D01*
X122543967Y-87320000D01*
X122228088Y-87382832D01*
X121930537Y-87506082D01*
X121662748Y-87685013D01*
X121435013Y-87912748D01*
X121256082Y-88180537D01*
X121250091Y-88195000D01*
X117659909Y-88195000D01*
X117653918Y-88180537D01*
X117474987Y-87912748D01*
X117247252Y-87685013D01*
X116979463Y-87506082D01*
X116681912Y-87382832D01*
X116366033Y-87320000D01*
X116043967Y-87320000D01*
X115728088Y-87382832D01*
X115430537Y-87506082D01*
X115162748Y-87685013D01*
X114935013Y-87912748D01*
X114756082Y-88180537D01*
X114632832Y-88478088D01*
X114570000Y-88793967D01*
X64160000Y-88793967D01*
X64160000Y-85590413D01*
X115249192Y-85590413D01*
X115344956Y-85854814D01*
X115634571Y-85995704D01*
X115946108Y-86077384D01*
X116267595Y-86096718D01*
X116586675Y-86052961D01*
X116891088Y-85947795D01*
X117065044Y-85854814D01*
X117160808Y-85590413D01*
X121749192Y-85590413D01*
X121844956Y-85854814D01*
X122134571Y-85995704D01*
X122446108Y-86077384D01*
X122767595Y-86096718D01*
X123086675Y-86052961D01*
X123391088Y-85947795D01*
X123565044Y-85854814D01*
X123660808Y-85590413D01*
X122705000Y-84634605D01*
X121749192Y-85590413D01*
X117160808Y-85590413D01*
X116205000Y-84634605D01*
X115249192Y-85590413D01*
X64160000Y-85590413D01*
X64160000Y-84517595D01*
X114563282Y-84517595D01*
X114607039Y-84836675D01*
X114712205Y-85141088D01*
X114805186Y-85315044D01*
X115069587Y-85410808D01*
X116025395Y-84455000D01*
X116384605Y-84455000D01*
X117340413Y-85410808D01*
X117604814Y-85315044D01*
X117745704Y-85025429D01*
X117827384Y-84713892D01*
X117839189Y-84517595D01*
X121063282Y-84517595D01*
X121107039Y-84836675D01*
X121212205Y-85141088D01*
X121305186Y-85315044D01*
X121569587Y-85410808D01*
X122525395Y-84455000D01*
X122884605Y-84455000D01*
X123840413Y-85410808D01*
X124104814Y-85315044D01*
X124245704Y-85025429D01*
X124327384Y-84713892D01*
X124346718Y-84392405D01*
X124302961Y-84073325D01*
X124197795Y-83768912D01*
X124104814Y-83594956D01*
X123840413Y-83499192D01*
X122884605Y-84455000D01*
X122525395Y-84455000D01*
X121569587Y-83499192D01*
X121305186Y-83594956D01*
X121164296Y-83884571D01*
X121082616Y-84196108D01*
X121063282Y-84517595D01*
X117839189Y-84517595D01*
X117846718Y-84392405D01*
X117802961Y-84073325D01*
X117697795Y-83768912D01*
X117604814Y-83594956D01*
X117340413Y-83499192D01*
X116384605Y-84455000D01*
X116025395Y-84455000D01*
X115069587Y-83499192D01*
X114805186Y-83594956D01*
X114664296Y-83884571D01*
X114582616Y-84196108D01*
X114563282Y-84517595D01*
X64160000Y-84517595D01*
X64160000Y-83319587D01*
X115249192Y-83319587D01*
X116205000Y-84275395D01*
X117160808Y-83319587D01*
X121749192Y-83319587D01*
X122705000Y-84275395D01*
X123660808Y-83319587D01*
X123565044Y-83055186D01*
X123275429Y-82914296D01*
X122963892Y-82832616D01*
X122642405Y-82813282D01*
X122323325Y-82857039D01*
X122018912Y-82962205D01*
X121844956Y-83055186D01*
X121749192Y-83319587D01*
X117160808Y-83319587D01*
X117065044Y-83055186D01*
X116775429Y-82914296D01*
X116463892Y-82832616D01*
X116142405Y-82813282D01*
X115823325Y-82857039D01*
X115518912Y-82962205D01*
X115344956Y-83055186D01*
X115249192Y-83319587D01*
X64160000Y-83319587D01*
X64160000Y-74560000D01*
X83551928Y-74560000D01*
X83564188Y-74684482D01*
X83600498Y-74804180D01*
X83659463Y-74914494D01*
X83738815Y-75011185D01*
X83835506Y-75090537D01*
X83945820Y-75149502D01*
X84065518Y-75185812D01*
X84190000Y-75198072D01*
X84804250Y-75195000D01*
X84963000Y-75036250D01*
X84963000Y-73787000D01*
X85217000Y-73787000D01*
X85217000Y-75036250D01*
X85375750Y-75195000D01*
X85990000Y-75198072D01*
X86114482Y-75185812D01*
X86234180Y-75149502D01*
X86344494Y-75090537D01*
X86441185Y-75011185D01*
X86520537Y-74914494D01*
X86579502Y-74804180D01*
X86615812Y-74684482D01*
X86628072Y-74560000D01*
X86625000Y-73945750D01*
X86466250Y-73787000D01*
X85217000Y-73787000D01*
X84963000Y-73787000D01*
X83713750Y-73787000D01*
X83555000Y-73945750D01*
X83551928Y-74560000D01*
X64160000Y-74560000D01*
X64160000Y-72760000D01*
X83551928Y-72760000D01*
X83555000Y-73374250D01*
X83713750Y-73533000D01*
X84963000Y-73533000D01*
X84963000Y-73513000D01*
X85217000Y-73513000D01*
X85217000Y-73533000D01*
X86466250Y-73533000D01*
X86625000Y-73374250D01*
X86628072Y-72760000D01*
X86615812Y-72635518D01*
X86579502Y-72515820D01*
X86520537Y-72405506D01*
X86441185Y-72308815D01*
X86344494Y-72229463D01*
X86234180Y-72170498D01*
X86215873Y-72164944D01*
X86282312Y-72098505D01*
X86450299Y-71847095D01*
X86566011Y-71567743D01*
X86625000Y-71271184D01*
X86625000Y-70968816D01*
X86566011Y-70672257D01*
X86450299Y-70392905D01*
X86282312Y-70141495D01*
X86068505Y-69927688D01*
X85817095Y-69759701D01*
X85537743Y-69643989D01*
X85241184Y-69585000D01*
X84938816Y-69585000D01*
X84642257Y-69643989D01*
X84362905Y-69759701D01*
X84111495Y-69927688D01*
X83897688Y-70141495D01*
X83729701Y-70392905D01*
X83613989Y-70672257D01*
X83555000Y-70968816D01*
X83555000Y-71271184D01*
X83613989Y-71567743D01*
X83729701Y-71847095D01*
X83897688Y-72098505D01*
X83964127Y-72164944D01*
X83945820Y-72170498D01*
X83835506Y-72229463D01*
X83738815Y-72308815D01*
X83659463Y-72405506D01*
X83600498Y-72515820D01*
X83564188Y-72635518D01*
X83551928Y-72760000D01*
X64160000Y-72760000D01*
X64160000Y-45618000D01*
X64802419Y-45618000D01*
X64811029Y-45617152D01*
X65146197Y-45608375D01*
X65149583Y-45608028D01*
X65213354Y-45603178D01*
X66245148Y-45470087D01*
X66260394Y-45466930D01*
X66275890Y-45465383D01*
X66343189Y-45449784D01*
X67342981Y-45162154D01*
X67357576Y-45156726D01*
X67372657Y-45152854D01*
X67436785Y-45127269D01*
X67436822Y-45127255D01*
X67436832Y-45127249D01*
X68381604Y-44691704D01*
X68395207Y-44684133D01*
X68409531Y-44678023D01*
X68469086Y-44643012D01*
X69337115Y-44069565D01*
X69349420Y-44060020D01*
X69362652Y-44051816D01*
X69416226Y-44008201D01*
X70187526Y-43310053D01*
X70198241Y-43298762D01*
X70210084Y-43288647D01*
X70256444Y-43237429D01*
X70913268Y-42430647D01*
X70922157Y-42417858D01*
X70932328Y-42406074D01*
X70970408Y-42348433D01*
X71497640Y-41451582D01*
X71504491Y-41437598D01*
X71512764Y-41424409D01*
X71541687Y-41361671D01*
X71632652Y-41133665D01*
X72860000Y-41133665D01*
X72860000Y-41416335D01*
X72915147Y-41693574D01*
X73023320Y-41954727D01*
X73180363Y-42189759D01*
X73380241Y-42389637D01*
X73615273Y-42546680D01*
X73876426Y-42654853D01*
X74153665Y-42710000D01*
X74436335Y-42710000D01*
X74713574Y-42654853D01*
X74974727Y-42546680D01*
X75209759Y-42389637D01*
X75409637Y-42189759D01*
X75566680Y-41954727D01*
X75674853Y-41693574D01*
X75730000Y-41416335D01*
X75730000Y-41133665D01*
X75674853Y-40856426D01*
X75566680Y-40595273D01*
X75409637Y-40360241D01*
X75209759Y-40160363D01*
X74974727Y-40003320D01*
X74713574Y-39895147D01*
X74436335Y-39840000D01*
X74153665Y-39840000D01*
X73876426Y-39895147D01*
X73615273Y-40003320D01*
X73380241Y-40160363D01*
X73180363Y-40360241D01*
X73023320Y-40595273D01*
X72915147Y-40856426D01*
X72860000Y-41133665D01*
X71632652Y-41133665D01*
X71927194Y-40395389D01*
X71931850Y-40380533D01*
X71938034Y-40366242D01*
X71957123Y-40299890D01*
X71957135Y-40299851D01*
X71957137Y-40299838D01*
X72192046Y-39286375D01*
X72194403Y-39270974D01*
X72198351Y-39255923D01*
X72207190Y-39187407D01*
X72239702Y-38760000D01*
X96700293Y-38760000D01*
X96614999Y-38829999D01*
G37*
%TD.AperFunction*%
%TD*%
M02*
