M48
; DRILL file {KiCad (5.1.12)-1} date 06/03/22 19:18:11
; FORMAT={-:-/ absolute / inch / decimal}
; #@! TF.CreationDate,2022-06-03T19:18:11+02:00
; #@! TF.GenerationSoftware,Kicad,Pcbnew,(5.1.12)-1
; #@! TF.FileFunction,Plated,1,2,PTH
FMAT,2
INCH
T1C0.0157
T2C0.0295
T3C0.0300
T4C0.0315
T5C0.0354
T6C0.0394
T7C0.0433
%
G90
G05
T1
X4.25Y-2.5
T2
X5.3Y-1.6
X5.35Y-1.55
X5.4Y-1.6
T3
X6.95Y-4.025
X6.96Y-3.665
X7.56Y-3.665
X7.56Y-4.025
T4
X2.925Y-1.625
X3.425Y-1.625
X5.01Y-1.764
X5.51Y-1.764
X5.65Y-3.85
X5.65Y-4.0469
X7.8031Y-3.8
X8.0Y-3.8
T5
X3.35Y-2.8
X3.35Y-2.9
T6
X3.675Y-1.65
X3.675Y-1.75
X3.775Y-1.65
X3.775Y-1.75
X3.875Y-1.65
X3.875Y-1.75
X3.975Y-1.65
X3.975Y-1.75
X4.075Y-1.65
X4.075Y-1.75
X4.175Y-1.65
X4.175Y-1.75
X5.7063Y-1.675
X6.025Y-3.85
X6.025Y-4.0469
X6.1Y-1.675
X8.275Y-3.925
X8.3Y-1.65
X8.3Y-1.85
X8.4Y-1.65
X8.4Y-1.85
X8.4719Y-3.925
T7
X4.575Y-2.175
X4.575Y-2.3522
X4.575Y-3.325
X4.575Y-3.5022
X4.8309Y-2.175
X4.8309Y-2.3522
X4.8309Y-3.325
X4.8309Y-3.5022
X5.525Y-2.175
X5.525Y-2.3522
X5.525Y-3.325
X5.525Y-3.5022
X5.7809Y-2.175
X5.7809Y-2.3522
X5.7809Y-3.325
X5.7809Y-3.5022
X6.6Y-2.175
X6.6Y-2.3522
X6.6Y-3.325
X6.6Y-3.5022
X6.8559Y-2.175
X6.8559Y-2.3522
X6.8559Y-3.325
X6.8559Y-3.5022
T0
M30
