M48
; DRILL file {KiCad (5.1.12)-1} date 06/03/22 19:16:30
; FORMAT={-:-/ absolute / inch / decimal}
; #@! TF.CreationDate,2022-06-03T19:16:30+02:00
; #@! TF.GenerationSoftware,Kicad,Pcbnew,(5.1.12)-1
; #@! TF.FileFunction,Plated,1,2,PTH
FMAT,2
INCH
T1C0.0157
T2C0.0300
T3C0.0315
T4C0.0354
T5C0.0394
%
G90
G05
T1
X5.05Y-4.575
X7.11Y-4.47
X7.11Y-4.67
X7.11Y-4.87
T2
X6.09Y-4.22
X6.09Y-4.32
X6.09Y-4.42
X6.09Y-4.52
X6.09Y-4.62
X6.09Y-4.72
X6.09Y-4.82
X6.09Y-4.92
X7.19Y-4.22
X7.19Y-4.32
X7.19Y-4.42
X7.19Y-4.52
X7.19Y-4.62
X7.19Y-4.72
X7.19Y-4.82
X7.19Y-4.92
T3
X4.175Y-4.125
X4.225Y-4.45
X4.4219Y-4.45
X4.45Y-4.65
X4.625Y-4.45
X4.675Y-4.125
X4.95Y-4.65
X5.125Y-4.45
X5.25Y-4.45
X5.25Y-4.7
X5.75Y-4.45
X5.75Y-4.7
X6.233Y-4.679
X6.233Y-4.879
X6.7Y-3.85
X7.2Y-3.85
T4
X6.5Y-3.85
X6.5Y-4.05
X6.6Y-3.85
X6.6Y-4.05
T5
X4.175Y-3.975
X4.275Y-3.975
X4.2894Y-4.2772
X4.2894Y-4.8772
X4.29Y-5.01
X4.3894Y-4.2772
X4.3894Y-4.8772
X4.39Y-5.01
X4.4894Y-4.2772
X4.4894Y-4.8772
X4.49Y-5.01
X4.55Y-3.975
X4.5894Y-4.2772
X4.5894Y-4.8772
X4.59Y-5.01
X4.65Y-3.975
X4.6894Y-4.2772
X4.6894Y-4.8772
X4.7894Y-4.2772
X4.7894Y-4.8772
X4.8894Y-4.2772
X4.8894Y-4.8772
X4.9Y-4.0
X4.9894Y-4.2772
X4.9894Y-4.8772
X5.0894Y-4.2772
X5.0894Y-4.8772
X5.09Y-5.012
X5.0969Y-4.0
X5.1894Y-4.2772
X5.1894Y-4.8772
X5.19Y-5.012
X5.2894Y-4.2772
X5.2894Y-4.8772
X5.29Y-5.012
X5.325Y-3.975
X5.3894Y-4.2772
X5.3894Y-4.8772
X5.39Y-5.012
X5.425Y-3.975
X5.4894Y-4.2772
X5.4894Y-4.8772
X5.5894Y-4.2772
X5.5894Y-4.8772
X5.675Y-3.975
X5.6894Y-4.2772
X5.6894Y-4.8772
X5.775Y-3.975
X6.226Y-3.861
X6.226Y-4.0579
X6.725Y-4.0
X6.825Y-4.0
X7.025Y-4.0
X7.125Y-4.0
T0
M30
