%TF.GenerationSoftware,KiCad,Pcbnew,(5.1.12)-1*%
%TF.CreationDate,2022-06-03T19:16:28+02:00*%
%TF.ProjectId,pypilot,70797069-6c6f-4742-9e6b-696361645f70,rev?*%
%TF.SameCoordinates,Original*%
%TF.FileFunction,Soldermask,Top*%
%TF.FilePolarity,Negative*%
%FSLAX46Y46*%
G04 Gerber Fmt 4.6, Leading zero omitted, Abs format (unit mm)*
G04 Created by KiCad (PCBNEW (5.1.12)-1) date 2022-06-03 19:16:28*
%MOMM*%
%LPD*%
G01*
G04 APERTURE LIST*
%ADD10R,2.540000X2.540000*%
%ADD11O,1.600000X1.600000*%
%ADD12C,1.600000*%
%ADD13O,1.700000X1.700000*%
%ADD14R,1.700000X1.700000*%
%ADD15C,2.000000*%
%ADD16R,2.000000X2.000000*%
%ADD17C,1.524000*%
%ADD18R,1.600000X1.600000*%
%ADD19C,1.800000*%
%ADD20R,1.800000X1.800000*%
G04 APERTURE END LIST*
D10*
%TO.C,J11*%
X178435000Y-101600000D03*
X180975000Y-101600000D03*
%TD*%
%TO.C,J8*%
X170815000Y-101600000D03*
X173355000Y-101600000D03*
%TD*%
D11*
%TO.C,R4*%
X125730000Y-118110000D03*
D12*
X113030000Y-118110000D03*
%TD*%
D11*
%TO.C,TH1*%
X158318200Y-118846600D03*
D12*
X158318200Y-123926600D03*
%TD*%
D11*
%TO.C,R9*%
X133350000Y-119380000D03*
D12*
X146050000Y-119380000D03*
%TD*%
D11*
%TO.C,R6*%
X117475000Y-113030000D03*
D12*
X130175000Y-113030000D03*
%TD*%
D11*
%TO.C,R5*%
X106045000Y-104775000D03*
D12*
X118745000Y-104775000D03*
%TD*%
D11*
%TO.C,R3*%
X133350000Y-113030000D03*
D12*
X146050000Y-113030000D03*
%TD*%
D10*
%TO.C,J13*%
X144145000Y-100965000D03*
X146685000Y-100965000D03*
%TD*%
%TO.C,J12*%
X135255000Y-100965000D03*
X137795000Y-100965000D03*
%TD*%
D13*
%TO.C,J9*%
X136906000Y-127304800D03*
X134366000Y-127304800D03*
X131826000Y-127304800D03*
D14*
X129286000Y-127304800D03*
%TD*%
D13*
%TO.C,J7*%
X116586000Y-127254000D03*
X114046000Y-127254000D03*
X111506000Y-127254000D03*
D14*
X108966000Y-127254000D03*
%TD*%
D10*
%TO.C,J5*%
X115570000Y-100965000D03*
X118110000Y-100965000D03*
%TD*%
%TO.C,J4*%
X106045000Y-100965000D03*
X108585000Y-100965000D03*
%TD*%
D15*
%TO.C,C9*%
X158140400Y-103069400D03*
D16*
X158140400Y-98069400D03*
%TD*%
D15*
%TO.C,C8*%
X129460000Y-101600000D03*
D16*
X124460000Y-101600000D03*
%TD*%
D12*
%TO.C,C7*%
X112315000Y-113030000D03*
X107315000Y-113030000D03*
%TD*%
D17*
%TO.C,A4*%
X182626000Y-124968000D03*
X182626000Y-122428000D03*
X182626000Y-119888000D03*
X182626000Y-117348000D03*
X182626000Y-114808000D03*
X182626000Y-112268000D03*
X182626000Y-109728000D03*
X182626000Y-107188000D03*
X154686000Y-107188000D03*
X154686000Y-109728000D03*
X154686000Y-112268000D03*
X154686000Y-114808000D03*
X154686000Y-117348000D03*
X154686000Y-119888000D03*
X154686000Y-122428000D03*
X154686000Y-124968000D03*
%TD*%
D11*
%TO.C,A3*%
X144510000Y-108640000D03*
X144510000Y-123880000D03*
X108950000Y-108640000D03*
X141970000Y-123880000D03*
X111490000Y-108640000D03*
X139430000Y-123880000D03*
X114030000Y-108640000D03*
X136890000Y-123880000D03*
X116570000Y-108640000D03*
X134350000Y-123880000D03*
X119110000Y-108640000D03*
X131810000Y-123880000D03*
X121650000Y-108640000D03*
X129270000Y-123880000D03*
X124190000Y-108640000D03*
X126730000Y-123880000D03*
X126730000Y-108640000D03*
X124190000Y-123880000D03*
X129270000Y-108640000D03*
X121650000Y-123880000D03*
X131810000Y-108640000D03*
X119110000Y-123880000D03*
X134350000Y-108640000D03*
X116570000Y-123880000D03*
X136890000Y-108640000D03*
X114030000Y-123880000D03*
X139430000Y-108640000D03*
X111490000Y-123880000D03*
X141970000Y-108640000D03*
D18*
X108950000Y-123880000D03*
%TD*%
D19*
%TO.C,D2*%
X165100000Y-102870000D03*
D20*
X167640000Y-102870000D03*
%TD*%
D19*
%TO.C,D3*%
X167640000Y-97790000D03*
D20*
X165100000Y-97790000D03*
%TD*%
D11*
%TO.C,R10*%
X182880000Y-97790000D03*
D12*
X170180000Y-97790000D03*
%TD*%
M02*
