%TF.GenerationSoftware,KiCad,Pcbnew,6.0.11+dfsg-1*%
%TF.CreationDate,2024-03-12T04:01:45-04:00*%
%TF.ProjectId,pypilot-motor,70797069-6c6f-4742-9d6d-6f746f722e6b,rev?*%
%TF.SameCoordinates,Original*%
%TF.FileFunction,Legend,Top*%
%TF.FilePolarity,Positive*%
%FSLAX46Y46*%
G04 Gerber Fmt 4.6, Leading zero omitted, Abs format (unit mm)*
G04 Created by KiCad (PCBNEW 6.0.11+dfsg-1) date 2024-03-12 04:01:45*
%MOMM*%
%LPD*%
G01*
G04 APERTURE LIST*
%ADD10C,0.150000*%
%ADD11C,0.120000*%
G04 APERTURE END LIST*
D10*
%TO.C,A3*%
X104036666Y-116974285D02*
X104036666Y-116498095D01*
X104322380Y-117069523D02*
X103322380Y-116736190D01*
X104322380Y-116402857D01*
X103322380Y-116164761D02*
X103322380Y-115545714D01*
X103703333Y-115879047D01*
X103703333Y-115736190D01*
X103750952Y-115640952D01*
X103798571Y-115593333D01*
X103893809Y-115545714D01*
X104131904Y-115545714D01*
X104227142Y-115593333D01*
X104274761Y-115640952D01*
X104322380Y-115736190D01*
X104322380Y-116021904D01*
X104274761Y-116117142D01*
X104227142Y-116164761D01*
%TO.C,A4*%
X155241714Y-104814666D02*
X155717904Y-104814666D01*
X155146476Y-105100380D02*
X155479809Y-104100380D01*
X155813142Y-105100380D01*
X156575047Y-104433714D02*
X156575047Y-105100380D01*
X156336952Y-104052761D02*
X156098857Y-104767047D01*
X156717904Y-104767047D01*
%TO.C,C7*%
X109648333Y-110887142D02*
X109600714Y-110934761D01*
X109457857Y-110982380D01*
X109362619Y-110982380D01*
X109219761Y-110934761D01*
X109124523Y-110839523D01*
X109076904Y-110744285D01*
X109029285Y-110553809D01*
X109029285Y-110410952D01*
X109076904Y-110220476D01*
X109124523Y-110125238D01*
X109219761Y-110030000D01*
X109362619Y-109982380D01*
X109457857Y-109982380D01*
X109600714Y-110030000D01*
X109648333Y-110077619D01*
X109981666Y-109982380D02*
X110648333Y-109982380D01*
X110219761Y-110982380D01*
%TO.C,C9*%
X164747542Y-100736066D02*
X164795161Y-100783685D01*
X164842780Y-100926542D01*
X164842780Y-101021780D01*
X164795161Y-101164638D01*
X164699923Y-101259876D01*
X164604685Y-101307495D01*
X164414209Y-101355114D01*
X164271352Y-101355114D01*
X164080876Y-101307495D01*
X163985638Y-101259876D01*
X163890400Y-101164638D01*
X163842780Y-101021780D01*
X163842780Y-100926542D01*
X163890400Y-100783685D01*
X163938019Y-100736066D01*
X164842780Y-100259876D02*
X164842780Y-100069400D01*
X164795161Y-99974161D01*
X164747542Y-99926542D01*
X164604685Y-99831304D01*
X164414209Y-99783685D01*
X164033257Y-99783685D01*
X163938019Y-99831304D01*
X163890400Y-99878923D01*
X163842780Y-99974161D01*
X163842780Y-100164638D01*
X163890400Y-100259876D01*
X163938019Y-100307495D01*
X164033257Y-100355114D01*
X164271352Y-100355114D01*
X164366590Y-100307495D01*
X164414209Y-100259876D01*
X164461828Y-100164638D01*
X164461828Y-99974161D01*
X164414209Y-99878923D01*
X164366590Y-99831304D01*
X164271352Y-99783685D01*
%TO.C,J4*%
X106981666Y-102457380D02*
X106981666Y-103171666D01*
X106934047Y-103314523D01*
X106838809Y-103409761D01*
X106695952Y-103457380D01*
X106600714Y-103457380D01*
X107886428Y-102790714D02*
X107886428Y-103457380D01*
X107648333Y-102409761D02*
X107410238Y-103124047D01*
X108029285Y-103124047D01*
%TO.C,J5*%
X116506666Y-102457380D02*
X116506666Y-103171666D01*
X116459047Y-103314523D01*
X116363809Y-103409761D01*
X116220952Y-103457380D01*
X116125714Y-103457380D01*
X117459047Y-102457380D02*
X116982857Y-102457380D01*
X116935238Y-102933571D01*
X116982857Y-102885952D01*
X117078095Y-102838333D01*
X117316190Y-102838333D01*
X117411428Y-102885952D01*
X117459047Y-102933571D01*
X117506666Y-103028809D01*
X117506666Y-103266904D01*
X117459047Y-103362142D01*
X117411428Y-103409761D01*
X117316190Y-103457380D01*
X117078095Y-103457380D01*
X116982857Y-103409761D01*
X116935238Y-103362142D01*
%TO.C,J7*%
X106088380Y-127587333D02*
X106802666Y-127587333D01*
X106945523Y-127634952D01*
X107040761Y-127730190D01*
X107088380Y-127873047D01*
X107088380Y-127968285D01*
X106088380Y-127206380D02*
X106088380Y-126539714D01*
X107088380Y-126968285D01*
%TO.C,J8*%
X171751666Y-103092380D02*
X171751666Y-103806666D01*
X171704047Y-103949523D01*
X171608809Y-104044761D01*
X171465952Y-104092380D01*
X171370714Y-104092380D01*
X172370714Y-103520952D02*
X172275476Y-103473333D01*
X172227857Y-103425714D01*
X172180238Y-103330476D01*
X172180238Y-103282857D01*
X172227857Y-103187619D01*
X172275476Y-103140000D01*
X172370714Y-103092380D01*
X172561190Y-103092380D01*
X172656428Y-103140000D01*
X172704047Y-103187619D01*
X172751666Y-103282857D01*
X172751666Y-103330476D01*
X172704047Y-103425714D01*
X172656428Y-103473333D01*
X172561190Y-103520952D01*
X172370714Y-103520952D01*
X172275476Y-103568571D01*
X172227857Y-103616190D01*
X172180238Y-103711428D01*
X172180238Y-103901904D01*
X172227857Y-103997142D01*
X172275476Y-104044761D01*
X172370714Y-104092380D01*
X172561190Y-104092380D01*
X172656428Y-104044761D01*
X172704047Y-103997142D01*
X172751666Y-103901904D01*
X172751666Y-103711428D01*
X172704047Y-103616190D01*
X172656428Y-103568571D01*
X172561190Y-103520952D01*
%TO.C,J9*%
X126408380Y-127638133D02*
X127122666Y-127638133D01*
X127265523Y-127685752D01*
X127360761Y-127780990D01*
X127408380Y-127923847D01*
X127408380Y-128019085D01*
X127408380Y-127114323D02*
X127408380Y-126923847D01*
X127360761Y-126828609D01*
X127313142Y-126780990D01*
X127170285Y-126685752D01*
X126979809Y-126638133D01*
X126598857Y-126638133D01*
X126503619Y-126685752D01*
X126456000Y-126733371D01*
X126408380Y-126828609D01*
X126408380Y-127019085D01*
X126456000Y-127114323D01*
X126503619Y-127161942D01*
X126598857Y-127209561D01*
X126836952Y-127209561D01*
X126932190Y-127161942D01*
X126979809Y-127114323D01*
X127027428Y-127019085D01*
X127027428Y-126828609D01*
X126979809Y-126733371D01*
X126932190Y-126685752D01*
X126836952Y-126638133D01*
%TO.C,J11*%
X178895476Y-103092380D02*
X178895476Y-103806666D01*
X178847857Y-103949523D01*
X178752619Y-104044761D01*
X178609761Y-104092380D01*
X178514523Y-104092380D01*
X179895476Y-104092380D02*
X179324047Y-104092380D01*
X179609761Y-104092380D02*
X179609761Y-103092380D01*
X179514523Y-103235238D01*
X179419285Y-103330476D01*
X179324047Y-103378095D01*
X180847857Y-104092380D02*
X180276428Y-104092380D01*
X180562142Y-104092380D02*
X180562142Y-103092380D01*
X180466904Y-103235238D01*
X180371666Y-103330476D01*
X180276428Y-103378095D01*
%TO.C,J12*%
X135715476Y-102457380D02*
X135715476Y-103171666D01*
X135667857Y-103314523D01*
X135572619Y-103409761D01*
X135429761Y-103457380D01*
X135334523Y-103457380D01*
X136715476Y-103457380D02*
X136144047Y-103457380D01*
X136429761Y-103457380D02*
X136429761Y-102457380D01*
X136334523Y-102600238D01*
X136239285Y-102695476D01*
X136144047Y-102743095D01*
X137096428Y-102552619D02*
X137144047Y-102505000D01*
X137239285Y-102457380D01*
X137477380Y-102457380D01*
X137572619Y-102505000D01*
X137620238Y-102552619D01*
X137667857Y-102647857D01*
X137667857Y-102743095D01*
X137620238Y-102885952D01*
X137048809Y-103457380D01*
X137667857Y-103457380D01*
%TO.C,J13*%
X144605476Y-102457380D02*
X144605476Y-103171666D01*
X144557857Y-103314523D01*
X144462619Y-103409761D01*
X144319761Y-103457380D01*
X144224523Y-103457380D01*
X145605476Y-103457380D02*
X145034047Y-103457380D01*
X145319761Y-103457380D02*
X145319761Y-102457380D01*
X145224523Y-102600238D01*
X145129285Y-102695476D01*
X145034047Y-102743095D01*
X145938809Y-102457380D02*
X146557857Y-102457380D01*
X146224523Y-102838333D01*
X146367380Y-102838333D01*
X146462619Y-102885952D01*
X146510238Y-102933571D01*
X146557857Y-103028809D01*
X146557857Y-103266904D01*
X146510238Y-103362142D01*
X146462619Y-103409761D01*
X146367380Y-103457380D01*
X146081666Y-103457380D01*
X145986428Y-103409761D01*
X145938809Y-103362142D01*
%TO.C,R3*%
X139533333Y-116202380D02*
X139200000Y-115726190D01*
X138961904Y-116202380D02*
X138961904Y-115202380D01*
X139342857Y-115202380D01*
X139438095Y-115250000D01*
X139485714Y-115297619D01*
X139533333Y-115392857D01*
X139533333Y-115535714D01*
X139485714Y-115630952D01*
X139438095Y-115678571D01*
X139342857Y-115726190D01*
X138961904Y-115726190D01*
X139866666Y-115202380D02*
X140485714Y-115202380D01*
X140152380Y-115583333D01*
X140295238Y-115583333D01*
X140390476Y-115630952D01*
X140438095Y-115678571D01*
X140485714Y-115773809D01*
X140485714Y-116011904D01*
X140438095Y-116107142D01*
X140390476Y-116154761D01*
X140295238Y-116202380D01*
X140009523Y-116202380D01*
X139914285Y-116154761D01*
X139866666Y-116107142D01*
%TO.C,R4*%
X119213333Y-115842380D02*
X118880000Y-115366190D01*
X118641904Y-115842380D02*
X118641904Y-114842380D01*
X119022857Y-114842380D01*
X119118095Y-114890000D01*
X119165714Y-114937619D01*
X119213333Y-115032857D01*
X119213333Y-115175714D01*
X119165714Y-115270952D01*
X119118095Y-115318571D01*
X119022857Y-115366190D01*
X118641904Y-115366190D01*
X120070476Y-115175714D02*
X120070476Y-115842380D01*
X119832380Y-114794761D02*
X119594285Y-115509047D01*
X120213333Y-115509047D01*
%TO.C,R5*%
X112228333Y-107947380D02*
X111895000Y-107471190D01*
X111656904Y-107947380D02*
X111656904Y-106947380D01*
X112037857Y-106947380D01*
X112133095Y-106995000D01*
X112180714Y-107042619D01*
X112228333Y-107137857D01*
X112228333Y-107280714D01*
X112180714Y-107375952D01*
X112133095Y-107423571D01*
X112037857Y-107471190D01*
X111656904Y-107471190D01*
X113133095Y-106947380D02*
X112656904Y-106947380D01*
X112609285Y-107423571D01*
X112656904Y-107375952D01*
X112752142Y-107328333D01*
X112990238Y-107328333D01*
X113085476Y-107375952D01*
X113133095Y-107423571D01*
X113180714Y-107518809D01*
X113180714Y-107756904D01*
X113133095Y-107852142D01*
X113085476Y-107899761D01*
X112990238Y-107947380D01*
X112752142Y-107947380D01*
X112656904Y-107899761D01*
X112609285Y-107852142D01*
%TO.C,R6*%
X123658333Y-116202380D02*
X123325000Y-115726190D01*
X123086904Y-116202380D02*
X123086904Y-115202380D01*
X123467857Y-115202380D01*
X123563095Y-115250000D01*
X123610714Y-115297619D01*
X123658333Y-115392857D01*
X123658333Y-115535714D01*
X123610714Y-115630952D01*
X123563095Y-115678571D01*
X123467857Y-115726190D01*
X123086904Y-115726190D01*
X124515476Y-115202380D02*
X124325000Y-115202380D01*
X124229761Y-115250000D01*
X124182142Y-115297619D01*
X124086904Y-115440476D01*
X124039285Y-115630952D01*
X124039285Y-116011904D01*
X124086904Y-116107142D01*
X124134523Y-116154761D01*
X124229761Y-116202380D01*
X124420238Y-116202380D01*
X124515476Y-116154761D01*
X124563095Y-116107142D01*
X124610714Y-116011904D01*
X124610714Y-115773809D01*
X124563095Y-115678571D01*
X124515476Y-115630952D01*
X124420238Y-115583333D01*
X124229761Y-115583333D01*
X124134523Y-115630952D01*
X124086904Y-115678571D01*
X124039285Y-115773809D01*
%TO.C,R9*%
X139533333Y-122552380D02*
X139200000Y-122076190D01*
X138961904Y-122552380D02*
X138961904Y-121552380D01*
X139342857Y-121552380D01*
X139438095Y-121600000D01*
X139485714Y-121647619D01*
X139533333Y-121742857D01*
X139533333Y-121885714D01*
X139485714Y-121980952D01*
X139438095Y-122028571D01*
X139342857Y-122076190D01*
X138961904Y-122076190D01*
X140009523Y-122552380D02*
X140200000Y-122552380D01*
X140295238Y-122504761D01*
X140342857Y-122457142D01*
X140438095Y-122314285D01*
X140485714Y-122123809D01*
X140485714Y-121742857D01*
X140438095Y-121647619D01*
X140390476Y-121600000D01*
X140295238Y-121552380D01*
X140104761Y-121552380D01*
X140009523Y-121600000D01*
X139961904Y-121647619D01*
X139914285Y-121742857D01*
X139914285Y-121980952D01*
X139961904Y-122076190D01*
X140009523Y-122123809D01*
X140104761Y-122171428D01*
X140295238Y-122171428D01*
X140390476Y-122123809D01*
X140438095Y-122076190D01*
X140485714Y-121980952D01*
%TO.C,TH1*%
X155050580Y-122672314D02*
X155050580Y-122100885D01*
X156050580Y-122386600D02*
X155050580Y-122386600D01*
X156050580Y-121767552D02*
X155050580Y-121767552D01*
X155526771Y-121767552D02*
X155526771Y-121196123D01*
X156050580Y-121196123D02*
X155050580Y-121196123D01*
X156050580Y-120196123D02*
X156050580Y-120767552D01*
X156050580Y-120481838D02*
X155050580Y-120481838D01*
X155193438Y-120577076D01*
X155288676Y-120672314D01*
X155336295Y-120767552D01*
%TO.C,C8*%
X126793333Y-95707142D02*
X126745714Y-95754761D01*
X126602857Y-95802380D01*
X126507619Y-95802380D01*
X126364761Y-95754761D01*
X126269523Y-95659523D01*
X126221904Y-95564285D01*
X126174285Y-95373809D01*
X126174285Y-95230952D01*
X126221904Y-95040476D01*
X126269523Y-94945238D01*
X126364761Y-94850000D01*
X126507619Y-94802380D01*
X126602857Y-94802380D01*
X126745714Y-94850000D01*
X126793333Y-94897619D01*
X127364761Y-95230952D02*
X127269523Y-95183333D01*
X127221904Y-95135714D01*
X127174285Y-95040476D01*
X127174285Y-94992857D01*
X127221904Y-94897619D01*
X127269523Y-94850000D01*
X127364761Y-94802380D01*
X127555238Y-94802380D01*
X127650476Y-94850000D01*
X127698095Y-94897619D01*
X127745714Y-94992857D01*
X127745714Y-95040476D01*
X127698095Y-95135714D01*
X127650476Y-95183333D01*
X127555238Y-95230952D01*
X127364761Y-95230952D01*
X127269523Y-95278571D01*
X127221904Y-95326190D01*
X127174285Y-95421428D01*
X127174285Y-95611904D01*
X127221904Y-95707142D01*
X127269523Y-95754761D01*
X127364761Y-95802380D01*
X127555238Y-95802380D01*
X127650476Y-95754761D01*
X127698095Y-95707142D01*
X127745714Y-95611904D01*
X127745714Y-95421428D01*
X127698095Y-95326190D01*
X127650476Y-95278571D01*
X127555238Y-95230952D01*
%TO.C,D2*%
X165631904Y-106282380D02*
X165631904Y-105282380D01*
X165870000Y-105282380D01*
X166012857Y-105330000D01*
X166108095Y-105425238D01*
X166155714Y-105520476D01*
X166203333Y-105710952D01*
X166203333Y-105853809D01*
X166155714Y-106044285D01*
X166108095Y-106139523D01*
X166012857Y-106234761D01*
X165870000Y-106282380D01*
X165631904Y-106282380D01*
X166584285Y-105377619D02*
X166631904Y-105330000D01*
X166727142Y-105282380D01*
X166965238Y-105282380D01*
X167060476Y-105330000D01*
X167108095Y-105377619D01*
X167155714Y-105472857D01*
X167155714Y-105568095D01*
X167108095Y-105710952D01*
X166536666Y-106282380D01*
X167155714Y-106282380D01*
%TO.C,R10*%
X175887142Y-95522380D02*
X175553809Y-95046190D01*
X175315714Y-95522380D02*
X175315714Y-94522380D01*
X175696666Y-94522380D01*
X175791904Y-94570000D01*
X175839523Y-94617619D01*
X175887142Y-94712857D01*
X175887142Y-94855714D01*
X175839523Y-94950952D01*
X175791904Y-94998571D01*
X175696666Y-95046190D01*
X175315714Y-95046190D01*
X176839523Y-95522380D02*
X176268095Y-95522380D01*
X176553809Y-95522380D02*
X176553809Y-94522380D01*
X176458571Y-94665238D01*
X176363333Y-94760476D01*
X176268095Y-94808095D01*
X177458571Y-94522380D02*
X177553809Y-94522380D01*
X177649047Y-94570000D01*
X177696666Y-94617619D01*
X177744285Y-94712857D01*
X177791904Y-94903333D01*
X177791904Y-95141428D01*
X177744285Y-95331904D01*
X177696666Y-95427142D01*
X177649047Y-95474761D01*
X177553809Y-95522380D01*
X177458571Y-95522380D01*
X177363333Y-95474761D01*
X177315714Y-95427142D01*
X177268095Y-95331904D01*
X177220476Y-95141428D01*
X177220476Y-94903333D01*
X177268095Y-94712857D01*
X177315714Y-94617619D01*
X177363333Y-94570000D01*
X177458571Y-94522380D01*
%TO.C,D3*%
X165631904Y-95282380D02*
X165631904Y-94282380D01*
X165870000Y-94282380D01*
X166012857Y-94330000D01*
X166108095Y-94425238D01*
X166155714Y-94520476D01*
X166203333Y-94710952D01*
X166203333Y-94853809D01*
X166155714Y-95044285D01*
X166108095Y-95139523D01*
X166012857Y-95234761D01*
X165870000Y-95282380D01*
X165631904Y-95282380D01*
X166536666Y-94282380D02*
X167155714Y-94282380D01*
X166822380Y-94663333D01*
X166965238Y-94663333D01*
X167060476Y-94710952D01*
X167108095Y-94758571D01*
X167155714Y-94853809D01*
X167155714Y-95091904D01*
X167108095Y-95187142D01*
X167060476Y-95234761D01*
X166965238Y-95282380D01*
X166679523Y-95282380D01*
X166584285Y-95234761D01*
X166536666Y-95187142D01*
D11*
%TO.C,A3*%
X107680000Y-109910000D02*
X145780000Y-109910000D01*
X148450000Y-107240000D02*
X105010000Y-107240000D01*
X148450000Y-125280000D02*
X148450000Y-107240000D01*
X110220000Y-122610000D02*
X145780000Y-122610000D01*
X145780000Y-109910000D02*
X145780000Y-107240000D01*
X107680000Y-109910000D02*
X107680000Y-107240000D01*
X107680000Y-122610000D02*
X107680000Y-125280000D01*
X145780000Y-122610000D02*
X145780000Y-125280000D01*
X105010000Y-125280000D02*
X107680000Y-125280000D01*
X110220000Y-122610000D02*
X110220000Y-125280000D01*
X105010000Y-107240000D02*
X105010000Y-125280000D01*
X110220000Y-125280000D02*
X148450000Y-125280000D01*
X110220000Y-122610000D02*
X107680000Y-122610000D01*
%TO.C,A4*%
X153416000Y-105918000D02*
X153416000Y-126238000D01*
X185166000Y-105918000D02*
X153416000Y-105918000D01*
X185166000Y-126238000D02*
X185166000Y-105918000D01*
X153416000Y-126238000D02*
X185166000Y-126238000D01*
%TO.C,C7*%
X106695000Y-114400000D02*
X112935000Y-114400000D01*
X112935000Y-111660000D02*
X112935000Y-112105000D01*
X106695000Y-111660000D02*
X112935000Y-111660000D01*
X106695000Y-111660000D02*
X106695000Y-112105000D01*
X112935000Y-113955000D02*
X112935000Y-114400000D01*
X106695000Y-113955000D02*
X106695000Y-114400000D01*
%TO.C,C9*%
X156899400Y-102690400D02*
X153519400Y-102690400D01*
X163144400Y-101450400D02*
X153136400Y-101450400D01*
X162951400Y-102210400D02*
X159381400Y-102210400D01*
X163151400Y-101410400D02*
X153129400Y-101410400D01*
X162923400Y-102290400D02*
X159381400Y-102290400D01*
X163047400Y-101890400D02*
X159381400Y-101890400D01*
X160265400Y-105210400D02*
X156015400Y-105210400D01*
X161346400Y-104530400D02*
X154934400Y-104530400D01*
X156899400Y-102210400D02*
X153329400Y-102210400D01*
X162743400Y-102730400D02*
X159381400Y-102730400D01*
X160177400Y-105250400D02*
X156103400Y-105250400D01*
X163185400Y-101169400D02*
X153095400Y-101169400D01*
X163137400Y-101490400D02*
X153143400Y-101490400D01*
X162724400Y-102770400D02*
X159381400Y-102770400D01*
X162685400Y-102850400D02*
X159381400Y-102850400D01*
X162644400Y-102930400D02*
X159381400Y-102930400D01*
X156899400Y-102770400D02*
X153556400Y-102770400D01*
X161085400Y-104730400D02*
X155195400Y-104730400D01*
X158739400Y-105650400D02*
X157541400Y-105650400D01*
X156899400Y-102850400D02*
X153595400Y-102850400D01*
X161394400Y-104490400D02*
X154886400Y-104490400D01*
X156899400Y-102170400D02*
X153316400Y-102170400D01*
X162387400Y-103370400D02*
X159381400Y-103370400D01*
X160579400Y-105050400D02*
X155701400Y-105050400D01*
X156899400Y-102250400D02*
X153343400Y-102250400D01*
X156899400Y-103330400D02*
X153867400Y-103330400D01*
X162511400Y-103170400D02*
X159381400Y-103170400D01*
X156899400Y-103610400D02*
X154060400Y-103610400D01*
X162438400Y-103290400D02*
X159381400Y-103290400D01*
X161618400Y-104290400D02*
X159381400Y-104290400D01*
X160849400Y-104890400D02*
X155431400Y-104890400D01*
X156899400Y-103930400D02*
X154316400Y-103930400D01*
X156899400Y-104250400D02*
X154620400Y-104250400D01*
X161780400Y-104130400D02*
X159381400Y-104130400D01*
X163002400Y-102050400D02*
X159381400Y-102050400D01*
X162557400Y-103090400D02*
X159381400Y-103090400D01*
X162704400Y-102810400D02*
X159381400Y-102810400D01*
X156899400Y-103090400D02*
X153723400Y-103090400D01*
X156899400Y-103970400D02*
X154351400Y-103970400D01*
X156899400Y-104010400D02*
X154387400Y-104010400D01*
X162097400Y-103770400D02*
X159381400Y-103770400D01*
X156899400Y-102090400D02*
X153290400Y-102090400D01*
X156899400Y-103050400D02*
X153700400Y-103050400D01*
X156899400Y-101970400D02*
X153255400Y-101970400D01*
X156899400Y-101850400D02*
X153222400Y-101850400D01*
X156899400Y-103650400D02*
X154090400Y-103650400D01*
X156899400Y-103730400D02*
X154151400Y-103730400D01*
X162814400Y-102570400D02*
X159381400Y-102570400D01*
X156899400Y-102450400D02*
X153417400Y-102450400D01*
X156899400Y-104290400D02*
X154662400Y-104290400D01*
X156899400Y-102730400D02*
X153537400Y-102730400D01*
X163025400Y-101970400D02*
X159381400Y-101970400D01*
X163220400Y-100569400D02*
X153060400Y-100569400D01*
X161701400Y-104210400D02*
X159381400Y-104210400D01*
X159770400Y-105410400D02*
X156510400Y-105410400D01*
X156899400Y-103130400D02*
X153745400Y-103130400D01*
X162463400Y-103250400D02*
X159381400Y-103250400D01*
X156899400Y-103410400D02*
X153919400Y-103410400D01*
X156899400Y-103290400D02*
X153842400Y-103290400D01*
X160970400Y-104810400D02*
X155310400Y-104810400D01*
X162602400Y-103010400D02*
X159381400Y-103010400D01*
X162278400Y-103530400D02*
X159381400Y-103530400D01*
X163158400Y-101370400D02*
X153122400Y-101370400D01*
X156899400Y-103490400D02*
X153974400Y-103490400D01*
X161576400Y-104330400D02*
X154704400Y-104330400D01*
X162847400Y-102490400D02*
X159381400Y-102490400D01*
X163220400Y-100609400D02*
X153060400Y-100609400D01*
X156899400Y-104090400D02*
X154461400Y-104090400D01*
X162779400Y-102650400D02*
X159381400Y-102650400D01*
X163170400Y-101290400D02*
X153110400Y-101290400D01*
X161296400Y-104570400D02*
X154984400Y-104570400D01*
X161929400Y-103970400D02*
X159381400Y-103970400D01*
X156899400Y-102130400D02*
X153303400Y-102130400D01*
X163213400Y-100849400D02*
X153067400Y-100849400D01*
X162250400Y-103570400D02*
X159381400Y-103570400D01*
X156899400Y-103010400D02*
X153678400Y-103010400D01*
X156899400Y-103530400D02*
X154002400Y-103530400D01*
X156899400Y-104170400D02*
X154539400Y-104170400D01*
X161140400Y-104690400D02*
X155140400Y-104690400D01*
X162361400Y-103410400D02*
X159381400Y-103410400D01*
X162937400Y-102250400D02*
X159381400Y-102250400D01*
X163175400Y-101249400D02*
X153105400Y-101249400D01*
X163014400Y-102010400D02*
X159381400Y-102010400D01*
X162580400Y-103050400D02*
X159381400Y-103050400D01*
X163078400Y-101770400D02*
X153202400Y-101770400D01*
X162830400Y-102530400D02*
X159381400Y-102530400D01*
X162487400Y-103210400D02*
X159381400Y-103210400D01*
X162065400Y-103810400D02*
X159381400Y-103810400D01*
X162863400Y-102450400D02*
X159381400Y-102450400D01*
X163087400Y-101730400D02*
X153193400Y-101730400D01*
X163122400Y-101570400D02*
X153158400Y-101570400D01*
X162894400Y-102370400D02*
X159381400Y-102370400D01*
X156899400Y-102970400D02*
X153657400Y-102970400D01*
X160429400Y-105130400D02*
X155851400Y-105130400D01*
X156899400Y-103210400D02*
X153793400Y-103210400D01*
X156899400Y-102490400D02*
X153433400Y-102490400D01*
X156899400Y-102330400D02*
X153372400Y-102330400D01*
X163180400Y-101209400D02*
X153100400Y-101209400D01*
X161015400Y-95089754D02*
X161015400Y-96089754D01*
X163164400Y-101330400D02*
X153116400Y-101330400D01*
X156899400Y-103570400D02*
X154030400Y-103570400D01*
X162797400Y-102610400D02*
X159381400Y-102610400D01*
X156899400Y-103450400D02*
X153946400Y-103450400D01*
X163190400Y-101129400D02*
X153090400Y-101129400D01*
X156899400Y-104210400D02*
X154579400Y-104210400D01*
X159882400Y-105370400D02*
X156398400Y-105370400D01*
X156899400Y-102570400D02*
X153466400Y-102570400D01*
X156899400Y-103770400D02*
X154183400Y-103770400D01*
X163208400Y-100929400D02*
X153072400Y-100929400D01*
X156899400Y-103810400D02*
X154215400Y-103810400D01*
X161856400Y-104050400D02*
X159381400Y-104050400D01*
X161964400Y-103930400D02*
X159381400Y-103930400D01*
X162977400Y-102130400D02*
X159381400Y-102130400D01*
X163215400Y-100809400D02*
X153065400Y-100809400D01*
X160910400Y-104850400D02*
X155370400Y-104850400D01*
X159370400Y-105530400D02*
X156910400Y-105530400D01*
X161487400Y-104410400D02*
X154793400Y-104410400D01*
X162190400Y-103650400D02*
X159381400Y-103650400D01*
X161194400Y-104650400D02*
X155086400Y-104650400D01*
X162623400Y-102970400D02*
X159381400Y-102970400D01*
X160650400Y-105010400D02*
X155630400Y-105010400D01*
X159518400Y-105490400D02*
X156762400Y-105490400D01*
X162220400Y-103610400D02*
X159381400Y-103610400D01*
X162908400Y-102330400D02*
X159381400Y-102330400D01*
X161660400Y-104250400D02*
X159381400Y-104250400D01*
X161532400Y-104370400D02*
X154748400Y-104370400D01*
X162878400Y-102410400D02*
X159381400Y-102410400D01*
X156899400Y-103850400D02*
X154248400Y-103850400D01*
X160505400Y-105090400D02*
X155775400Y-105090400D01*
X161441400Y-104450400D02*
X154839400Y-104450400D01*
X156899400Y-102930400D02*
X153636400Y-102930400D01*
X156899400Y-102050400D02*
X153278400Y-102050400D01*
X162306400Y-103490400D02*
X159381400Y-103490400D01*
X162535400Y-103130400D02*
X159381400Y-103130400D01*
X160349400Y-105170400D02*
X155931400Y-105170400D01*
X161819400Y-104090400D02*
X159381400Y-104090400D01*
X162990400Y-102090400D02*
X159381400Y-102090400D01*
X163202400Y-101009400D02*
X153078400Y-101009400D01*
X162665400Y-102890400D02*
X159381400Y-102890400D01*
X159986400Y-105330400D02*
X156294400Y-105330400D01*
X161246400Y-104610400D02*
X155034400Y-104610400D01*
X156899400Y-102890400D02*
X153615400Y-102890400D01*
X156899400Y-103370400D02*
X153893400Y-103370400D01*
X163130400Y-101530400D02*
X153150400Y-101530400D01*
X162032400Y-103850400D02*
X159381400Y-103850400D01*
X161029400Y-104770400D02*
X155251400Y-104770400D01*
X163114400Y-101610400D02*
X153166400Y-101610400D01*
X162964400Y-102170400D02*
X159381400Y-102170400D01*
X156899400Y-104130400D02*
X154500400Y-104130400D01*
X156899400Y-102370400D02*
X153386400Y-102370400D01*
X159002400Y-105610400D02*
X157278400Y-105610400D01*
X156899400Y-102290400D02*
X153357400Y-102290400D01*
X156899400Y-101890400D02*
X153233400Y-101890400D01*
X163194400Y-101089400D02*
X153086400Y-101089400D01*
X156899400Y-103170400D02*
X153769400Y-103170400D01*
X156899400Y-104050400D02*
X154424400Y-104050400D01*
X163058400Y-101850400D02*
X159381400Y-101850400D01*
X156899400Y-103690400D02*
X154120400Y-103690400D01*
X161998400Y-103890400D02*
X159381400Y-103890400D01*
X162334400Y-103450400D02*
X159381400Y-103450400D01*
X162129400Y-103730400D02*
X159381400Y-103730400D01*
X163198400Y-101049400D02*
X153082400Y-101049400D01*
X162160400Y-103690400D02*
X159381400Y-103690400D01*
X161515400Y-95589754D02*
X160515400Y-95589754D01*
X156899400Y-102610400D02*
X153483400Y-102610400D01*
X161741400Y-104170400D02*
X159381400Y-104170400D01*
X163068400Y-101810400D02*
X153212400Y-101810400D01*
X156899400Y-102810400D02*
X153576400Y-102810400D01*
X161893400Y-104010400D02*
X159381400Y-104010400D01*
X163105400Y-101650400D02*
X153175400Y-101650400D01*
X162413400Y-103330400D02*
X159381400Y-103330400D01*
X156899400Y-103890400D02*
X154282400Y-103890400D01*
X163037400Y-101930400D02*
X159381400Y-101930400D01*
X160785400Y-104930400D02*
X155495400Y-104930400D01*
X163219400Y-100689400D02*
X153061400Y-100689400D01*
X156899400Y-102650400D02*
X153501400Y-102650400D01*
X156899400Y-102530400D02*
X153450400Y-102530400D01*
X163096400Y-101690400D02*
X153184400Y-101690400D01*
X163218400Y-100729400D02*
X153062400Y-100729400D01*
X160084400Y-105290400D02*
X156196400Y-105290400D01*
X163205400Y-100969400D02*
X153075400Y-100969400D01*
X160719400Y-104970400D02*
X155561400Y-104970400D01*
X162761400Y-102690400D02*
X159381400Y-102690400D01*
X159650400Y-105450400D02*
X156630400Y-105450400D01*
X163210400Y-100889400D02*
X153070400Y-100889400D01*
X156899400Y-102410400D02*
X153402400Y-102410400D01*
X156899400Y-101930400D02*
X153243400Y-101930400D01*
X163220400Y-100649400D02*
X153060400Y-100649400D01*
X156899400Y-102010400D02*
X153266400Y-102010400D01*
X156899400Y-103250400D02*
X153817400Y-103250400D01*
X163217400Y-100769400D02*
X153063400Y-100769400D01*
X159202400Y-105570400D02*
X157078400Y-105570400D01*
X163260400Y-100569400D02*
G75*
G03*
X163260400Y-100569400I-5120000J0D01*
G01*
%TO.C,J7*%
X107636000Y-128584000D02*
X107636000Y-127254000D01*
X110236000Y-125924000D02*
X117916000Y-125924000D01*
X108966000Y-128584000D02*
X107636000Y-128584000D01*
X117916000Y-128584000D02*
X117916000Y-125924000D01*
X110236000Y-128584000D02*
X117916000Y-128584000D01*
X110236000Y-128584000D02*
X110236000Y-125924000D01*
%TO.C,J9*%
X130556000Y-125974800D02*
X138236000Y-125974800D01*
X138236000Y-128634800D02*
X138236000Y-125974800D01*
X129286000Y-128634800D02*
X127956000Y-128634800D01*
X130556000Y-128634800D02*
X130556000Y-125974800D01*
X130556000Y-128634800D02*
X138236000Y-128634800D01*
X127956000Y-128634800D02*
X127956000Y-127304800D01*
%TO.C,R3*%
X144320000Y-114750000D02*
X144320000Y-111310000D01*
X134390000Y-113030000D02*
X135080000Y-113030000D01*
X145010000Y-113030000D02*
X144320000Y-113030000D01*
X135080000Y-114750000D02*
X144320000Y-114750000D01*
X144320000Y-111310000D02*
X135080000Y-111310000D01*
X135080000Y-111310000D02*
X135080000Y-114750000D01*
%TO.C,R4*%
X114760000Y-119830000D02*
X124000000Y-119830000D01*
X124690000Y-118110000D02*
X124000000Y-118110000D01*
X114760000Y-116390000D02*
X114760000Y-119830000D01*
X124000000Y-119830000D02*
X124000000Y-116390000D01*
X114070000Y-118110000D02*
X114760000Y-118110000D01*
X124000000Y-116390000D02*
X114760000Y-116390000D01*
%TO.C,R5*%
X107085000Y-104775000D02*
X107775000Y-104775000D01*
X117705000Y-104775000D02*
X117015000Y-104775000D01*
X117015000Y-103055000D02*
X107775000Y-103055000D01*
X107775000Y-106495000D02*
X117015000Y-106495000D01*
X117015000Y-106495000D02*
X117015000Y-103055000D01*
X107775000Y-103055000D02*
X107775000Y-106495000D01*
%TO.C,R6*%
X129135000Y-113030000D02*
X128445000Y-113030000D01*
X119205000Y-111310000D02*
X119205000Y-114750000D01*
X118515000Y-113030000D02*
X119205000Y-113030000D01*
X119205000Y-114750000D02*
X128445000Y-114750000D01*
X128445000Y-114750000D02*
X128445000Y-111310000D01*
X128445000Y-111310000D02*
X119205000Y-111310000D01*
%TO.C,R9*%
X135080000Y-117660000D02*
X135080000Y-121100000D01*
X145010000Y-119380000D02*
X144320000Y-119380000D01*
X144320000Y-121100000D02*
X144320000Y-117660000D01*
X134390000Y-119380000D02*
X135080000Y-119380000D01*
X144320000Y-117660000D02*
X135080000Y-117660000D01*
X135080000Y-121100000D02*
X144320000Y-121100000D01*
%TO.C,TH1*%
X158318200Y-122206600D02*
X158318200Y-119946600D01*
X160038200Y-123926600D02*
G75*
G03*
X160038200Y-123926600I-1720000J0D01*
G01*
%TO.C,C8*%
X130281000Y-97742000D02*
X130281000Y-100359000D01*
X129721000Y-102841000D02*
X129721000Y-105873000D01*
X127280000Y-96530000D02*
X127280000Y-106670000D01*
X129961000Y-97490000D02*
X129961000Y-100359000D01*
X130521000Y-102841000D02*
X130521000Y-105240000D01*
X130241000Y-102841000D02*
X130241000Y-105492000D01*
X128601000Y-96789000D02*
X128601000Y-100359000D01*
X131721000Y-99754000D02*
X131721000Y-103446000D01*
X128241000Y-96682000D02*
X128241000Y-100359000D01*
X130121000Y-97611000D02*
X130121000Y-100359000D01*
X128321000Y-102841000D02*
X128321000Y-106497000D01*
X129521000Y-97205000D02*
X129521000Y-100359000D01*
X128521000Y-102841000D02*
X128521000Y-106437000D01*
X128401000Y-96726000D02*
X128401000Y-100359000D01*
X127400000Y-96538000D02*
X127400000Y-106662000D01*
X130481000Y-102841000D02*
X130481000Y-105279000D01*
X131441000Y-99161000D02*
X131441000Y-104039000D01*
X130681000Y-98122000D02*
X130681000Y-100359000D01*
X129921000Y-102841000D02*
X129921000Y-105738000D01*
X121980354Y-98225000D02*
X121980354Y-99225000D01*
X130321000Y-102841000D02*
X130321000Y-105424000D01*
X131321000Y-98955000D02*
X131321000Y-104245000D01*
X128601000Y-102841000D02*
X128601000Y-106411000D01*
X131601000Y-99475000D02*
X131601000Y-103725000D01*
X130601000Y-98039000D02*
X130601000Y-100359000D01*
X129441000Y-97160000D02*
X129441000Y-100359000D01*
X128681000Y-102841000D02*
X128681000Y-106383000D01*
X128841000Y-102841000D02*
X128841000Y-106323000D01*
X131281000Y-98891000D02*
X131281000Y-104309000D01*
X128561000Y-102841000D02*
X128561000Y-106424000D01*
X131121000Y-98655000D02*
X131121000Y-104545000D01*
X130161000Y-102841000D02*
X130161000Y-105557000D01*
X129961000Y-102841000D02*
X129961000Y-105710000D01*
X129841000Y-97406000D02*
X129841000Y-100359000D01*
X127080000Y-96521000D02*
X127080000Y-106679000D01*
X127000000Y-96520000D02*
X127000000Y-106680000D01*
X129361000Y-97117000D02*
X129361000Y-100359000D01*
X131201000Y-98770000D02*
X131201000Y-104430000D01*
X129681000Y-102841000D02*
X129681000Y-105898000D01*
X130921000Y-98394000D02*
X130921000Y-104806000D01*
X129201000Y-102841000D02*
X129201000Y-106164000D01*
X131161000Y-98711000D02*
X131161000Y-104489000D01*
X127560000Y-96555000D02*
X127560000Y-106645000D01*
X132001000Y-100738000D02*
X132001000Y-102462000D01*
X130761000Y-98208000D02*
X130761000Y-104992000D01*
X129401000Y-102841000D02*
X129401000Y-106062000D01*
X128481000Y-96750000D02*
X128481000Y-100359000D01*
X130881000Y-98346000D02*
X130881000Y-104854000D01*
X129081000Y-96979000D02*
X129081000Y-100359000D01*
X130681000Y-102841000D02*
X130681000Y-105078000D01*
X127640000Y-96565000D02*
X127640000Y-106635000D01*
X128801000Y-96862000D02*
X128801000Y-100359000D01*
X127360000Y-96535000D02*
X127360000Y-106665000D01*
X131521000Y-99311000D02*
X131521000Y-103889000D01*
X131481000Y-99235000D02*
X131481000Y-103965000D01*
X129401000Y-97138000D02*
X129401000Y-100359000D01*
X129201000Y-97036000D02*
X129201000Y-100359000D01*
X128841000Y-96877000D02*
X128841000Y-100359000D01*
X130721000Y-98164000D02*
X130721000Y-105036000D01*
X131761000Y-99858000D02*
X131761000Y-103342000D01*
X128761000Y-96846000D02*
X128761000Y-100359000D01*
X127200000Y-96525000D02*
X127200000Y-106675000D01*
X129241000Y-97055000D02*
X129241000Y-100359000D01*
X127801000Y-96589000D02*
X127801000Y-106611000D01*
X130201000Y-97675000D02*
X130201000Y-100359000D01*
X128161000Y-96662000D02*
X128161000Y-106538000D01*
X128761000Y-102841000D02*
X128761000Y-106354000D01*
X130361000Y-102841000D02*
X130361000Y-105389000D01*
X128521000Y-96763000D02*
X128521000Y-100359000D01*
X127040000Y-96520000D02*
X127040000Y-106680000D01*
X129881000Y-97434000D02*
X129881000Y-100359000D01*
X130641000Y-98080000D02*
X130641000Y-100359000D01*
X127480000Y-96546000D02*
X127480000Y-106654000D01*
X129241000Y-102841000D02*
X129241000Y-106145000D01*
X128041000Y-96635000D02*
X128041000Y-106565000D01*
X130081000Y-102841000D02*
X130081000Y-105620000D01*
X127120000Y-96522000D02*
X127120000Y-106678000D01*
X128321000Y-96703000D02*
X128321000Y-100359000D01*
X130121000Y-102841000D02*
X130121000Y-105589000D01*
X130041000Y-97550000D02*
X130041000Y-100359000D01*
X127961000Y-96618000D02*
X127961000Y-106582000D01*
X130561000Y-97999000D02*
X130561000Y-100359000D01*
X129001000Y-96943000D02*
X129001000Y-100359000D01*
X129641000Y-102841000D02*
X129641000Y-105923000D01*
X129761000Y-97353000D02*
X129761000Y-100359000D01*
X129481000Y-102841000D02*
X129481000Y-106017000D01*
X129001000Y-102841000D02*
X129001000Y-106257000D01*
X131241000Y-98830000D02*
X131241000Y-104370000D01*
X128481000Y-102841000D02*
X128481000Y-106450000D01*
X127681000Y-96570000D02*
X127681000Y-106630000D01*
X130001000Y-97520000D02*
X130001000Y-100359000D01*
X127721000Y-96576000D02*
X127721000Y-106624000D01*
X128961000Y-102841000D02*
X128961000Y-106274000D01*
X127320000Y-96532000D02*
X127320000Y-106668000D01*
X128201000Y-96672000D02*
X128201000Y-106528000D01*
X130441000Y-102841000D02*
X130441000Y-105316000D01*
X128641000Y-96803000D02*
X128641000Y-100359000D01*
X129321000Y-97096000D02*
X129321000Y-100359000D01*
X130441000Y-97884000D02*
X130441000Y-100359000D01*
X129081000Y-102841000D02*
X129081000Y-106221000D01*
X129161000Y-102841000D02*
X129161000Y-106184000D01*
X129321000Y-102841000D02*
X129321000Y-106104000D01*
X127841000Y-96596000D02*
X127841000Y-106604000D01*
X130321000Y-97776000D02*
X130321000Y-100359000D01*
X130161000Y-97643000D02*
X130161000Y-100359000D01*
X129641000Y-97277000D02*
X129641000Y-100359000D01*
X129921000Y-97462000D02*
X129921000Y-100359000D01*
X129561000Y-102841000D02*
X129561000Y-105971000D01*
X130481000Y-97921000D02*
X130481000Y-100359000D01*
X131081000Y-98600000D02*
X131081000Y-104600000D01*
X128921000Y-96910000D02*
X128921000Y-100359000D01*
X128401000Y-102841000D02*
X128401000Y-106474000D01*
X130801000Y-98253000D02*
X130801000Y-104947000D01*
X129281000Y-102841000D02*
X129281000Y-106125000D01*
X129561000Y-97229000D02*
X129561000Y-100359000D01*
X128881000Y-96893000D02*
X128881000Y-100359000D01*
X130561000Y-102841000D02*
X130561000Y-105201000D01*
X130841000Y-98299000D02*
X130841000Y-104901000D01*
X128361000Y-102841000D02*
X128361000Y-106485000D01*
X129681000Y-97302000D02*
X129681000Y-100359000D01*
X131361000Y-99021000D02*
X131361000Y-104179000D01*
X128121000Y-96653000D02*
X128121000Y-106547000D01*
X128881000Y-102841000D02*
X128881000Y-106307000D01*
X132041000Y-101001000D02*
X132041000Y-102199000D01*
X128281000Y-102841000D02*
X128281000Y-106507000D01*
X130961000Y-98444000D02*
X130961000Y-104756000D01*
X131401000Y-99090000D02*
X131401000Y-104110000D01*
X130201000Y-102841000D02*
X130201000Y-105525000D01*
X127240000Y-96527000D02*
X127240000Y-106673000D01*
X131881000Y-100222000D02*
X131881000Y-102978000D01*
X130601000Y-102841000D02*
X130601000Y-105161000D01*
X128441000Y-102841000D02*
X128441000Y-106462000D01*
X127160000Y-96523000D02*
X127160000Y-106677000D01*
X129721000Y-97327000D02*
X129721000Y-100359000D01*
X128561000Y-96776000D02*
X128561000Y-100359000D01*
X129601000Y-102841000D02*
X129601000Y-105947000D01*
X129601000Y-97253000D02*
X129601000Y-100359000D01*
X127440000Y-96542000D02*
X127440000Y-106658000D01*
X129881000Y-102841000D02*
X129881000Y-105766000D01*
X128721000Y-102841000D02*
X128721000Y-106368000D01*
X130641000Y-102841000D02*
X130641000Y-105120000D01*
X131801000Y-99970000D02*
X131801000Y-103230000D01*
X127600000Y-96560000D02*
X127600000Y-106640000D01*
X129121000Y-96997000D02*
X129121000Y-100359000D01*
X128241000Y-102841000D02*
X128241000Y-106518000D01*
X128001000Y-96626000D02*
X128001000Y-106574000D01*
X126960000Y-96520000D02*
X126960000Y-106680000D01*
X130401000Y-97847000D02*
X130401000Y-100359000D01*
X127761000Y-96582000D02*
X127761000Y-106618000D01*
X130281000Y-102841000D02*
X130281000Y-105458000D01*
X130401000Y-102841000D02*
X130401000Y-105353000D01*
X129801000Y-97379000D02*
X129801000Y-100359000D01*
X129161000Y-97016000D02*
X129161000Y-100359000D01*
X128441000Y-96738000D02*
X128441000Y-100359000D01*
X130041000Y-102841000D02*
X130041000Y-105650000D01*
X127881000Y-96603000D02*
X127881000Y-106597000D01*
X128921000Y-102841000D02*
X128921000Y-106290000D01*
X128721000Y-96832000D02*
X128721000Y-100359000D01*
X128681000Y-96817000D02*
X128681000Y-100359000D01*
X128641000Y-102841000D02*
X128641000Y-106397000D01*
X129801000Y-102841000D02*
X129801000Y-105821000D01*
X131641000Y-99563000D02*
X131641000Y-103637000D01*
X129121000Y-102841000D02*
X129121000Y-106203000D01*
X129761000Y-102841000D02*
X129761000Y-105847000D01*
X129361000Y-102841000D02*
X129361000Y-106083000D01*
X121480354Y-98725000D02*
X122480354Y-98725000D01*
X129841000Y-102841000D02*
X129841000Y-105794000D01*
X131041000Y-98546000D02*
X131041000Y-104654000D01*
X128081000Y-96644000D02*
X128081000Y-106556000D01*
X128281000Y-96693000D02*
X128281000Y-100359000D01*
X130081000Y-97580000D02*
X130081000Y-100359000D01*
X127921000Y-96610000D02*
X127921000Y-106590000D01*
X131001000Y-98494000D02*
X131001000Y-104706000D01*
X131561000Y-99391000D02*
X131561000Y-103809000D01*
X128801000Y-102841000D02*
X128801000Y-106338000D01*
X129281000Y-97075000D02*
X129281000Y-100359000D01*
X131921000Y-100370000D02*
X131921000Y-102830000D01*
X131961000Y-100538000D02*
X131961000Y-102662000D01*
X130521000Y-97960000D02*
X130521000Y-100359000D01*
X129521000Y-102841000D02*
X129521000Y-105995000D01*
X130361000Y-97811000D02*
X130361000Y-100359000D01*
X130241000Y-97708000D02*
X130241000Y-100359000D01*
X129481000Y-97183000D02*
X129481000Y-100359000D01*
X127520000Y-96550000D02*
X127520000Y-106650000D01*
X131681000Y-99656000D02*
X131681000Y-103544000D01*
X131841000Y-100090000D02*
X131841000Y-103110000D01*
X129441000Y-102841000D02*
X129441000Y-106040000D01*
X128361000Y-96715000D02*
X128361000Y-100359000D01*
X130001000Y-102841000D02*
X130001000Y-105680000D01*
X129041000Y-102841000D02*
X129041000Y-106239000D01*
X128961000Y-96926000D02*
X128961000Y-100359000D01*
X129041000Y-96961000D02*
X129041000Y-100359000D01*
X132080000Y-101600000D02*
G75*
G03*
X132080000Y-101600000I-5120000J0D01*
G01*
%TO.C,D2*%
X167930000Y-104106000D02*
X167930000Y-103950000D01*
X167930000Y-101790000D02*
X167930000Y-101634000D01*
X165328870Y-103949837D02*
G75*
G03*
X167410961Y-103950000I1041130J1079837D01*
G01*
X167410961Y-101790000D02*
G75*
G03*
X165328870Y-101790163I-1040961J-1080000D01*
G01*
X164697665Y-103948608D02*
G75*
G03*
X167930000Y-104105516I1672335J1078608D01*
G01*
X167930000Y-101634484D02*
G75*
G03*
X164697665Y-101791392I-1560000J-1235516D01*
G01*
%TO.C,R10*%
X171910000Y-99510000D02*
X181150000Y-99510000D01*
X181150000Y-99510000D02*
X181150000Y-96070000D01*
X181150000Y-96070000D02*
X171910000Y-96070000D01*
X171220000Y-97790000D02*
X171910000Y-97790000D01*
X171910000Y-96070000D02*
X171910000Y-99510000D01*
X181840000Y-97790000D02*
X181150000Y-97790000D01*
%TO.C,D3*%
X164810000Y-96554000D02*
X164810000Y-96710000D01*
X164810000Y-98870000D02*
X164810000Y-99026000D01*
X168042335Y-96711392D02*
G75*
G03*
X164810000Y-96554484I-1672335J-1078608D01*
G01*
X164810000Y-99025516D02*
G75*
G03*
X168042335Y-98868608I1560000J1235516D01*
G01*
X165329039Y-98870000D02*
G75*
G03*
X167411130Y-98869837I1040961J1080000D01*
G01*
X167411130Y-96710163D02*
G75*
G03*
X165329039Y-96710000I-1041130J-1079837D01*
G01*
%TD*%
M02*
